<?xml version="1.0" encoding="UTF-8" standalone="no"?>
<svg
   width="244"
   height="84"
   viewBox="0 0 244 84"
   version="1.1"
   id="svg33"
   sodipodi:docname="dsi-logo-long.svg"
   inkscape:version="1.4 (e7c3feb1, 2024-10-09)"
   inkscape:export-filename="dsi-logo-long.png"
   inkscape:export-xdpi="298.98999"
   inkscape:export-ydpi="298.98999"
   xmlns:inkscape="http://www.inkscape.org/namespaces/inkscape"
   xmlns:sodipodi="http://sodipodi.sourceforge.net/DTD/sodipodi-0.dtd"
   xmlns="http://www.w3.org/2000/svg"
   xmlns:svg="http://www.w3.org/2000/svg"
   xmlns:rdf="http://www.w3.org/1999/02/22-rdf-syntax-ns#"
   xmlns:cc="http://creativecommons.org/ns#"
   xmlns:dc="http://purl.org/dc/elements/1.1/">
  <sodipodi:namedview
     id="namedview33"
     pagecolor="#070954"
     bordercolor="#000000"
     borderopacity="0.25"
     inkscape:showpageshadow="2"
     inkscape:pageopacity="0.0"
     inkscape:pagecheckerboard="0"
     inkscape:deskcolor="#d1d1d1"
     inkscape:zoom="3.0015961"
     inkscape:cx="120.26935"
     inkscape:cy="34.648233"
     inkscape:window-width="1952"
     inkscape:window-height="1061"
     inkscape:window-x="4537"
     inkscape:window-y="54"
     inkscape:window-maximized="0"
     inkscape:current-layer="DSI_Logo_Color" />
  <title
     id="title1">DSI_Logo_Color 2@1x</title>
  <defs
     id="defs7">
    <radialGradient
       cx="31.419769"
       cy="22.63521"
       fx="31.419769"
       fy="22.63521"
       r="24.481789"
       gradientTransform="scale(0.90400347,1.1061904)"
       id="radialGradient-1"
       gradientUnits="userSpaceOnUse">
      <stop
         stop-color="#8B0021"
         offset="0"
         id="stop1"
         style="stop-color:#e53b64;stop-opacity:1;" />
      <stop
         stop-color="#EC1C24"
         offset="1"
         id="stop7"
         style="stop-color:#a81635;stop-opacity:1;" />
    </radialGradient>
  </defs>
  <g
     id="Front-Matter"
     stroke="none"
     stroke-width="1"
     fill="none"
     fill-rule="evenodd"
     transform="translate(11.307692,19.081731)">
    <g
       id="Style-Library"
       transform="translate(-272,-3867)"
       fill-rule="nonzero">
      <g
         id="DSI_Logo_Color"
         transform="translate(272,3867)">
        <rect
           id="Rectangle"
           fill="#000000"
           x="50.543179"
           y="12.190815"
           width="171.20444"
           height="1"
           style="fill:#ffffff;fill-opacity:1" />
        <polygon
           id="Path"
           fill="#8b0021"
           points="54.266403,1.771315 54.266403,7.56616 52.676443,7.56616 52.676443,1.771315 50.471271,1.771315 50.471271,0.296555 56.471575,0.296555 56.471575,1.771315 "
           style="fill:#ffffff;fill-opacity:1" />
        <polygon
           id="polygon7"
           fill="#8b0021"
           points="64.173697,0.296555 64.173697,7.56616 62.583736,7.56616 62.583736,4.6487 59.643507,4.6487 59.643507,7.56616 58.053546,7.56616 58.053546,0.296555 59.643507,0.296555 59.643507,3.17394 62.583736,3.17394 62.583736,0.296555 "
           style="fill:#ffffff;fill-opacity:1" />
        <polygon
           id="polygon8"
           fill="#8b0021"
           points="71.268598,3.18997 71.268598,4.61664 67.856973,4.61664 67.856973,6.13949 71.787932,6.13949 71.787932,7.56616 66.275002,7.56616 66.275002,0.296555 71.739993,0.296555 71.739993,1.723225 67.856973,1.723225 67.856973,3.18997 "
           style="fill:#ffffff;fill-opacity:1" />
        <path
           d="m 76.909364,4.448325 v -4.15177 h 1.59795 V 4.40825 c 0,1.178205 0.591242,1.79536 1.558002,1.79536 0.96676,0 1.597951,-0.59311 1.597951,-1.74727 V 0.296555 h 1.59795 v 4.10368 c 0,2.19611 -1.230422,3.278135 -3.195901,3.278135 -1.965479,0 -3.155952,-1.09004 -3.155952,-3.230045"
           id="path8"
           fill="#8b0021"
           style="fill:#ffffff;fill-opacity:1" />
        <polygon
           id="polygon9"
           fill="#8b0021"
           points="90.076477,0.296555 91.650458,0.296555 91.650458,7.56616 90.2922,7.56616 86.784699,2.941505 86.784699,7.56616 85.218707,7.56616 85.218707,0.296555 86.688822,0.296555 90.076477,4.768925 "
           style="fill:#ffffff;fill-opacity:1" />
        <rect
           id="rect9"
           fill="#8b0021"
           x="93.823669"
           y="0.29655501"
           width="1.5899608"
           height="7.26159"
           style="fill:#ffffff;fill-opacity:1" />
        <polygon
           id="polygon10"
           fill="#8b0021"
           points="101.30208,7.61425 99.895883,7.61425 96.971634,0.296555 98.72938,0.296555 100.62295,5.410125 102.51652,0.296555 104.22633,0.296555 "
           style="fill:#ffffff;fill-opacity:1" />
        <polygon
           id="polygon11"
           fill="#8b0021"
           points="110.70602,3.18997 110.70602,4.61664 107.29439,4.61664 107.29439,6.13949 111.22535,6.13949 111.22535,7.56616 105.71242,7.56616 105.71242,0.296555 111.16943,0.296555 111.16943,1.723225 107.29439,1.723225 107.29439,3.18997 "
           style="fill:#ffffff;fill-opacity:1" />
        <path
           d="m 112.99908,0.296555 h 3.31575 c 0.77291,-0.0456657 1.53207,0.21972588 2.10929,0.73738 0.41961,0.4477637 0.64391,1.0448986 0.6232,1.659105 v 0 c 0.0404,1.0280848 -0.61638,1.9538358 -1.59795,2.252215 l 1.80569,2.61289 h -1.86162 l -1.55001,-2.32435 h -1.25439 v 2.32435 h -1.59795 z m 3.1959,3.5266 c 0.79898,0 1.22243,-0.408765 1.22243,-1.02592 v 0 c 0,-0.68929 -0.47938,-1.04195 -1.25439,-1.04195 h -1.59795 v 2.0839 z"
           id="Shape"
           fill="#8b0021"
           style="fill:#ffffff;fill-opacity:1" />
        <path
           d="m 120.34965,6.500165 0.9348,-1.130115 c 0.58641,0.5594203 1.35652,0.8843995 2.16523,0.91371 0.65516,0 1.04665,-0.25648 1.04665,-0.681275 v 0 c 0,-0.40075 -0.24768,-0.60914 -1.46212,-0.921725 -1.45414,-0.376705 -2.39693,-0.8015 -2.39693,-2.220155 v 0 c 0,-1.31446 1.05465,-2.188095 2.53275,-2.188095 0.97663,-0.013455 1.92786,0.31217524 2.69255,0.921725 L 125.06361,2.4045 c -0.53843,-0.4259595 -1.19328,-0.6775451 -1.8776,-0.72135 -0.61521,0 -0.9348,0.280525 -0.9348,0.633185 V 2.27626 c 0,0.472885 0.3116,0.633185 1.59795,0.953785 1.46213,0.38472 2.29306,0.91371 2.29306,2.18008 v 0 c 0,1.4427 -1.09459,2.2522505 -2.66059,2.2522505 -1.13038,0.00441 -2.22273,-0.4093643 -3.06806,-1.1622105"
           id="path11"
           fill="#8b0021"
           style="fill:#ffffff;fill-opacity:1" />
        <rect
           id="rect11"
           fill="#8b0021"
           x="127.89997"
           y="0.29655501"
           width="1.5899608"
           height="7.26159"
           style="fill:#ffffff;fill-opacity:1" />
        <polygon
           id="polygon12"
           fill="#8b0021"
           points="134.93894,1.771315 134.93894,7.56616 133.34898,7.56616 133.34898,1.771315 131.14381,1.771315 131.14381,0.296555 137.14411,0.296555 137.14411,1.771315 "
           style="fill:#ffffff;fill-opacity:1" />
        <polygon
           id="polygon13"
           fill="#8b0021"
           points="139.84465,0.296555 141.57044,3.214015 143.33617,0.296555 145.14186,0.296555 142.36142,4.66473 142.36142,7.558145 140.77146,7.558145 140.77146,4.69679 137.98304,0.296555 "
           style="fill:#ffffff;fill-opacity:1" />
        <path
           d="m 149.61612,3.951395 v 0 c 0,-2.133603 1.72418,-3.86323 3.85106,-3.86323 2.12688,0 3.85106,1.729627 3.85106,3.86323 v 0 c 4.5e-4,1.0167077 -0.40966,1.9902394 -1.13678,2.6985115 -0.72711,0.7082721 -1.70922,1.0908731 -2.72227,1.0605235 -1.01351,0.037342 -1.99802,-0.3434809 -2.72417,-1.0537475 -0.72615,-0.7102665 -1.13052,-1.6879541 -1.1189,-2.7052875 m 6.03226,0 v 0 c 0.0194,-0.5963205 -0.20213,-1.175221 -0.61433,-1.6053265 -0.4122,-0.4301056 -0.98012,-0.6749428 -1.57486,-0.6789485 -0.57847,0.00418 -1.13121,0.240402 -1.53497,0.6559786 -0.40376,0.4155767 -0.62496,0.9759514 -0.61428,1.5561614 v 0 c -0.0217,0.5969414 0.19914,1.1771376 0.61182,1.6077466 0.41269,0.4306089 0.98192,0.6747514 1.57738,0.6765506 0.59119,0.00266 1.15777,-0.2372888 1.5682,-0.6641523 0.41043,-0.4268635 0.62901,-1.0035196 0.60501,-1.5960999"
           id="path13"
           fill="#8b0021"
           style="fill:#ffffff;fill-opacity:1" />
        <polygon
           id="polygon14"
           fill="#8b0021"
           points="160.71388,1.74727 160.71388,3.294165 164.16546,3.294165 164.16546,4.752895 160.71388,4.752895 160.71388,7.56616 159.11593,7.56616 159.11593,0.296555 164.62886,0.296555 164.62886,1.74727 "
           style="fill:#ffffff;fill-opacity:1" />
        <path
           d="m 169.40674,3.951395 v 0 c -0.0156,-1.0065424 0.3789,-1.975887 1.09223,-2.6839136 0.71334,-0.70802652 1.68377,-1.09343157 2.68692,-1.0671064 1.06552,-0.0528834 2.103,0.35234118 2.85234,1.114085 l -1.00671,1.178205 c -0.48992,-0.4996003 -1.15515,-0.7872432 -1.85362,-0.8015 -1.18077,0.026291 -2.11916,1.0034384 -2.10131,2.188095 v 0 c -0.0349,0.5854291 0.16945,1.1598571 0.56593,1.5908588 0.39648,0.4310016 0.95087,0.6813807 1.53538,0.6934162 0.72401,-0.00576 1.41297,-0.3135715 1.90156,-0.84959 l 1.0147,1.02592 c -1.03411,1.1818892 -2.68317,1.6098167 -4.15887,1.0792199 -1.4757,-0.5305968 -2.47831,-1.9119459 -2.52855,-3.4837199"
           id="path14"
           fill="#8b0021"
           style="fill:#ffffff;fill-opacity:1" />
        <polygon
           id="polygon15"
           fill="#8b0021"
           points="183.85221,0.296555 183.85221,7.56616 182.25426,7.56616 182.25426,4.6487 179.32202,4.6487 179.32202,7.56616 177.72407,7.56616 177.72407,0.296555 179.32202,0.296555 179.32202,3.17394 182.25426,3.17394 182.25426,0.296555 "
           style="fill:#ffffff;fill-opacity:1" />
        <rect
           id="rect15"
           fill="#8b0021"
           x="186.02542"
           y="0.29655501"
           width="1.5899608"
           height="7.26159"
           style="fill:#ffffff;fill-opacity:1" />
        <path
           d="m 189.46901,3.951395 v 0 c -0.0179,-1.0072261 0.37588,-1.9779224 1.08973,-2.6864566 0.71384,-0.70853425 1.68561,-1.09319251 2.68942,-1.0645634 1.06519,-0.0508327 2.10186,0.35407774 2.85234,1.114085 l -1.0147,1.178205 c -0.48894,-0.5010418 -1.15479,-0.7889513 -1.85362,-0.8015 -1.16818,0.043452 -2.08753,1.0155584 -2.06935,2.188095 v 0 c -0.0349,0.5854291 0.16945,1.1598571 0.56593,1.5908588 0.39648,0.4310016 0.95087,0.6813807 1.53538,0.6934162 0.71365,0.00262 1.3975,-0.2868338 1.89357,-0.8015 l 1.00671,1.02592 c -1.03524,1.1759205 -2.68054,1.5998542 -4.15253,1.0699561 -1.472,-0.5298981 -2.4732,-1.9065329 -2.52691,-3.4744561"
           id="path15"
           fill="#8b0021"
           style="fill:#ffffff;fill-opacity:1" />
        <path
           d="m 200.27115,0.248465 h 1.46213 l 3.10801,7.30968 h -1.69383 l -0.65516,-1.603 h -3.06806 l -0.66315,1.603 h -1.59795 z m 1.66986,4.271995 -0.95877,-2.35641 -0.96676,2.35641 z"
           id="path16"
           fill="#8b0021"
           style="fill:#ffffff;fill-opacity:1" />
        <path
           d="m 205.54439,3.951395 v 0 c -0.007,-1.0066637 0.39282,-1.9732364 1.10766,-2.6797675 0.71484,-0.70653117 1.68419,-1.09292415 2.68747,-1.0712525 1.04107,-0.0536835 2.06181,0.30298089 2.84435,0.99386 l -1.04665,1.18622 c -0.51009,-0.4858392 -1.19032,-0.7507288 -1.89358,-0.73738 -1.17004,0.072895 -2.07339,1.0605177 -2.04537,2.236185 v 0 c -0.0354,0.6028699 0.18,1.1934756 0.59496,1.6310116 0.41495,0.437536 0.99224,0.6827962 1.59423,0.6773084 0.53488,0.018625 1.06154,-0.1359364 1.50207,-0.440825 V 4.76091 h -1.59795 V 3.38233 h 3.13998 v 3.149895 c -0.85733,0.7476834 -1.95603,1.1577966 -3.09204,1.15416 -1.0083,0.049635 -1.99144,-0.3254278 -2.71207,-1.0346352 -0.72063,-0.7092075 -1.11325,-1.6881051 -1.08306,-2.7003548"
           id="path17"
           fill="#8b0021"
           style="fill:#ffffff;fill-opacity:1" />
        <path
           d="m 214.00554,3.951395 v 0 c -5.2e-4,-1.0160174 0.40984,-1.9887861 1.13721,-2.6957993 0.72738,-0.70701319 1.70954,-1.0877855 2.72184,-1.0552207 0.99828,-0.0346049 1.96825,0.33637301 2.69018,1.0289007 0.72193,0.6925277 1.13473,1.6479995 1.1449,2.6499843 v 0 c -0.0937,2.0630557 -1.78837,3.6873103 -3.84707,3.6873103 -2.05869,0 -3.75332,-1.6242546 -3.84706,-3.6873103 m 6.03226,0 v 0 c 0.0194,-0.5977037 -0.20317,-1.1778396 -0.61711,-1.6081874 -0.41394,-0.4303478 -0.98394,-0.674239 -1.58007,-0.676089 -0.59483,-6.805e-4 -1.16394,0.243253 -1.57462,0.6749192 -0.41067,0.4316662 -0.62702,1.0133315 -0.59859,1.6093572 v 0 c -0.0217,0.59833 0.20016,1.1797723 0.61459,1.6106269 0.41443,0.4308546 0.98575,0.6740441 1.58259,0.6736703 0.59119,0.00266 1.15777,-0.2372888 1.5682,-0.6641523 0.41043,-0.4268635 0.62901,-1.0035196 0.60501,-1.5960999"
           id="path18"
           fill="#8b0021"
           style="fill:#ffffff;fill-opacity:1" />
        <path
           d="m 50.319465,17.50476 h 4.793852 c 3.867041,0 6.535618,2.66098 6.535618,6.131475 v 0.04008 c 0,3.470495 -2.668577,6.17155 -6.535618,6.17155 h -4.793852 z m 2.708527,2.4045 v 7.445935 h 2.093315 c 0.994226,0.05812 1.966208,-0.310486 2.673467,-1.013863 0.707259,-0.703378 1.083105,-1.675203 1.033778,-2.673037 v 0 c 0.06025,-1.007217 -0.309529,-1.99258 -1.016951,-2.709884 -0.707422,-0.717305 -1.685662,-1.098795 -2.690294,-1.049151 z"
           id="path19"
           fill="#58595b"
           style="fill:#ffffff;fill-opacity:1" />
        <path
           d="m 67.497434,17.40858 h 2.492804 l 5.273237,12.431265 h -2.828373 l -1.118566,-2.77319 h -5.209318 l -1.126556,2.77319 h -2.764454 z m 2.844353,7.26159 -1.597951,-4.0075 -1.597951,4.0075 z"
           id="path20"
           fill="#58595b"
           style="fill:#ffffff;fill-opacity:1" />
        <polygon
           id="polygon20"
           fill="#58595b"
           points="81.23981,20.00544 81.23981,29.839845 78.507314,29.839845 78.507314,19.997425 74.784089,19.997425 74.784089,17.50476 84.987004,17.50476 84.987004,20.00544 "
           style="fill:#ffffff;fill-opacity:1" />
        <path
           d="m 89.804825,17.40858 h 2.492803 l 5.273237,12.431265 h -2.828372 l -1.126556,-2.77319 h -5.201329 l -1.118565,2.77319 h -2.764455 z m 2.844352,7.26159 -1.59795,-4.0075 -1.597951,4.0075 z"
           id="path21"
           fill="#58595b"
           style="fill:#ffffff;fill-opacity:1" />
        <path
           d="m 104.07452,28.03647 1.59796,-1.915585 c 1.00533,0.92708 2.31029,1.459252 3.67528,1.498805 1.11058,0 1.77373,-0.440825 1.77373,-1.17019 v 0 c 0,-0.68929 -0.42346,-1.04195 -2.47683,-1.603 -2.47682,-0.633185 -4.08276,-1.322475 -4.08276,-3.775065 v 0 c 0,-2.2442 1.79769,-3.71896 4.31447,-3.71896 1.65741,-0.023 3.27186,0.529116 4.57014,1.562925 l -1.38223,2.01978 c -0.91836,-0.72028 -2.03247,-1.144978 -3.1959,-1.21828 -1.03867,0 -1.59795,0.472885 -1.59795,1.07401 v 0 c 0,0.8015 0.52732,1.082025 2.65259,1.603 2.5008,0.649215 3.90699,1.546895 3.90699,3.70293 v 0 c 0,2.45259 -1.86161,3.83117 -4.5222,3.83117 -1.91641,0.03329 -3.77844,-0.639723 -5.23329,-1.89154 z"
           id="path22"
           fill="#58595b"
           style="fill:#ffffff;fill-opacity:1" />
        <path
           d="m 115.39601,23.700355 v 0 c -0.0375,-1.711814 0.62391,-3.364662 1.83082,-4.575389 1.20691,-1.210728 2.85455,-1.874198 4.56098,-1.836611 1.81428,-0.09 3.57999,0.604502 4.84978,1.90757 l -1.72579,1.98772 c -0.82547,-0.856554 -1.95277,-1.354364 -3.13997,-1.386595 -0.98643,0.01827 -1.9233,0.437066 -2.59642,1.160652 -0.67312,0.723586 -1.02493,1.690087 -0.975,2.678533 v 0.04008 c -0.0566,0.994018 0.29174,1.968459 0.96512,2.699882 0.67338,0.731424 1.61404,1.157085 2.6063,1.179378 1.21879,-0.02235 2.37466,-0.547034 3.1959,-1.450715 l 1.72579,1.74727 c -1.76501,2.009473 -4.57694,2.729104 -7.08585,1.813409 -2.5089,-0.915694 -4.20245,-3.279727 -4.26759,-5.957164 z"
           id="path23"
           fill="#58595b"
           style="fill:#ffffff;fill-opacity:1" />
        <polygon
           id="polygon23"
           fill="#58595b"
           points="131.63917,17.50476 131.63917,29.84786 128.93065,29.84786 128.93065,17.50476 "
           style="fill:#ffffff;fill-opacity:1" />
        <polygon
           id="polygon24"
           fill="#58595b"
           points="143.32019,22.40994 143.32019,24.81444 137.51963,24.81444 137.51963,27.403285 144.19906,27.403285 144.19906,29.807785 134.83507,29.807785 134.83507,17.50476 144.11118,17.50476 144.11118,19.90926 137.51963,19.90926 137.51963,22.40994 "
           style="fill:#ffffff;fill-opacity:1" />
        <polygon
           id="polygon25"
           fill="#58595b"
           points="154.92131,17.50476 157.60587,17.50476 157.60587,29.84786 155.30482,29.84786 149.34447,22.001175 149.34447,29.84786 146.65991,29.84786 146.65991,17.50476 149.1607,17.50476 154.92131,25.10298 "
           style="fill:#ffffff;fill-opacity:1" />
        <path
           d="m 159.85898,23.700355 v 0 c -0.0375,-1.711814 0.62391,-3.364662 1.83083,-4.575389 1.20691,-1.210728 2.85455,-1.874198 4.56097,-1.836611 1.81429,-0.09 3.57999,0.604502 4.84978,1.90757 l -1.72578,1.98772 c -0.82941,-0.855615 -1.95873,-1.35305 -3.14797,-1.386595 -0.98502,0.02041 -1.91982,0.440139 -2.59121,1.163482 -0.67139,0.723343 -1.02212,1.68862 -0.97222,2.675703 v 0.04008 c -0.0588,0.993234 0.28763,1.967747 0.95976,2.699446 0.67213,0.731699 1.61207,1.157617 2.60367,1.179814 1.21837,-0.02423 2.37353,-0.548596 3.1959,-1.450715 l 1.76574,1.739255 c -1.25592,1.47433 -3.11808,2.287167 -5.04952,2.204125 -1.67922,0.0176 -3.29409,-0.647121 -4.47701,-1.842842 -1.18293,-1.195721 -1.83325,-2.820701 -1.80294,-4.505038 z"
           id="path25"
           fill="#58595b"
           style="fill:#ffffff;fill-opacity:1" />
        <polygon
           id="polygon26"
           fill="#58595b"
           points="181.78286,22.40994 181.78286,24.81444 175.9823,24.81444 175.9823,27.403285 182.66174,27.403285 182.66174,29.807785 173.27378,29.807785 173.27378,17.50476 182.55787,17.50476 182.55787,19.90926 175.9823,19.90926 175.9823,22.40994 "
           style="fill:#ffffff;fill-opacity:1" />
        <polygon
           id="polygon27"
           fill="#58595b"
           points="53.147838,35.13776 53.147838,47.48086 50.447301,47.48086 50.447301,35.13776 "
           style="fill:#ffffff;fill-opacity:1" />
        <polygon
           id="polygon28"
           fill="#58595b"
           points="64.613134,35.13776 67.32166,35.13776 67.32166,47.48086 64.980662,47.48086 59.020306,39.62616 59.020306,47.472845 56.351729,47.472845 56.351729,35.13776 58.844532,35.13776 64.613134,42.73598 "
           style="fill:#ffffff;fill-opacity:1" />
        <path
           d="m 69.526832,45.66947 1.59795,-1.915585 c 1.004548,0.92832 2.309992,1.460688 3.675287,1.498805 1.102586,0 1.773725,-0.440825 1.773725,-1.17019 v 0 c 0,-0.68929 -0.423457,-1.04195 -2.476823,-1.603 -2.484814,-0.633185 -4.082764,-1.322475 -4.082764,-3.775065 v 0 c 0,-2.2442 1.797694,-3.71896 4.306477,-3.71896 1.658256,-0.02834 3.274446,0.524379 4.570138,1.562925 l -1.406196,2.05184 c -0.916855,-0.722951 -2.031821,-1.147977 -3.195901,-1.21828 -1.038668,0 -1.597951,0.472885 -1.597951,1.07401 v 0 c 0,0.8015 0.527324,1.082025 2.652598,1.603 2.492803,0.649215 3.899,1.546895 3.899,3.70293 v 0 c 0,2.45259 -1.861613,3.83117 -4.514211,3.83117 -1.909217,0.01433 -3.758261,-0.669501 -5.201329,-1.9236 z"
           id="path28"
           fill="#58595b"
           style="fill:#ffffff;fill-opacity:1" />
        <polygon
           id="polygon29"
           fill="#58595b"
           points="87.024391,37.63844 87.024391,47.472845 84.315865,47.472845 84.315865,37.630425 80.568671,37.630425 80.568671,35.13776 90.763596,35.13776 90.763596,37.63844 "
           style="fill:#ffffff;fill-opacity:1" />
        <polygon
           id="polygon30"
           fill="#58595b"
           points="95.517499,35.13776 95.517499,47.48086 92.808972,47.48086 92.808972,35.13776 "
           style="fill:#ffffff;fill-opacity:1" />
        <polygon
           id="polygon31"
           fill="#58595b"
           points="103.98664,37.63844 103.98664,47.472845 101.27811,47.472845 101.27811,37.630425 97.538906,37.630425 97.538906,35.13776 107.73383,35.13776 107.73383,37.63844 "
           style="fill:#ffffff;fill-opacity:1" />
        <path
           d="M 109.61941,42.182945 V 35.13776 h 2.70853 v 6.97305 c 0,2.011765 0.99872,3.053715 2.6526,3.053715 1.65388,0 2.65259,-1.00989 2.65259,-2.96555 V 35.13776 h 2.70853 v 6.965035 c 0,3.73499 -2.09331,5.6105 -5.39308,5.6105 -3.29977,0 -5.32917,-1.899555 -5.32917,-5.53035 z"
           id="path31"
           fill="#58595b"
           style="fill:#ffffff;fill-opacity:1" />
        <polygon
           id="polygon32"
           fill="#58595b"
           points="128.68296,37.63844 128.68296,47.472845 125.97444,47.472845 125.97444,37.630425 122.22724,37.630425 122.22724,35.13776 132.43016,35.13776 132.43016,37.63844 "
           style="fill:#ffffff;fill-opacity:1" />
        <polygon
           id="polygon33"
           fill="#58595b"
           points="142.92869,40.04294 142.92869,42.44744 137.12813,42.44744 137.12813,45.036285 143.80757,45.036285 143.80757,47.440785 134.43559,47.440785 134.43559,35.13776 143.71968,35.13776 143.71968,37.54226 137.12813,37.54226 137.12813,40.04294 "
           style="fill:#ffffff;fill-opacity:1" />
        <path
           d="m 9.3320317,9.417625 v 0 l -0.551293,0.17633 v 0 C 8.540251,9.6736331 8.2809088,9.5426551 8.2014816,9.3014075 8.1220545,9.0601599 8.2526199,8.7999981 8.4931076,8.72032 L 9.0683698,8.519945 C 9.3130992,8.4403966 9.5762121,8.5723688 9.6596115,8.8165 9.6997339,8.9333673 9.6909391,9.0615562 9.6352344,9.1718073 9.5795297,9.2820584 9.4816696,9.3649619 9.3639907,9.401595 Z m 0.4634057,1.979705 v 0 l 0.6311906,-0.19236 v 0 c 0.204746,6.69e-4 0.388078,-0.127106 0.458888,-0.319825 0.07081,-0.19272 0.014,-0.409288 -0.142203,-0.542079 -0.1562,-0.132791 -0.378482,-0.153489 -0.556378,-0.05181 l -0.6551595,0.216405 c -0.1839566,0.11423 -0.268846,0.337909 -0.2071932,0.545942 0.061653,0.208033 0.2545675,0.34886 0.4708551,0.343723 z m 2.1332636,3.582705 v 0 l 0.798976,-0.216405 v 0 c 0.201773,-0.03576 0.365497,-0.183921 0.421671,-0.381591 0.05617,-0.197669 -0.0051,-0.410164 -0.1577,-0.547281 -0.152644,-0.137117 -0.369919,-0.174798 -0.559592,-0.09705 l -0.798975,0.24045 c -0.26303,0.09107 -0.410257,0.371487 -0.336329,0.640589 0.07393,0.269103 0.343569,0.434272 0.61597,0.377316 z m -1.062637,-1.79536 v 0 l 0.711088,-0.20839 v 0 c 0.266964,-0.08189 0.417203,-0.365378 0.33557,-0.633185 -0.08163,-0.267807 -0.364227,-0.418521 -0.631191,-0.33663 l -0.751036,0.232435 c -0.243162,0.09779 -0.370899,0.366331 -0.29371,0.617466 0.07719,0.251134 0.333495,0.400889 0.589331,0.344334 z m 3.195901,1.290415 v 0 l 0.798976,-0.11221 v 0 c 0.280961,-0.06547 0.464121,-0.337126 0.420104,-0.623089 -0.04402,-0.285963 -0.300329,-0.489548 -0.587889,-0.466951 l -0.854904,0.136255 c -0.14108,0.01984 -0.268457,0.09527 -0.353933,0.209602 -0.08548,0.114328 -0.121998,0.258118 -0.101482,0.399538 0.01928,0.167947 0.114067,0.317826 0.257324,0.406863 0.143257,0.08904 0.319242,0.107454 0.477733,0.04999 z m -0.271651,-1.95566 v 0 c 0.203368,-0.01131 0.382057,-0.13911 0.459023,-0.328285 0.07697,-0.189175 0.03845,-0.405901 -0.09895,-0.556735 -0.137397,-0.150834 -0.349102,-0.208804 -0.543837,-0.148915 l -0.798976,0.136255 c -0.189404,0.0242 -0.350297,0.150708 -0.418968,0.32943 -0.06867,0.178721 -0.03404,0.38083 0.09017,0.526295 0.124214,0.145465 0.31798,0.210823 0.50457,0.170195 v 0 l 0.727067,-0.120225 z M 10.138997,6.179565 9.6276525,6.28376 C 9.3873993,6.339423 9.2373238,6.579585 9.2920829,6.820765 c 0.022815,0.1183632 0.092957,0.2221889 0.1940953,0.2873037 0.1011384,0.065115 0.2244476,0.085837 0.3412182,0.057341 v 0 L 10.322761,7.0532 v 0 C 10.54326,6.9715934 10.667943,6.7373221 10.612863,6.5081192 10.557783,6.2789164 10.340383,6.127372 10.107038,6.15552 Z m 1.166504,1.755285 -0.599232,0.136255 c -0.165559,0.035794 -0.299506,0.1574719 -0.351385,0.3191999 -0.05188,0.1617281 -0.01381,0.3389355 0.09987,0.46487 0.11368,0.1259345 0.285698,0.1814636 0.451257,0.1456701 v 0 L 11.481275,8.88062 v 0 C 11.649689,8.8433947 11.785512,8.7188658 11.837582,8.553942 11.889653,8.3890182 11.850059,8.2087555 11.733716,8.081057 11.617372,7.9533585 11.441955,7.8976247 11.273542,7.93485 Z M 7.8938761,6.820765 7.3985114,6.997095 C 7.2349211,7.1108841 7.1680167,7.3207786 7.2354451,7.5086716 7.3028735,7.6965645 7.48779,7.8155171 7.6861425,7.798595 v 0 l 0.4793852,-0.1603 v 0 C 8.3494857,7.622601 8.5040483,7.4932325 8.5523933,7.3144897 8.6007383,7.1357469 8.532555,6.9457505 8.3817327,6.8389345 8.2309103,6.7321185 8.029615,6.7312637 7.8778966,6.836795 Z M 11.273542,3.983455 10.834105,4.05559 c -0.241675,0.037121 -0.408896,0.2619769 -0.375518,0.504945 0.04091,0.2445109 0.265899,0.4137877 0.511344,0.38472 v 0 l 0.423457,-0.06412 v 0 C 11.5682,4.8743963 11.723712,4.767802 11.793504,4.6068795 11.863297,4.445957 11.835032,4.2591534 11.720782,4.1262542 11.606532,3.993355 11.426493,3.9378536 11.257562,3.983455 Z m 1.198463,5.72271 -0.687119,0.136255 c -0.26917,0.053119 -0.444449,0.315075 -0.391498,0.585095 0.05295,0.27002 0.314082,0.445854 0.583252,0.392735 v 0 l 0.64717,-0.12824 v 0 c 0.191599,-0.0171 0.356731,-0.142244 0.425491,-0.322457 0.06876,-0.180213 0.02913,-0.3839817 -0.102125,-0.5250449 C 12.815925,9.703445 12.616008,9.6497544 12.432056,9.706165 Z m 3.56343,2.62892 v 0 c 0.298249,-0.02142 0.525107,-0.27744 0.511344,-0.57708 -0.02135,-0.299192 -0.276567,-0.526767 -0.575262,-0.51296 l -0.798976,0.04809 c -0.295645,0.01549 -0.522793,0.268478 -0.507349,0.565057 0.01544,0.29658 0.267632,0.524446 0.563277,0.508953 v 0 h 0.735058 z M 8.996462,4.432295 8.5650154,4.544505 C 8.4541303,4.5709711 8.358563,4.6411622 8.2999205,4.7392085 8.241278,4.8372548 8.2245127,4.9548764 8.253415,5.06548 8.308698,5.2977835 8.541111,5.4412588 8.772749,5.38608 v 0 L 9.1962059,5.281885 v 0 C 9.4295502,5.2192236 9.5687262,4.9793708 9.5078062,4.74488 9.4489139,4.5196748 9.2229764,4.381559 8.996462,4.432295 Z m 9.276103,8.015 v 0 c 0.199813,0.01145 0.390539,-0.0849 0.500333,-0.25276 0.109794,-0.167863 0.121977,-0.381734 0.03196,-0.56105 -0.09002,-0.179317 -0.268561,-0.296836 -0.468374,-0.30829 l -0.798975,-0.04809 c -0.304471,-0.02213 -0.569179,0.207527 -0.591242,0.51296 -0.02206,0.305433 0.206874,0.570977 0.511345,0.59311 v 0 l 0.735057,0.05611 z m 10.0591,1.603 c 0.116694,-0.139176 0.166257,-0.322899 0.135454,-0.502117 -0.0308,-0.179218 -0.138833,-0.335684 -0.295249,-0.427623 L 27.564648,12.69576 c -0.133314,-0.092 -0.297717,-0.126807 -0.456721,-0.09671 -0.159005,0.03009 -0.29946,0.12261 -0.390193,0.257011 -0.09545,0.134605 -0.133121,0.301976 -0.10459,0.464664 0.02853,0.162688 0.120884,0.307111 0.256396,0.400956 v 0 l 0.543303,0.376705 v 0 0 c 0.131439,0.113076 0.304295,0.165352 0.476134,0.143994 0.171839,-0.02136 0.326751,-0.114369 0.426708,-0.256204 z M 23.9373,13.954115 v 0 l 0.66315,0.30457 v 0 0 c 0.203959,0.118292 0.457349,0.109348 0.652517,-0.02303 0.195169,-0.132378 0.297836,-0.364941 0.264385,-0.598884 -0.03345,-0.233944 -0.197145,-0.428179 -0.421537,-0.500186 l -0.711088,-0.3206 c -0.306677,-0.139437 -0.667968,-0.0031 -0.806966,0.30457 -0.138997,0.307646 -0.0031,0.670078 0.303611,0.809515 z m 0.96676,2.21214 v 0 l 0.719078,0.38472 v 0 0 c 0.149234,0.07844 0.323537,0.09378 0.484105,0.0426 0.160569,-0.05118 0.294076,-0.164639 0.370799,-0.31511 0.07854,-0.1509 0.09404,-0.326937 0.04308,-0.489311 -0.05096,-0.162374 -0.164187,-0.297757 -0.314735,-0.376309 L 25.407415,15.02011 c -0.30661,-0.146003 -0.673423,-0.02264 -0.830345,0.279259 -0.156922,0.301897 -0.04777,0.67423 0.247093,0.842841 z m 2.532752,-1.065995 c 0.175997,-0.301077 0.07594,-0.688248 -0.223713,-0.86562 l -0.63918,-0.41678 c -0.295646,-0.179276 -0.680187,-0.08418 -0.858898,0.212397 -0.178712,0.29658 -0.08392,0.682337 0.211728,0.861613 v 0 l 0.623201,0.38472 v 0 c 0.140242,0.0968 0.313517,0.132673 0.480503,0.09947 0.166986,-0.0332 0.313524,-0.132658 0.406359,-0.275802 z m 2.173213,-4.448325 0.3116,0.28854 v 0 c 0.252795,0.174886 0.595955,0.13292 0.799462,-0.09777 0.203507,-0.23069 0.203298,-0.577482 -4.86e-4,-0.807925 L 30.385031,9.73021 C 30.133828,9.5677862 29.802159,9.6128779 29.603112,9.8365146 29.404066,10.060151 29.396831,10.395832 29.586056,10.62789 Z m -0.95877,0.12824 c -0.21589,0.256846 -0.183718,0.640545 0.07191,0.857605 v 0 l 0.383509,0.3206 v 0 0 c 0.124415,0.105605 0.285926,0.156605 0.448209,0.141532 0.162282,-0.01507 0.311713,-0.09496 0.414684,-0.221682 0.214833,-0.261596 0.179163,-0.648041 -0.0799,-0.86562 L 29.48219,10.67598 c -0.25631,-0.196842 -0.621345,-0.158111 -0.830934,0.08817 z m 0.511344,2.156035 c 0.09874,-0.130654 0.141603,-0.295355 0.119118,-0.457755 -0.02248,-0.162401 -0.108464,-0.309151 -0.238964,-0.407865 L 28.547388,11.7019 c -0.265239,-0.201807 -0.642999,-0.151756 -0.846914,0.11221 -0.105582,0.12962 -0.154149,0.296702 -0.134565,0.462935 0.01958,0.166233 0.105639,0.317356 0.238432,0.418715 v 0 l 0.455416,0.360675 v 0 c 0.135471,0.108261 0.309744,0.155082 0.481019,0.129233 0.171275,-0.02585 0.324101,-0.122034 0.421823,-0.265488 z m -7.318614,0.200375 v 0 l 0.695109,0.22442 v 0 c 0.306263,0.07095 0.615123,-0.107556 0.707561,-0.408929 0.09244,-0.301373 -0.06297,-0.623177 -0.356012,-0.737216 l -0.751037,-0.22442 c -0.308883,-0.09738 -0.63798,0.07486 -0.735057,0.38472 -0.09708,0.309859 0.07463,0.639996 0.383508,0.73738 z M 20.453768,12.77591 v 0 c 0.202667,0.03579 0.408974,-0.0396 0.541208,-0.197768 0.132234,-0.158172 0.170305,-0.375098 0.09987,-0.569065 -0.07043,-0.193966 -0.238669,-0.335503 -0.441336,-0.371297 l -0.798975,-0.136255 c -0.308884,-0.05755 -0.605786,0.146996 -0.66315,0.456855 -0.05736,0.309859 0.146533,0.6077 0.455416,0.665245 v 0 l 0.727067,0.136255 z m -1.917541,1.52285 v 0 l 0.798976,0.08817 v 0 c 0.208375,0.02004 0.411583,-0.07295 0.533075,-0.243959 0.121492,-0.171007 0.142812,-0.394044 0.05593,-0.585095 -0.08688,-0.191051 -0.268771,-0.321092 -0.477147,-0.341136 l -0.862893,-0.08015 c -0.319915,-0.01328 -0.589989,0.236117 -0.603226,0.557043 -0.01324,0.320925 0.235372,0.591852 0.555287,0.605132 z m 5.049524,-2.32435 v 0 c 0.149502,0.07056 0.321821,0.0742 0.474152,0.01002 0.152331,-0.06418 0.27038,-0.190162 0.324824,-0.346649 0.06778,-0.150278 0.07011,-0.322081 0.0064,-0.474156 -0.06367,-0.152074 -0.187592,-0.270682 -0.342009,-0.327344 l -0.671139,-0.216405 c -0.300058,-0.119517 -0.639886,0.02761 -0.759027,0.328615 -0.119141,0.301006 0.02752,0.641908 0.32758,0.761425 v 0 l 0.607221,0.248465 z m -9.971212,-4.384205 -0.607221,0.06412 c -0.266617,0.029408 -0.459436,0.2694025 -0.431447,0.537005 0.02534,0.2716714 0.2643,0.4720312 0.535314,0.44884 v 0 l 0.575262,-0.04809 v 0 c 0.183508,-0.010266 0.346266,-0.1216112 0.422796,-0.2892414 0.07653,-0.1676301 0.05425,-0.363987 -0.05787,-0.5100763 C 13.939243,7.646673 13.755705,7.5748682 13.574591,7.606235 Z m 2.708527,6.660465 v 0 h 0.798975 v 0 c 0.15047,-0.0042 0.29311,-0.06821 0.39651,-0.177946 0.1034,-0.10974 0.159081,-0.256207 0.154783,-0.407149 -0.0041,-0.150261 -0.06822,-0.29257 -0.17786,-0.395027 -0.109645,-0.102457 -0.255688,-0.156493 -0.405392,-0.149993 h -0.862893 c -0.147633,0.0021 -0.288262,0.06349 -0.390388,0.170455 -0.102125,0.106967 -0.15721,0.250559 -0.152916,0.39861 9.77e-4,0.1629 0.0715,0.31757 0.193711,0.424842 0.122211,0.107272 0.28439,0.156861 0.44547,0.136208 z m 5.16937,-3.021655 v 0 c 0.296073,0.05331 0.583099,-0.131201 0.658517,-0.423317 0.07542,-0.292117 -0.08624,-0.5932 -0.370886,-0.690768 L 21.108928,9.9386 c -0.299639,-0.076607 -0.605239,0.101629 -0.687119,0.40075 -0.04396,0.144614 -0.02699,0.300979 0.04697,0.432711 0.07396,0.131732 0.198458,0.227346 0.344526,0.264594 v 0 l 0.63918,0.17633 z M 18.256586,4.015515 17.78519,3.95941 c -0.175549,-0.027203 -0.352231,0.041611 -0.46349,0.1805199 -0.111259,0.1389092 -0.140193,0.3268102 -0.0759,0.4929225 0.06429,0.1661123 0.212038,0.2851995 0.387587,0.3124026 v 0 l 0.423457,0.06412 v 0 C 18.31413,5.019365 18.537449,4.8329591 18.574437,4.5773457 18.611427,4.3217323 18.450157,4.0793274 18.20066,4.015515 Z m 6.7833,5.6105 -0.559282,-0.25648 C 24.338702,9.293589 24.171586,9.280703 24.019782,9.334003 c -0.151805,0.0533 -0.274435,0.1679165 -0.338154,0.3160572 -0.07571,0.1423503 -0.08855,0.3099936 -0.03542,0.4622778 0.05313,0.152285 0.167388,0.275302 0.315062,0.339222 v 0 l 0.527323,0.248465 v 0 c 0.293439,0.13501 0.640421,0.0058 0.775006,-0.28854 0.134585,-0.294366 0.0058,-0.6424446 -0.287631,-0.7774548 z m 0.934802,1.835435 0.495364,0.30457 v 0 0 c 0.279678,0.150759 0.627916,0.05993 0.798975,-0.20839 0.153076,-0.282079 0.05808,-0.635042 -0.215723,-0.8015 l -0.527324,-0.3206 c -0.279157,-0.154995 -0.630426,-0.06338 -0.798975,0.20839 -0.166361,0.274655 -0.08075,0.632505 0.191754,0.8015 z m -1.262382,0.376705 c -0.14329,0.290711 -0.0344,0.643072 0.247683,0.8015 v 0 l 0.583252,0.312585 v 0 c 0.192676,0.100222 0.424016,0.08971 0.606875,-0.02756 0.18286,-0.117278 0.289458,-0.323511 0.279641,-0.541012 -0.0098,-0.217501 -0.134557,-0.413226 -0.327234,-0.513448 l -0.6232,-0.3206 C 25.19601,11.423144 24.86331,11.5344 24.712306,11.8061 Z m 0.08789,-3.44645 c -0.07723,0.1358377 -0.09703,0.2970338 -0.055,0.4476179 0.04203,0.1505842 0.142402,0.2780242 0.278715,0.3538821 v 0 l 0.439436,0.24045 v 0 c 0.136346,0.080978 0.300238,0.1010612 0.452006,0.055387 0.151767,-0.045674 0.277575,-0.1529417 0.34697,-0.2958371 0.0783,-0.1373115 0.09698,-0.3008473 0.05166,-0.4523662 -0.04531,-0.151519 -0.150642,-0.277735 -0.291358,-0.3491338 L 25.55123,8.14324 C 25.282962,8.0075757 24.955802,8.1018441 24.800194,8.359645 Z m 2.205172,-1.15416 -0.383509,-0.22442 c -0.269169,-0.1637828 -0.619728,-0.07766 -0.782995,0.19236 -0.163267,0.2700203 -0.07742,0.6216872 0.191754,0.78547 v 0 l 0.367528,0.216405 v 0 c 0.131948,0.081667 0.291171,0.1064478 0.441583,0.068726 0.150413,-0.037722 0.279278,-0.1347523 0.357393,-0.2691009 0.166361,-0.2746551 0.08075,-0.6325049 -0.191754,-0.8015 z M 24.975968,6.0914 24.568491,5.89904 c -0.275789,-0.1305836 -0.604885,-0.012165 -0.735057,0.264495 -0.130173,0.2766601 -0.01213,0.6067964 0.263661,0.73738 v 0 l 0.383509,0.184345 v 0 c 0.13339,0.062433 0.286131,0.06876 0.424199,0.017574 0.138068,-0.051187 0.249998,-0.1556361 0.310858,-0.290084 0.12811,-0.2658837 0.02182,-0.5857517 -0.239693,-0.72135 z m 3.994877,2.4045 -0.359539,-0.264495 c -0.254346,-0.1789987 -0.603409,-0.1299755 -0.798975,0.11221 -0.182624,0.254124 -0.133313,0.6074562 0.111856,0.8015 v 0 l 0.33557,0.25648 v 0 c 0.259233,0.1713119 0.605966,0.1156594 0.798975,-0.12824 0.151084,-0.2378273 0.114337,-0.5494889 -0.08789,-0.745395 z M 5.1294215,6.18758 C 5.0844004,6.0903708 5.0024358,6.0153056 4.9018439,5.9791589 4.801252,5.9430121 4.6904176,5.9487967 4.5941081,5.99522 l -0.391498,0.19236 c -0.197379,0.094046 -0.282811,0.3297265 -0.191754,0.52899 0.043386,0.096656 0.1238783,0.1716149 0.2231858,0.2078408 0.099308,0.036226 0.2089957,0.030643 0.3041379,-0.015481 v 0 L 4.9296777,6.724585 v 0 C 5.0279991,6.6809092 5.104617,6.5993156 5.1422085,6.4982522 5.1797999,6.3971889 5.1751901,6.2851906 5.1294215,6.18758 Z M 32.05489,10.43553 c -0.235218,0.200465 -0.280174,0.547368 -0.103867,0.8015 -0.228315,-0.136777 -0.518392,-0.110911 -0.719078,0.06412 -0.125289,0.10692 -0.201976,0.260256 -0.212518,0.424928 -0.01054,0.164672 0.04596,0.326588 0.15659,0.448707 v 0 c -0.238705,-0.189383 -0.580293,-0.172249 -0.798976,0.04007 -0.241735,0.243858 -0.241735,0.637792 0,0.88165 v 0 l 0.143816,0.152285 -0.135826,-0.12824 c -0.24754,-0.239197 -0.639323,-0.239197 -0.886862,0 -0.24267,0.246597 -0.24267,0.643068 0,0.889665 v 0 l 0.415467,0.40075 v 0 0 c 0.249489,0.249673 0.653352,0.249673 0.902842,0 0.11905,-0.118834 0.185981,-0.280364 0.185981,-0.44884 0,-0.168476 -0.06693,-0.330006 -0.185981,-0.44884 v 0 c 0.242612,0.185123 0.584439,0.161119 0.798975,-0.0561 0.226265,-0.240813 0.226265,-0.616792 0,-0.857605 0.230689,0.123664 0.513509,0.09179 0.711088,-0.08015 0.215676,-0.214679 0.242828,-0.555154 0.06392,-0.8015 0.257138,0.117727 0.561157,0.04454 0.737036,-0.177424 0.175879,-0.221966 0.178358,-0.535595 0.006,-0.760331 0.200328,0.08915 0.433193,0.06149 0.607221,-0.07213 0.26408,-0.212849 0.306941,-0.599811 0.09588,-0.86562 L 33.66882,9.626015 C 33.466601,9.3826462 33.112172,9.335416 32.853631,9.5173853 32.595089,9.6993546 32.518767,10.04976 32.67809,10.32332 32.465641,10.24239 32.22602,10.28553 32.05489,10.43553 Z M 26.789642,9.48976 c -0.169688,0.2651984 -0.103016,0.617213 0.151806,0.8015 v 0 l 0.415467,0.280525 v 0 c 0.176107,0.146473 0.419982,0.179581 0.628565,0.08533 0.208582,-0.09425 0.345473,-0.299406 0.352823,-0.528776 0.0074,-0.2293689 -0.116122,-0.4429238 -0.318239,-0.550417 L 27.580628,9.28137 C 27.30387,9.1272095 26.955176,9.2190751 26.789642,9.48976 Z m 12.567882,17.633 v 0.456855 c -0.04641,0.242808 -0.216172,0.443511 -0.447426,0.52899 v 0.19236 c -0.01214,0.180371 -0.0921,0.349389 -0.223713,0.472885 0.277408,0.09896 0.469189,0.354423 0.487375,0.649215 0,0.17633 -0.05593,0.360675 -0.08789,0.54502 -0.06758,0.187165 -0.209262,0.337995 -0.391497,0.41678 l -0.03995,0.27251 c -0.0299,0.168764 -0.117485,0.321804 -0.247683,0.43281 0.215302,0.134087 0.345474,0.370958 0.34356,0.62517 l -0.143816,0.601125 c -0.07995,0.138952 -0.199634,0.250636 -0.343559,0.3206 l -0.08789,0.33663 c -0.04116,0.161292 -0.137256,0.303062 -0.271652,0.40075 0.150634,0.156494 0.231385,0.367689 0.223713,0.585095 l -0.215723,0.633185 c -0.07585,0.108726 -0.177434,0.196856 -0.295621,0.25648 0,0 0,0 0,0.04007 l -0.119847,0.344645 c -0.06283,0.159191 -0.174832,0.294015 -0.31959,0.38472 0.107468,0.157115 0.155622,0.347498 0.135826,0.537005 l -0.287631,0.633185 c -0.06782,0.08123 -0.152303,0.146836 -0.247682,0.19236 0.0037,0.03731 0.0037,0.0749 0,0.11221 l -0.151806,0.328615 c -0.07329,0.149895 -0.194136,0.271123 -0.343559,0.344645 -0.0037,0.01581 -0.0037,0.03228 0,0.04809 0.04418,0.14906 0.04418,0.307795 0,0.456855 l -0.343553,0.61716 c -0.06402,0.05525 -0.133647,0.103606 -0.207734,0.14427 -0.01134,0.05829 -0.03014,0.114861 -0.05593,0.168315 l -0.183765,0.3206 c -0.07716,0.119632 -0.184722,0.216465 -0.3116,0.280525 0,0.04008 0,0.08015 0,0.11221 v 0.0561 c 0.02386,0.10282 0.02386,0.209765 0,0.312585 -0.135826,0.20839 -0.271651,0.408765 -0.415467,0.60914 -0.04557,0.03943 -0.09673,0.07184 -0.151805,0.09618 -0.02519,0.07496 -0.05729,0.147412 -0.09588,0.216405 l -0.35155,0.344645 c -0.0741,0.103223 -0.173056,0.185944 -0.287631,0.24045 -0.0185,0.05714 -0.04543,0.111172 -0.0799,0.1603 l -0.09588,0.136255 -0.04794,0.1603 -0.471395,0.57708 -0.119846,0.0561 c -0.0168,0.06029 -0.04383,0.117229 -0.0799,0.168315 -0.138489,0.1603 -0.274315,0.312585 -0.407477,0.456855 -0.04684,0.03768 -0.09776,0.06994 -0.151806,0.09618 -0.02922,0.07025 -0.0697,0.135232 -0.119846,0.19236 l -0.199744,0.216405 -0.519334,0.52899 v 0 0 c -1.408357,1.380224 -2.968357,2.5956 -4.650036,3.62278 l -1.773725,-2.90143 0.09588,-0.07214 c 0.289737,-0.175778 0.620263,-0.272486 0.95877,-0.280525 -0.343595,-0.188168 -0.75899,-0.188168 -1.102586,0 l -0.103867,0.04809 -0.894852,-1.45873 0.08789,-0.06412 v 0 c 0.560071,-0.333779 1.215636,-0.469258 1.861613,-0.38472 -0.142986,-0.06741 -0.29307,-0.118493 -0.447426,-0.152285 l -0.07191,-0.04007 h -0.09588 c -0.490477,-0.07087 -0.990275,0.0311 -1.414187,0.28854 -0.03576,0.0194 -0.0732,0.03549 -0.111856,0.04809 l -0.862893,-1.41064 0.09588,-0.07214 c 0.750748,-0.468743 1.639434,-0.664023 2.516772,-0.553035 v 0 c 0.04646,0.01244 0.09187,0.02852 0.135826,0.04809 v 0 c -0.364317,-0.168182 -0.757834,-0.263469 -1.158515,-0.280525 -0.04249,0.0046 -0.08535,0.0046 -0.127836,0 -0.0372,0.0035 -0.07465,0.0035 -0.111856,0 v 0 c -0.524616,0.0311 -1.034185,0.187751 -1.486094,0.456855 l -0.103867,0.05611 -0.838924,-1.37858 0.09588,-0.07214 c 0.673953,-0.417771 1.438872,-0.665299 2.229141,-0.72135 v 0 h 0.191754 c 0.06365,-0.0083 0.128104,-0.0083 0.191754,0 0.34998,0.0026 0.698495,0.04567 1.038668,0.12824 L 25.55123,39.30556 c -0.05344,-0.02731 -0.10426,-0.0595 -0.151805,-0.09618 -0.05029,0.008 -0.101514,0.008 -0.151805,0 v 0 c -0.517149,-0.157379 -1.059977,-0.211834 -1.597951,-0.1603 -0.05851,0.0044 -0.117266,0.0044 -0.175774,0 l -0.09588,0.09618 v 0 c -0.524908,0.08713 -1.028938,0.271983 -1.486094,0.54502 l -0.111857,0.01603 -0.798975,-1.36255 0.09588,-0.06412 c 0.621317,-0.390602 1.309393,-0.662354 2.029397,-0.8015 0.0797,-0.008 0.159993,-0.008 0.239693,0 0.06926,-0.03824 0.145214,-0.06273 0.223713,-0.07214 0.726911,-0.07108 1.46065,-0.0086 2.165223,0.184345 -0.340967,-0.158394 -0.696978,-0.281915 -1.062637,-0.36869 -0.06992,-0.0211 -0.136998,-0.05071 -0.199744,-0.08816 -0.06632,0.0084 -0.133425,0.0084 -0.199744,0 v 0 c -0.5294,-0.08348 -1.068551,-0.08348 -1.597951,0 -0.07141,0.01196 -0.144309,0.01196 -0.215723,0 -0.0563,0.03882 -0.118302,0.06857 -0.183764,0.08816 v 0 c -0.513116,0.122703 -1.003816,0.325554 -1.454135,0.601125 l -0.103867,0.04809 -0.798975,-1.290415 0.09588,-0.07214 c 0.577761,-0.357759 1.205084,-0.627847 1.861612,-0.8015 0.09249,-0.01649 0.187152,-0.01649 0.279641,0 0.07814,-0.04851 0.165002,-0.08119 0.255673,-0.09618 0.671899,-0.125436 1.35897,-0.147059 2.037387,-0.06412 0.09178,0.01604 0.180644,0.04576 0.263661,0.08816 0.09015,-0.01202 0.181498,-0.01202 0.271652,0 0.295621,0.06412 0.575262,0.152285 0.854904,0.24045 L 25.615152,35.7549 c -0.0801,-0.03388 -0.151228,-0.08602 -0.207734,-0.152285 -0.07944,0.01209 -0.16025,0.01209 -0.239693,0 v 0 c -0.482308,-0.175049 -0.983998,-0.290775 -1.494083,-0.344645 -0.08685,-0.01084 -0.170888,-0.03803 -0.247683,-0.08015 -0.07674,0.02905 -0.157713,0.0453 -0.239692,0.04809 v 0 c -0.515333,-0.016 -1.030645,0.03246 -1.534033,0.14427 -0.08447,0.01605 -0.171199,0.01605 -0.255672,0 -0.06527,0.05104 -0.138043,0.0916 -0.215723,0.120225 v 0 c -0.495571,0.14833 -0.970666,0.358355 -1.414187,0.62517 -0.02846,0.02226 -0.06105,0.03861 -0.09588,0.04809 l -0.798975,-1.25034 0.08789,-0.06412 c 0.544629,-0.334381 1.126546,-0.603393 1.733777,-0.8015 0.10286,-0.02051 0.20874,-0.02051 0.3116,0 0.08757,-0.0613 0.184807,-0.107362 0.287631,-0.136255 0.623248,-0.145604 1.261676,-0.215569 1.901561,-0.20839 0.105518,-8.33e-4 0.209675,0.02391 0.303611,0.07214 0.103037,-0.03355 0.211491,-0.04715 0.31959,-0.04008 0.637882,0.05668 1.266063,0.194021 1.869602,0.408765 0.101253,0.03262 0.194032,0.08737 0.271652,0.1603 h 0.151805 -0.06392 v 0 c -0.434475,-0.243086 -0.892188,-0.441786 -1.366248,-0.59311 -0.0968,-0.03335 -0.186309,-0.08505 -0.263661,-0.152285 -0.09249,0.01649 -0.187153,0.01649 -0.279642,0 v 0 c -0.509804,-0.133226 -1.031854,-0.213795 -1.558002,-0.24045 -0.101711,-0.0023 -0.202048,-0.02406 -0.295621,-0.06412 -0.08559,0.03996 -0.177564,0.06438 -0.271651,0.07213 v 0 c -0.496429,0.02914 -0.988818,0.106985 -1.470115,0.232435 -0.09981,0.02385 -0.203803,0.02385 -0.30361,0 -0.07123,0.06732 -0.155555,0.119162 -0.247683,0.152285 v 0 c -0.473489,0.163057 -0.928711,0.375269 -1.358258,0.633185 l -0.09588,0.0561 -0.751037,-1.194235 0.08789,-0.06412 c 0.505968,-0.317646 1.041053,-0.586033 1.59795,-0.8015 0.120845,-0.02865 0.246684,-0.02865 0.367529,0 0.08534,-0.0864 0.189168,-0.152181 0.303611,-0.19236 0.579406,-0.161644 1.173712,-0.263694 1.773725,-0.30457 0.121272,-0.0048 0.241897,0.01995 0.351549,0.07213 0.10659,-0.06196 0.228434,-0.09252 0.351549,-0.08817 0.599356,0.0024 1.196711,0.06956 1.781715,0.200375 0.120287,0.02456 0.231129,0.08294 0.31959,0.168315 0.120441,-0.03194 0.247088,-0.03194 0.367529,0 0.271651,0.08015 0.543303,0.184345 0.798975,0.28854 l -0.279641,-0.168315 -0.119846,-0.07213 c -0.05619,-0.0418 -0.107164,-0.09024 -0.151806,-0.14427 -0.06635,0.0078 -0.133391,0.0078 -0.199744,0 v 0 L 25.007927,32.06 23.63369,31.635205 23.513843,31.59513 c -0.07011,-0.02177 -0.13527,-0.05718 -0.191754,-0.104195 -0.06602,0.0122 -0.133718,0.0122 -0.199743,0 H 22.97853 L 21.548364,31.4188 h -0.127836 c -0.07385,-0.01015 -0.146256,-0.02899 -0.215723,-0.05611 -0.05568,0.03808 -0.118027,0.06527 -0.183764,0.08015 v 0 h -0.127837 l -1.414186,0.28854 h -0.119846 c -0.07371,0.01605 -0.150001,0.01605 -0.223713,0 -0.04628,0.05622 -0.103335,0.102552 -0.167785,0.136255 v 0 l -0.111857,0.0561 -1.29434,0.6412 -0.09588,0.04809 -0.719077,-1.18622 0.08789,-0.05611 1.502073,-0.8015 c 0.12123,-0.05998 0.257546,-0.08231 0.391498,-0.06412 0.09108,-0.100863 0.211122,-0.170877 0.34356,-0.200375 l 1.645889,-0.36869 c 0.13072,-0.03618 0.268767,-0.03618 0.399487,0 0.114819,-0.07186 0.248233,-0.108107 0.383509,-0.104195 l 1.685838,0.0561 c 0.135763,0.0076 0.266324,0.05497 0.375518,0.136255 0.130151,-0.04018 0.269337,-0.04018 0.399488,0 l 1.59795,0.472885 c 0.130527,0.04196 0.246759,0.119691 0.33557,0.22442 0.133447,-0.0061 0.266033,0.02436 0.383508,0.08817 l 0.167785,0.09618 c -0.07077,-0.05496 -0.13043,-0.122969 -0.175775,-0.200375 -0.08788,-0.0032 -0.17448,-0.02221 -0.255672,-0.0561 v 0 l -0.103867,-0.04809 -1.238411,-0.585095 -0.103867,-0.04809 c -0.08386,-0.04248 -0.159586,-0.09945 -0.223713,-0.168315 -0.08715,0.01612 -0.176509,0.01612 -0.263662,0 v 0 h -0.111857 l -1.342278,-0.296555 h -0.103867 c -0.09514,-0.01718 -0.185231,-0.05552 -0.263662,-0.11221 -0.0842,0.03446 -0.173076,0.05607 -0.263662,0.06412 H 21.883934 20.501707 20.39784 c -0.09646,0.0055 -0.192711,-0.01382 -0.279642,-0.0561 -0.07257,0.05987 -0.156997,0.103578 -0.247682,0.12824 v 0 h -0.103867 l -1.342278,0.328615 h -0.09588 c -0.09485,0.01988 -0.192779,0.01988 -0.287631,0 -0.06038,0.07385 -0.133441,0.136282 -0.215724,0.184345 v 0 l -0.09588,0.04809 -1.230422,0.62517 -0.08789,0.04809 v 0 l -0.695109,-1.13813 c 0.02612,-0.02328 0.0558,-0.04223 0.08789,-0.0561 l 1.398206,-0.73738 c 0.13421,-0.07355 0.291141,-0.09358 0.439437,-0.05611 0.08819,-0.126634 0.218503,-0.217573 0.367529,-0.25648 L 19.542929,28.1086 c 0.146887,-0.03547 0.301333,-0.02138 0.439437,0.04007 0.114469,-0.09708 0.257738,-0.153441 0.407477,-0.1603 l 1.597951,-0.04809 c 0.151162,0.0043 0.298002,0.05155 0.423457,0.136255 0.135367,-0.06958 0.28992,-0.09213 0.439436,-0.06412 L 24.448638,28.325 c 0.145354,0.03391 0.276592,0.112336 0.375518,0.22442 0.146098,-0.04275 0.301328,-0.04275 0.447426,0 l 1.222432,0.553035 -0.751036,-0.46487 -0.0799,-0.04809 c -0.09672,-0.0621 -0.176378,-0.147522 -0.231703,-0.248465 -0.110137,0.02782 -0.225432,0.02782 -0.335569,0 v 0 l -0.119847,0.11221 -1.230422,-0.440825 h -0.08789 c -0.11241,-0.04301 -0.211593,-0.114864 -0.287631,-0.20839 -0.106545,0.04265 -0.220995,0.06179 -0.33557,0.05611 h -0.09588 l -1.30233,-0.184345 h -0.08789 c -0.118093,-0.01643 -0.22901,-0.0665 -0.31959,-0.14427 -0.09617,0.0694 -0.209476,0.110981 -0.32758,0.120225 h -0.09588 l -1.310319,0.08015 H 19.38312 c -0.12298,0.0031 -0.244489,-0.02738 -0.351549,-0.08817 -0.07463,0.09143 -0.174792,0.158417 -0.287631,0.19236 v 0 h -0.08789 l -1.270371,0.35266 h -0.0799 c -0.119867,0.03609 -0.247661,0.03609 -0.367528,0 -0.05434,0.108988 -0.140818,0.198541 -0.247683,0.25648 v 0 h -0.0799 l -1.222432,0.649215 h -0.07191 v 0 l -0.66315,-1.10607 0.08789,-0.0561 1.302329,-0.70532 c 0.150262,-0.0775 0.323519,-0.09745 0.487375,-0.0561 0.08509,-0.146305 0.222031,-0.255057 0.383508,-0.30457 l 1.430166,-0.424795 c 0.160084,-0.04563 0.331479,-0.02844 0.479385,0.04809 0.115563,-0.127559 0.275969,-0.205142 0.447427,-0.216405 l 1.486094,-0.120225 c 0.165892,-0.01307 0.330794,0.03542 0.463405,0.136255 0.139237,-0.09199 0.305268,-0.134337 0.471396,-0.120225 l 1.486094,0.19236 c 0.165248,0.02136 0.316424,0.104344 0.423457,0.232435 0.159654,-0.06028 0.33571,-0.06028 0.495364,0 l 1.406197,0.488915 c 0.157331,0.05769 0.289978,0.168106 0.375518,0.312585 0.167741,-0.03088 0.340952,4.54e-4 0.487375,0.08817 l 0.447426,0.264495 -0.183764,-0.136255 -0.05593,-0.02405 c -0.109046,-0.08645 -0.189754,-0.203706 -0.231703,-0.33663 -0.135759,0.02181 -0.27492,0.0023 -0.399488,-0.05611 v 0 l -0.0799,-0.04007 -1.110576,-0.54502 h -0.07191 c -0.127836,-0.06429 -0.231532,-0.168314 -0.29562,-0.296555 -0.129555,0.04398 -0.269933,0.04398 -0.399488,0 v 0 h -0.0799 L 22.706878,25.98463 h -0.07191 c -0.139833,-0.04031 -0.263066,-0.124594 -0.35155,-0.24045 -0.115541,0.07766 -0.252497,0.116915 -0.391497,0.11221 h -0.111857 l -1.238412,-0.104195 h -0.07191 c -0.147023,-0.0111 -0.285533,-0.07349 -0.391497,-0.17633 -0.09821,0.101363 -0.227768,0.166345 -0.367529,0.184345 v 0 h -0.07191 l -1.246401,0.12824 h -0.07191 c -0.14641,0.01559 -0.293596,-0.02132 -0.415467,-0.104195 -0.0797,0.121127 -0.198002,0.211548 -0.33557,0.25648 v 0 h -0.07191 l -1.190473,0.376705 h -0.07191 c -0.1391,0.05225 -0.292346,0.05225 -0.431446,0 -0.05103,0.137126 -0.146763,0.252928 -0.271652,0.328615 v 0 h -0.06392 l -1.110576,0.59311 h -0.05593 -0.03995 l -0.64717,-1.017905 0.0799,-0.06412 1.222432,-0.665245 c 0.171569,-0.08336 0.371734,-0.08336 0.543303,0 0.06427,-0.182009 0.208776,-0.324012 0.391498,-0.38472 l 1.326299,-0.488915 c 0.180094,-0.0588 0.377073,-0.03226 0.535314,0.07213 0.104435,-0.161441 0.273447,-0.2696 0.463405,-0.296555 L 19.5589,24.32552 c 0.187897,-0.0224 0.376489,0.03581 0.519334,0.1603 0.133649,-0.131813 0.316155,-0.201559 0.503354,-0.19236 l 1.390217,0.09618 c 0.186662,0.0079 0.361075,0.0954 0.479385,0.24045 0.160315,-0.09817 0.35341,-0.127082 0.535314,-0.08015 l 1.350268,0.35266 c 0.177853,0.0465 0.330107,0.161775 0.423457,0.3206 0.171283,-0.07169 0.364031,-0.07169 0.535313,0 l 1.270371,0.59311 c 0.16402,0.08196 0.292066,0.221829 0.359539,0.392735 0.168788,-0.01596 0.337942,0.02646 0.479385,0.120225 -0.071,-0.09487 -0.120119,-0.204373 -0.143815,-0.3206 -0.156472,0.02555 -0.31696,-0.0027 -0.455416,-0.08015 v 0 h -0.06392 l -0.96676,-0.59311 -0.05593,-0.04008 c -0.140299,-0.08604 -0.245188,-0.219697 -0.295621,-0.376705 -0.150135,0.05191 -0.31327,0.05191 -0.463405,0 v 0 h -0.06392 l -1.094596,-0.43281 h -0.05593 c -0.15701,-0.0599 -0.285508,-0.177349 -0.359539,-0.328615 -0.14072,0.07928 -0.304345,0.10758 -0.463405,0.08015 v 0 h -0.06392 l -1.198463,-0.3206 h -0.06392 c -0.166504,-0.03297 -0.313103,-0.131008 -0.407478,-0.27251 -0.12139,0.112759 -0.282058,0.1732 -0.447426,0.168315 h -0.07191 -1.174493 -0.06392 c -0.172743,-0.0015 -0.337341,-0.07388 -0.455416,-0.200375 -0.09762,0.133736 -0.244188,0.223108 -0.407478,0.248465 h -0.07191 l -1.166503,0.168315 h -0.06392 c -0.17049,0.02375 -0.343321,-0.02249 -0.479386,-0.12824 -0.07127,0.153322 -0.200743,0.271657 -0.359539,0.328615 v 0 h -0.05593 l -1.126555,0.36869 h -0.05593 c -0.171779,0.05258 -0.357752,0.02926 -0.511344,-0.06412 -0.02895,0.173034 -0.134796,0.323458 -0.287632,0.408765 v 0 h -0.05593 l -1.038668,0.56105 h -0.04794 -0.04794 l -0.615211,-1.017905 0.0799,-0.0561 1.126555,-0.51296 c 0.18911,-0.104084 0.418111,-0.104084 0.607221,0 0.03527,-0.215427 0.185659,-0.394002 0.391498,-0.46487 l 1.230422,-0.43281 c 0.203218,-0.06684 0.426409,-0.02448 0.591242,0.11221 0.08337,-0.197574 0.260792,-0.33936 0.471395,-0.376705 l 1.28635,-0.20839 c 0.210833,-0.03521 0.424945,0.04042 0.567273,0.200375 0.117812,-0.176241 0.315796,-0.281564 0.527324,-0.280525 h 1.310319 c 0.20947,0.0062 0.403002,0.113684 0.519334,0.28854 0.151936,-0.148827 0.366353,-0.21455 0.575262,-0.17633 l 1.278361,0.24045 c 0.204473,0.04539 0.37765,0.180834 0.471395,0.36869 0.166828,-0.105254 0.37134,-0.131632 0.559283,-0.07213 l 1.222432,0.46487 c 0.189977,0.07426 0.336643,0.230218 0.399488,0.424795 0.195669,-0.06981 0.412093,-0.04927 0.591242,0.0561 l 0.894852,0.52899 -0.607221,-0.44884 h -0.04794 c -0.151316,-0.111315 -0.251999,-0.278688 -0.279641,-0.46487 -0.169278,0.0678 -0.358046,0.0678 -0.527324,0 v 0 h -0.05593 l -0.96676,-0.56105 h -0.04794 c -0.171728,-0.08739 -0.297111,-0.245345 -0.343559,-0.43281 -0.160151,0.09915 -0.354756,0.125378 -0.535314,0.07213 v 0 h -0.05593 l -1.054647,-0.33663 h -0.04794 c -0.189268,-0.0603 -0.339843,-0.205432 -0.407477,-0.392735 -0.142111,0.132466 -0.334407,0.196767 -0.527324,0.17633 h -0.06392 l -1.094596,-0.168315 h -0.05593 c -0.19773,-0.03505 -0.368521,-0.159112 -0.463406,-0.33663 -0.114794,0.162159 -0.29735,0.262587 -0.495365,0.27251 h -0.06392 -1.102586 -0.05593 c -0.208343,-0.003 -0.40215,-0.107691 -0.519334,-0.280525 -0.07585,0.188844 -0.240741,0.327187 -0.439436,0.36869 v 0 h -0.05593 l -1.094596,0.19236 h -0.08789 c -0.210416,0.03868 -0.425057,-0.04129 -0.559283,-0.20839 -0.04079,0.205866 -0.181832,0.377463 -0.375518,0.456855 v 0 H 15.2045 L 14.149853,22.8748 v 0 c -0.211894,0.07182 -0.446024,0.01928 -0.607221,-0.136255 0.01671,0.217846 -0.09601,0.425139 -0.287631,0.52899 v 0 h -0.03995 l -1.022689,0.54502 h -0.04794 -0.04794 l -0.591241,-0.985845 0.0799,-0.05611 1.046658,-0.601125 c 0.224017,-0.12238 0.501018,-0.08684 0.687119,0.08817 -0.01029,-0.257303 0.143941,-0.492598 0.383508,-0.585095 l 1.134545,-0.41678 c 0.226439,-0.08721 0.483008,-0.02684 0.64717,0.152285 0.05528,-0.240251 0.246171,-0.425464 0.487375,-0.472885 l 1.190473,-0.232435 c 0.236029,-0.04675 0.477315,0.0507 0.615211,0.248465 0.101451,-0.220678 0.317266,-0.36604 0.559282,-0.376705 l 1.214443,-0.04007 c 0.235685,0.0017 0.452307,0.130229 0.567272,0.33663 0.13563,-0.197663 0.369929,-0.302812 0.607222,-0.27251 l 1.206452,0.1603 c 0.230887,0.0351 0.425697,0.190828 0.511345,0.408765 0.171966,-0.159101 0.41281,-0.219502 0.63918,-0.1603 l 1.166504,0.35266 c 0.220154,0.0723 0.386741,0.254608 0.439436,0.4809 0.203139,-0.115774 0.452021,-0.115774 0.65516,0 l 1.094596,0.52899 c 0.205581,0.10617 0.345983,0.306951 0.375518,0.537005 0.214305,-0.08507 0.456708,-0.05805 0.64717,0.07213 l 0.215724,0.1603 -0.06392,-0.02405 v 0 c -0.166696,-0.146191 -0.252953,-0.364005 -0.231703,-0.585095 -0.192995,0.09984 -0.422216,0.09984 -0.615211,0 v 0 h -0.04794 l -0.94279,-0.67326 h -0.03995 c -0.18968,-0.124083 -0.306238,-0.333951 -0.311601,-0.56105 -0.182544,0.127325 -0.416547,0.15441 -0.6232,0.07213 v 0 h -0.04794 l -0.95078,-0.408765 h -0.04794 c -0.211218,-0.09273 -0.357307,-0.291185 -0.383508,-0.520975 -0.15977,0.16358 -0.39218,0.233221 -0.615211,0.184345 v 0 h -0.04794 l -1.006709,-0.25648 h -0.03995 c -0.232179,-0.06038 -0.411118,-0.246075 -0.463406,-0.4809 -0.125484,0.198681 -0.34933,0.312496 -0.583252,0.296555 h -0.04794 l -1.030679,-0.104195 h -0.04794 c -0.246244,-0.01906 -0.455609,-0.187714 -0.527324,-0.424795 -0.08432,0.227586 -0.293828,0.384429 -0.535313,0.40075 h -0.05593 l -1.030678,0.05611 h -0.04794 c -0.262154,0.01533 -0.502971,-0.144636 -0.591242,-0.392735 -0.02111,0.256863 -0.205161,0.470652 -0.455416,0.52899 h -0.05593 l -1.022688,0.216405 h -0.01598 c -0.287874,0.05653 -0.573538,-0.107221 -0.671139,-0.38472 0.0647,0.282781 -0.08403,0.571006 -0.351549,0.681275 v 0 h -0.03995 l -0.97475,0.360675 h -0.03995 c -0.195947,0.09659 -0.42951,0.07357 -0.602982,-0.05941 -0.173471,-0.132982 -0.256951,-0.353013 -0.215516,-0.568046 0.04143,-0.215034 0.200643,-0.388005 0.411021,-0.446555 l 1.046657,-0.408765 c 0.297806,-0.115011 0.632459,0.03142 0.751037,0.328615 -0.06453,-0.315786 0.134171,-0.625462 0.447426,-0.697305 l 1.102586,-0.248465 c 0.294274,-0.05716 0.586098,0.109641 0.687119,0.392735 0.01513,-0.301701 0.251097,-0.54528 0.551293,-0.569065 l 1.126555,-0.07213 c 0.284412,-0.0155 0.54224,0.166879 0.623201,0.440825 0.0871,-0.271999 0.346927,-0.450163 0.631191,-0.43281 l 1.126555,0.09618 c 0.270298,0.02513 0.493287,0.22289 0.551293,0.488915 0.145375,-0.232022 0.420328,-0.347482 0.687118,-0.28854 l 1.094597,0.264495 c 0.252624,0.06127 0.446279,0.264942 0.495364,0.520975 0.18923,-0.182649 0.468073,-0.236079 0.711088,-0.136255 l 1.038668,0.424795 c 0.242523,0.08573 0.413779,0.304384 0.439437,0.56105 0.219471,-0.13968 0.499606,-0.13968 0.719077,0 l 0.96676,0.57708 c 0.220848,0.130915 0.347988,0.376666 0.32758,0.633185 0.209436,-0.08696 0.447983,-0.06602 0.639181,0.0561 -0.132636,-0.170008 -0.177098,-0.393019 -0.119847,-0.601125 -0.222494,0.110744 -0.486726,0.09551 -0.695108,-0.04007 v 0 0 l -0.798976,-0.56105 v 0 c -0.212461,-0.152691 -0.315706,-0.416327 -0.263661,-0.67326 -0.203495,0.159182 -0.479946,0.187226 -0.711088,0.07213 v 0 0 L 24.983958,19.73293 v 0 c -0.251503,-0.126494 -0.390983,-0.403082 -0.343559,-0.681275 -0.161388,0.224447 -0.45067,0.315745 -0.711088,0.22442 v 0 0 l -0.902843,-0.3206 v 0 c -0.30578,-0.116135 -0.477181,-0.442824 -0.399487,-0.761425 -0.08244,0.313954 -0.393269,0.510147 -0.711088,0.44884 h -0.295621 l -0.942791,-0.33663 v 0 c -0.177916,-0.02904 -0.334581,-0.133943 -0.429565,-0.287627 -0.09498,-0.153684 -0.118981,-0.341097 -0.0658,-0.513873 0.06446,-0.333889 0.386041,-0.552538 0.719078,-0.488915 l 1.022689,0.184345 c 0.330693,0.06488 0.552272,0.378893 0.503354,0.713335 0.123228,-0.319536 0.475096,-0.485437 0.798975,-0.376705 l 0.98274,0.33663 c 0.302069,0.0992 0.483487,0.408242 0.423457,0.72135 0.181853,-0.252968 0.517326,-0.340466 0.798975,-0.20839 l 0.934801,0.46487 c 0.268884,0.141996 0.407162,0.44915 0.33557,0.745395 0.223722,-0.196146 0.550195,-0.219071 0.798975,-0.05611 l 0.854904,0.59311 c 0.235383,0.168134 0.340756,0.466032 0.263662,0.745395 0.184519,-0.08801 0.398733,-0.08801 0.583252,0 -0.120945,-0.23892 -0.0929,-0.526502 0.07191,-0.73738 -0.238931,0.228862 -0.608354,0.249262 -0.870883,0.04809 v 0 0 l -0.679129,-0.56105 v 0 c -0.136982,-0.111394 -0.224097,-0.272931 -0.242089,-0.448902 -0.01799,-0.175971 0.03462,-0.351884 0.146212,-0.488853 0.231171,-0.284587 0.646996,-0.330936 0.934801,-0.104195 l 0.287632,0.232435 -0.207734,-0.200375 v 0 c -0.257895,-0.26218 -0.257895,-0.68359 0,-0.94577 0.23228,-0.244256 0.610104,-0.275267 0.878873,-0.07213 -0.215569,-0.235947 -0.227563,-0.594292 -0.02826,-0.844213 0.199307,-0.249921 0.550444,-0.316844 0.827231,-0.157662 -0.174195,-0.238378 -0.16339,-0.565322 0.02616,-0.791602 0.189552,-0.226281 0.508736,-0.293265 0.772813,-0.162183 -0.147206,-0.269171 -0.08355,-0.605246 0.151805,-0.8015 0.177384,-0.143904 0.417193,-0.183491 0.63119,-0.104195 -0.140102,-0.276582 -0.06272,-0.614113 0.183765,-0.8015 0.165463,-0.12291 0.380763,-0.155907 0.575262,-0.08817 -0.13509,-0.282215 -0.04728,-0.621032 0.207733,-0.8015 0.15654,-0.107659 0.352677,-0.139962 0.535314,-0.08817 -0.111847,-0.272637 -0.01862,-0.586606 0.223713,-0.75341 0.145049,-0.09887 0.325264,-0.130944 0.495365,-0.08817 -0.104377,-0.274105 -0.0047,-0.584145 0.239692,-0.745395 0.290573,-0.179457 0.670423,-0.09831 0.862894,0.184345 l 0.151805,0.24045 c 0.09118,0.159981 0.107364,0.35217 0.04421,0.525225 -0.06315,0.173054 -0.199197,0.309343 -0.371793,0.372455 -0.133265,0.08357 -0.292551,0.114956 -0.447426,0.08817 0.109253,0.213868 0.08663,0.471628 -0.05819,0.663056 -0.144823,0.191429 -0.386209,0.282638 -0.620937,0.234624 0.143582,0.276145 0.06565,0.616031 -0.183765,0.8015 -0.148096,0.112624 -0.339449,0.151016 -0.519333,0.104195 0.123939,0.221659 0.10178,0.496525 -0.05606,0.695323 -0.157836,0.198799 -0.419933,0.28196 -0.663021,0.210372 0.133208,0.227412 0.111931,0.513842 -0.0534,0.718936 -0.165337,0.205095 -0.440096,0.285888 -0.689642,0.202789 0.15823,0.238695 0.139305,0.553748 -0.04635,0.771655 -0.185659,0.217907 -0.49294,0.285723 -0.752622,0.1661 0.147708,0.242296 0.125788,0.551939 -0.05457,0.770863 -0.180359,0.218924 -0.479374,0.29884 -0.744404,0.198952 0.169162,0.255188 0.140059,0.593788 -0.07015,0.816162 -0.210208,0.222375 -0.545721,0.269495 -0.808723,0.113578 0.195461,0.223669 0.221446,0.549502 0.06392,0.8015 0.177504,-0.149317 0.419812,-0.194893 0.63918,-0.120225 -0.126384,-0.276568 -0.05465,-0.603677 0.175775,-0.8015 0.170587,-0.143681 0.401685,-0.191853 0.615211,-0.12824 -0.09849,-0.235635 -0.05191,-0.507175 0.119419,-0.696238 0.171333,-0.189062 0.436368,-0.261375 0.679556,-0.185412 -0.07528,-0.221544 -0.02742,-0.466533 0.125637,-0.643192 0.153062,-0.17666 0.38823,-0.258328 0.61741,-0.214413 -0.04941,-0.210837 0.0079,-0.432558 0.153215,-0.592746 0.145311,-0.160187 0.359965,-0.238273 0.573853,-0.208754 -0.07547,-0.275998 0.03812,-0.569016 0.279641,-0.72135 0.127588,-0.07546 0.276474,-0.106454 0.423457,-0.08817 -0.07829,-0.280021 0.04364,-0.577539 0.295621,-0.72135 0.119492,-0.07335 0.261065,-0.101754 0.399488,-0.08015 -0.0769,-0.281926 0.04857,-0.580018 0.30361,-0.72135 0.112209,-0.06116 0.241326,-0.08368 0.367529,-0.06412 -0.08297,-0.286565 0.04752,-0.592003 0.3116,-0.729365 0.311157,-0.165297 0.696976,-0.04704 0.862894,0.264495 l 0.127836,0.248465 c 0.151149,0.306546 0.03932,0.678153 -0.255672,0.84959 -0.100789,0.05249 -0.214514,0.07475 -0.32758,0.06412 0.126961,0.297549 0.0098,0.643249 -0.271652,0.8015 -0.107263,0.05902 -0.229798,0.08417 -0.351549,0.07213 0.120838,0.295847 0.009,0.635908 -0.263662,0.8015 -0.11384,0.06518 -0.245086,0.0932 -0.375518,0.08015 0.123773,0.291987 0.01903,0.630945 -0.247683,0.8015 -0.120708,0.07823 -0.264659,0.112209 -0.407477,0.09618 0.12187,0.290268 0.02133,0.626462 -0.239693,0.8015 -0.128126,0.08222 -0.280057,0.118909 -0.431446,0.104195 0.12182,0.28675 0.02883,0.619903 -0.223713,0.8015 -0.133476,0.09801 -0.299298,0.141032 -0.463406,0.120225 0.118082,0.282031 0.03675,0.608393 -0.199744,0.8015 -0.147239,0.10897 -0.329068,0.160271 -0.511344,0.14427 0.12743,0.278015 0.05194,0.607269 -0.183764,0.8015 -0.154926,0.131002 -0.359592,0.186729 -0.559283,0.152285 0.09222,0.224119 0.05875,0.480518 -0.08789,0.67326 0.113349,-0.05812 0.240701,-0.08312 0.367528,-0.07213 -0.05685,-0.282515 0.06336,-0.571306 0.303611,-0.729365 0.127902,-0.07506 0.275797,-0.108655 0.423457,-0.09618 -0.05851,-0.286517 0.0696,-0.578879 0.31959,-0.729365 0.116002,-0.06763 0.249725,-0.09837 0.383508,-0.08817 -0.04266,-0.202808 0.01134,-0.413976 0.146068,-0.571129 0.134726,-0.157153 0.334773,-0.24233 0.541051,-0.230371 -0.05037,-0.289319 0.08754,-0.57888 0.343559,-0.72135 0.103476,-0.04427 0.215105,-0.06612 0.32758,-0.06412 -0.06399,-0.164522 -0.05841,-0.348097 0.01546,-0.5084 0.07387,-0.160304 0.209651,-0.283502 0.37604,-0.34119 0.09201,-0.04479 0.193386,-0.06678 0.295621,-0.06412 -0.05179,-0.291553 0.09477,-0.582343 0.359539,-0.713335 0.08382,-0.04373 0.177191,-0.06577 0.271651,-0.06412 -0.04819,-0.293237 0.105775,-0.582427 0.375519,-0.70532 0.07745,-0.03672 0.162016,-0.05588 0.247682,-0.05611 -0.05398,-0.298456 0.105251,-0.594629 0.383508,-0.713335 0.333147,-0.13387 0.712007,0.02242 0.854904,0.35266 l 0.103867,0.25648 c 0.139646,0.334248 -0.01311,0.71913 -0.34356,0.86562 -0.07027,0.02108 -0.142591,0.03451 -0.215723,0.04007 0.107093,0.318166 -0.04536,0.665751 -0.351549,0.8015 -0.07024,0.03202 -0.146559,0.04842 -0.223713,0.04809 0.10049,0.315717 -0.04601,0.657483 -0.34356,0.8015 -0.07688,0.03836 -0.161831,0.0576 -0.247682,0.0561 0.10292,0.311653 -0.03619,0.652024 -0.32758,0.8015 -0.08282,0.04718 -0.17641,0.07203 -0.271651,0.07213 0.10292,0.311653 -0.03619,0.652024 -0.32758,0.8015 -0.0876,0.05063 -0.186549,0.0782 -0.287631,0.08015 0.09691,0.305486 -0.02892,0.637666 -0.303611,0.8015 -0.09799,0.05359 -0.207994,0.08118 -0.31959,0.08015 0.09837,0.303605 -0.02395,0.635242 -0.295621,0.8015 -0.103449,0.06332 -0.222377,0.09661 -0.343559,0.09618 0.09839,0.299865 -0.01631,0.628637 -0.279642,0.8015 -0.113518,0.07559 -0.247281,0.114725 -0.383508,0.11221 0.02407,0.100087 0.02407,0.204483 0,0.30457 0.05959,-0.179552 0.189365,-0.327097 0.359539,-0.408765 0.08428,-0.04347 0.176966,-0.06808 0.271652,-0.07214 -0.03451,-0.299398 0.126643,-0.587151 0.399487,-0.713335 0.07685,-0.02999 0.157551,-0.04888 0.239693,-0.05611 -0.02935,-0.302777 0.138123,-0.590316 0.415467,-0.713335 0.07027,-0.02108 0.142591,-0.03451 0.215723,-0.04007 -0.04127,-0.307276 0.129485,-0.603754 0.415468,-0.72135 0.06369,-0.0077 0.128067,-0.0077 0.191753,0 -0.03112,-0.310094 0.149044,-0.60256 0.439437,-0.713335 0.05584,-0.0044 0.111944,-0.0044 0.167785,0 -0.04507,-0.31702 0.138687,-0.622018 0.439436,-0.729365 0.04761,-0.0079 0.0962,-0.0079 0.143816,0 -0.04743,-0.319904 0.141373,-0.627674 0.447426,-0.729365 0.04519,-0.0039 0.09063,-0.0039 0.135826,0 -0.0509,-0.320609 0.13918,-0.630468 0.447426,-0.729365 0.338462,-0.08995 0.688313,0.09957 0.798975,0.43281 l 0.08789,0.27251 c -0.005,0.279611 -0.183799,0.526228 -0.447427,0.617155 h -0.103867 c 0.08966,0.339532 -0.09926,0.690488 -0.431446,0.8015 -0.03715,0.0045 -0.0747,0.0045 -0.111857,0 0.08338,0.334109 -0.09493,0.678095 -0.415467,0.8015 -0.04254,0.0034 -0.08529,0.0034 -0.127836,0 0.06441,0.172133 0.0576,0.362947 -0.01892,0.530017 -0.07652,0.16707 -0.216406,0.296549 -0.388556,0.359648 h -0.143816 c 0.08537,0.329791 -0.08526,0.672138 -0.399488,0.8015 -0.05305,0.0068 -0.106745,0.0068 -0.159795,0 0.02856,0.121227 0.02856,0.247463 0,0.36869 0.07303,-0.06543 0.160744,-0.11218 0.255672,-0.136255 h 0.06392 c -0.02712,-0.330633 0.184388,-0.633744 0.503354,-0.72135 h 0.04794 c -0.03809,-0.339673 0.180632,-0.655074 0.511344,-0.73738 h 0.03995 c -0.04064,-0.341183 0.18443,-0.657274 0.519333,-0.729365 v 0 c -0.03853,-0.237669 0.05225,-0.477908 0.238164,-0.63022 0.185912,-0.152313 0.438703,-0.193559 0.66315,-0.108203 0.224447,0.08536 0.38645,0.284349 0.424986,0.522018 l 0.06392,0.280525 c 0.07021,0.361272 -0.154912,0.714144 -0.511344,0.8015 v 0 c 0.07021,0.361272 -0.154912,0.714144 -0.511344,0.8015 0.07079,0.358825 -0.150152,0.710633 -0.503354,0.8015 v 0 c 0.03927,0.169748 0.01059,0.348178 -0.0799,0.49693 h 0.08789 c -0.03385,-0.336796 0.183938,-0.647442 0.511345,-0.729365 -0.03198,-0.186815 0.01414,-0.378597 0.12751,-0.530237 0.113372,-0.151639 0.283989,-0.249753 0.471721,-0.271263 0.185888,-0.02971 0.37584,0.01748 0.526426,0.130777 0.150586,0.113296 0.24893,0.283013 0.272549,0.470348 v 0.280525 c 0.03958,0.334911 -0.171064,0.648468 -0.495364,0.73738 v 0.07213 c 0.03448,0.239529 -0.06343,0.478947 -0.255672,0.62517 0.06188,-0.02179 0.126353,-0.03526 0.191754,-0.04008 0.382329,-0.0091 0.701802,0.290006 0.719077,0.67326 v 0.280525 c 0.01079,0.309301 -0.185246,0.587897 -0.479385,0.681275 v 0.136255 c 0.0064,0.191236 -0.06582,0.376707 -0.199744,0.51296 0.195122,0.0061 0.379391,0.09149 0.510481,0.236601 0.131091,0.145109 0.197737,0.337449 0.184628,0.532839 z M 25.934739,37.742635 h -0.0799 0.05593 z m 0.399487,-3.35027 h -0.03995 -0.07191 v 0 c 0.03716,0.0044 0.0747,0.0044 0.111856,0 z M 3.4675529,5.14563 v 0 L 3.787143,4.993345 v 0 C 3.9763654,4.8999267 4.0548901,4.6707695 3.9629176,4.480385 3.8668001,4.2940074 3.6416088,4.2163533 3.4515734,4.304055 l -0.3195902,0.1603 C 2.9444469,4.5550995 2.86575,4.7811711 2.9562087,4.9693 3.0466674,5.1574289 3.2720268,5.2363745 3.4595631,5.14563 Z M 4.4742618,2.48465 4.7219441,2.38847 v 0 C 4.8154146,2.352632 4.8907608,2.2808526 4.9312618,2.1890612 4.9717628,2.0972697 4.9740686,1.9930588 4.9376674,1.899555 4.9039083,1.806367 4.8333962,1.7312303 4.7427064,1.6918072 4.6520165,1.6523841 4.5491481,1.6521518 4.4582822,1.691165 L 4.2026101,1.787345 C 4.0632101,1.824581 3.9573962,1.9386327 3.9303668,2.0807829 3.9033374,2.2229331 3.9598711,2.3680501 4.0758197,2.4541473 4.1917682,2.5402444 4.3466323,2.5521 4.4742618,2.48465 Z M 22.706878,7.46998 c -0.116607,0.2833117 0.01502,0.6080662 0.295621,0.729365 v 0 l 0.463406,0.19236 v 0 c 0.286748,0.1104528 0.609041,-0.02811 0.727067,-0.312585 0.05511,-0.1381698 0.05324,-0.2926436 -0.0052,-0.4294303 -0.05844,-0.1367868 -0.168654,-0.2446786 -0.3064,-0.2999347 L 23.386007,7.14938 c -0.274862,-0.084005 -0.568458,0.054595 -0.679129,0.3206 z m -6.77531,-3.694915 h -0.447426 c -0.127182,-0.00654 -0.251731,0.037955 -0.346164,0.1236651 -0.09443,0.08571 -0.15099,0.2055905 -0.157191,0.3331899 -0.01367,0.2671834 0.189275,0.4957683 0.455416,0.51296 v 0 h 0.431447 v 0 c 0.128511,0.00652 0.254241,-0.03906 0.348907,-0.1264888 0.09467,-0.087429 0.150322,-0.209365 0.154447,-0.3383812 0.0097,-0.2584073 -0.182893,-0.4796925 -0.439436,-0.504945 z m 2.980178,2.14802 c -0.268238,-0.020146 -0.508598,0.165471 -0.557799,0.4307571 -0.0492,0.2652862 0.108532,0.5252012 0.366045,0.6031779 v 0 l 0.495364,0.09618 v 0 C 19.503869,7.101808 19.777844,6.9090624 19.830567,6.62039 19.878757,6.3327444 19.685749,6.0602491 19.399121,6.01125 Z M 20.549645,4.4884 20.118198,4.384205 C 19.931249,4.310862 19.718905,4.352168 19.572832,4.490291 19.426758,4.628414 19.373116,4.838618 19.43506,5.0301618 19.49701,5.2217057 19.663443,5.3602859 19.862526,5.38608 v 0 l 0.415467,0.104195 v 0 c 0.181259,0.044384 0.372353,-0.011609 0.501298,-0.1468878 0.128946,-0.1352784 0.176154,-0.32929 0.123842,-0.5089525 C 20.85082,4.6547723 20.706934,4.516754 20.525676,4.47237 Z m 1.382227,5.089525 0.551293,0.19236 v 0 C 22.675842,9.8375769 22.889669,9.7966407 23.0441,9.6628968 23.198531,9.5291529 23.270104,9.3229201 23.231859,9.1218843 23.193614,8.9208485 23.05136,8.7555519 22.858684,8.68826 L 22.283421,8.4959 c -0.293181,-0.095866 -0.609005,0.060765 -0.711088,0.35266 -0.10098,0.2921235 0.05267,0.6111418 0.34356,0.713335 z m -2.165223,-0.59311 v 0 l 0.567273,0.136255 v 0 c 0.20077,0.068371 0.422836,0.015181 0.571157,-0.1368045 C 21.053401,8.8322796 21.101693,8.608432 21.029287,8.4085258 20.956881,8.2086196 20.776609,8.0680817 20.565625,8.04706 l -0.559283,-0.1603 c -0.293439,-0.066398 -0.584976,0.1184061 -0.651165,0.4127725 -0.06619,0.2943664 0.118033,0.5868241 0.411472,0.6532225 z m 10.69029,0.67326 v 0 l 0.247682,0.24045 v 0 c 0.238282,0.232394 0.619246,0.227012 0.850909,-0.012022 C 31.787192,9.6474686 31.781827,9.2653 31.54355,9.0329055 l -0.255672,-0.25648 c -0.235719,-0.2300821 -0.611194,-0.2300821 -0.846913,0 -0.120281,0.1159719 -0.186923,0.276995 -0.18389,0.4443247 0.003,0.1673297 0.07547,0.3258163 0.199869,0.4373253 z M 14.24573,5.650575 c -0.26604,0.00872 -0.475901,0.229945 -0.471396,0.49693 0.0086,0.2681671 0.227904,0.4810396 0.495365,0.4809001 h 0.535314 c 0.130685,-0.00208 0.255062,-0.056726 0.345201,-0.1516709 C 15.240353,6.3817891 15.2887,6.2545036 15.284398,6.12346 15.280227,5.9916427 15.223994,5.866895 15.128083,5.7766943 15.032172,5.6864937 14.904451,5.6382393 14.773054,5.64256 Z m 2.340997,0 c -0.272425,-0.018577 -0.509936,0.1841231 -0.535313,0.456855 -0.01561,0.1344966 0.02417,0.2695585 0.110134,0.3739506 0.08597,0.1043921 0.210673,0.169073 0.345282,0.1790844 v 0 l 0.503354,0.04809 v 0 C 17.272052,6.7000172 17.485118,6.4943022 17.503639,6.2321263 17.52216,5.9699504 17.340142,5.7361487 17.082092,5.69065 Z m 1.597951,4.320085 c -0.048,0.300878 0.155648,0.584021 0.455416,0.633185 v 0 l 0.65516,0.104195 v 0 c 0.302264,0.04205 0.581281,-0.169665 0.623201,-0.472885 0.04192,-0.3032195 -0.169132,-0.5831177 -0.471396,-0.62517 L 18.791899,9.48976 C 18.644701,9.467007 18.494707,9.506799 18.377965,9.5995755 18.261224,9.6923515 18.188289,9.8297224 18.176688,9.978675 Z m 2.396926,-3.206 c -0.07796,0.2870584 0.08443,0.5845499 0.367529,0.67326 v 0 l 0.479385,0.14427 v 0 C 21.56627,7.624209 21.715087,7.608791 21.841371,7.539417 21.967655,7.4700433 22.060757,7.3525628 22.099657,7.2135 22.181993,6.9215189 22.014427,6.6175159 21.724139,6.532225 L 21.220784,6.387955 C 21.075408,6.3443304 20.91847,6.3636819 20.787954,6.4413259 20.657437,6.51897 20.565236,6.6478306 20.533666,6.79672 Z m 2.25311,-1.603 -0.423456,-0.152285 c -0.277995,-0.1018109 -0.585629,0.041727 -0.687119,0.3206 -0.10149,0.2788734 0.04159,0.5874791 0.31959,0.68929 v 0 l 0.399488,0.152285 v 0 C 22.626011,6.248732 22.836364,6.218207 22.989862,6.092225 23.14336,5.9662418 23.214846,5.7654497 23.175632,5.5704239 23.136419,5.375398 22.992934,5.2181032 22.802755,5.16166 Z M 18.296535,7.64631 17.689313,7.574175 c -0.287639,-0.028407 -0.545817,0.1773691 -0.583252,0.46487 -0.02861,0.29024 0.175624,0.5516349 0.463406,0.59311 v 0 l 0.575262,0.072135 v 0 c 0.290389,0.028142 0.54977,-0.1821561 0.583252,-0.472885 0.03402,-0.2790556 -0.155493,-0.5360586 -0.431446,-0.585095 z m -2.340998,-0.1603 h -0.615211 c -0.133498,0 -0.261528,0.053199 -0.355925,0.147895 -0.0944,0.094695 -0.147429,0.2231303 -0.147429,0.35705 -0.0043,0.1366751 0.04679,0.2692669 0.141658,0.3674583 0.09487,0.098191 0.225383,0.1535856 0.361696,0.1535168 h 0.615211 c 0.259945,-0.032532 0.455042,-0.25418 0.455042,-0.5169676 0,-0.2627876 -0.195097,-0.4844355 -0.455042,-0.5169675 z m -0.05593,2.4045 c -0.0092,0.295079 0.217553,0.543827 0.511344,0.56105 v 0 H 17.0741 v 0 c 0.297023,0.0045 0.54259,-0.231122 0.551293,-0.52899 0.0043,-0.1424401 -0.04801,-0.2807546 -0.145418,-0.3844829 C 17.38257,9.4343587 17.248057,9.3737235 17.106061,9.369535 h -0.695108 c -0.271462,0.011462 -0.491308,0.2251115 -0.511344,0.49693 z M 14.101914,9.48976 c -0.279627,0.025452 -0.48649,0.2723256 -0.463405,0.553035 0.02131,0.281489 0.262231,0.49474 0.543303,0.4809 v 0 l 0.65516,-0.04007 v 0 c 0.264506,-0.04707 0.449577,-0.288721 0.426753,-0.5572313 C 15.240901,9.6578788 15.017716,9.4511462 14.749084,9.449685 Z m -1.661868,-3.6869 -0.519334,0.072135 c -0.254593,0.033358 -0.435751,0.2649747 -0.407478,0.520975 0.03717,0.2575815 0.268984,0.4407985 0.527324,0.41678 v 0 l 0.503354,-0.056105 v 0 c 0.139352,-0.00418 0.269715,-0.070014 0.356052,-0.1798233 0.08634,-0.109809 0.119792,-0.2523234 0.09137,-0.3892417 -0.0177,-0.1281946 -0.08616,-0.2438213 -0.18991,-0.3207465 -0.103747,-0.076925 -0.234023,-0.1086552 -0.361383,-0.088019 z m 11.409367,11.58969 v 0 l 0.798975,0.360675 v 0 0 c 0.211221,0.09826 0.458995,0.07353 0.646777,-0.06455 0.187782,-0.13808 0.285867,-0.367667 0.256035,-0.599304 -0.02983,-0.231637 -0.182859,-0.42868 -0.399457,-0.514352 L 24.27287,16.198315 c -0.311039,-0.118942 -0.660693,0.02487 -0.798975,0.328615 -0.07502,0.163753 -0.07692,0.351815 -0.0052,0.517063 0.07169,0.165247 0.21017,0.292021 0.380751,0.348557 z M 23.665649,15.5491 v 0 c 0.311302,0.0814 0.633206,-0.08828 0.742979,-0.391634 0.109773,-0.30335 -0.02866,-0.640668 -0.319522,-0.778556 L 23.29013,14.082355 c -0.308144,-0.08477 -0.629687,0.08121 -0.740051,0.382013 -0.110364,0.300804 0.02719,0.636292 0.316594,0.772147 v 0 l 0.759027,0.28854 z m -1.885582,1.15416 v 0 l 0.846914,0.248465 v 0 0 c 0.333153,0.09296 0.678346,-0.102612 0.771011,-0.436818 0.09267,-0.334205 -0.102289,-0.680489 -0.435442,-0.773447 l -0.862893,-0.24045 c -0.330946,-0.08853 -0.670774,0.108833 -0.759026,0.440825 -0.08825,0.331992 0.10849,0.672894 0.439436,0.761425 z m 8.309343,-1.20225 c 0.110508,-0.12953 0.165041,-0.297876 0.151548,-0.467828 -0.01349,-0.169953 -0.0939,-0.327517 -0.223456,-0.437867 L 29.490179,14.13846 c -0.171268,-0.153196 -0.410998,-0.203097 -0.628886,-0.130904 -0.217888,0.07219 -0.380832,0.255511 -0.427452,0.4809 -0.04662,0.225389 0.03017,0.458608 0.201434,0.611804 v 0 l 0.495365,0.43281 v 0 0 c 0.12768,0.1267 0.302604,0.19367 0.481967,0.184521 0.179363,-0.0091 0.346613,-0.09357 0.460824,-0.232611 z m -4.242559,2.877385 v 0 l 0.759027,0.46487 v 0 0 c 0.31363,0.183534 0.716076,0.07993 0.902842,-0.232435 0.09075,-0.149688 0.118166,-0.329528 0.07616,-0.499583 -0.042,-0.170055 -0.149953,-0.316247 -0.299874,-0.406112 L 26.486032,17.21622 c -0.304838,-0.146144 -0.670468,-0.03578 -0.844296,0.25485 -0.173828,0.290628 -0.09884,0.666199 0.173156,0.86725 z m -4.258538,-3.5266 v 0 c 0.322975,0.06546 0.640019,-0.135968 0.719078,-0.456855 0.0697,-0.324805 -0.13291,-0.64573 -0.455416,-0.72135 l -0.870883,-0.17633 c -0.319915,-0.07525 -0.640069,0.123907 -0.715083,0.444832 -0.07502,0.320926 0.123516,0.642091 0.443431,0.717343 v 0 l 0.798976,0.184345 z m 6.847218,2.70907 c 0.09805,-0.14224 0.135478,-0.317846 0.10398,-0.487872 -0.0315,-0.170026 -0.129318,-0.320418 -0.271764,-0.417823 l -0.719078,-0.49693 c -0.294769,-0.194932 -0.690501,-0.120498 -0.894852,0.168315 -0.09843,0.139987 -0.136928,0.313664 -0.106909,0.482304 0.03002,0.168639 0.126059,0.318216 0.266703,0.415376 v 0 l 0.66315,0.472885 v 0 0 c 0.143206,0.11078 0.325689,0.157254 0.504229,0.128416 0.17854,-0.02884 0.337258,-0.130426 0.438562,-0.280701 z m 0.846914,-1.04195 c 0.215265,-0.286356 0.161933,-0.692962 -0.119846,-0.91371 l -0.623201,-0.4809 c -0.28112,-0.19325 -0.663466,-0.13469 -0.874293,0.133908 -0.210829,0.268598 -0.17789,0.655187 0.07532,0.883997 v 0 l 0.575262,0.456855 v 0 0 c 0.136467,0.119292 0.316052,0.176631 0.496149,0.158413 0.180096,-0.01822 0.344654,-0.110371 0.454632,-0.254593 z M 14.101914,18.5948 v 0 l 0.942791,-0.22442 h 0.03995 c 0.308883,-0.07525 0.498471,-0.387446 0.423457,-0.697305 -0.07501,-0.309859 -0.386225,-0.500047 -0.695109,-0.424795 l -1.022688,0.25648 c -0.145674,0.03418 -0.271624,0.125492 -0.349697,0.253515 -0.07807,0.128023 -0.101762,0.282088 -0.06577,0.42776 0.08885,0.304956 0.406701,0.480508 0.711088,0.392735 z m 2.045377,-2.4045 v 0 c 0.238153,-0.100863 0.37821,-0.350488 0.340599,-0.607053 -0.03761,-0.256565 -0.243377,-0.455173 -0.500394,-0.482987 l -0.934801,0.120225 c -0.279568,0.068 -0.464135,0.335162 -0.429459,0.621636 0.03468,0.286473 0.277618,0.501557 0.565285,0.500468 v 0 l 0.878873,-0.104199 z m 4.410344,0.20839 v 0 c 0.223464,0.05088 0.45645,-0.02877 0.602439,-0.20595 0.14599,-0.177182 0.180117,-0.421717 0.08824,-0.632305 -0.09187,-0.210588 -0.294097,-0.351358 -0.522898,-0.363995 l -0.958771,-0.09618 c -0.313609,-0.02426 -0.59254,0.198856 -0.638787,0.510961 -0.04625,0.312105 0.155929,0.606961 0.463013,0.675259 v 0 l 0.878872,0.12824 z m -6.599536,0.12824 v 0 c 0.191249,-0.05154 0.340559,-0.201523 0.391687,-0.393444 0.05113,-0.191921 -0.0037,-0.396626 -0.143816,-0.537005 -0.140121,-0.140379 -0.344253,-0.195104 -0.535502,-0.143561 l -0.918822,0.248465 c -0.2689,0.08932 -0.426561,0.368534 -0.364677,0.645823 0.06188,0.27729 0.323173,0.462409 0.60437,0.428187 v 0 l 0.862893,-0.216405 z m 2.309038,1.603 h 0.03995 l 0.958771,-0.08015 h 0.03995 c 0.326534,-0.03099 0.566202,-0.321649 0.535314,-0.649215 -0.03089,-0.327566 -0.320637,-0.567991 -0.64717,-0.537005 l -1.038668,0.104195 c -0.30702,0.05041 -0.522577,0.330872 -0.493081,0.641554 0.0295,0.310683 0.293951,0.545286 0.604937,0.536651 z m 2.197182,-0.104195 h 0.03995 l 0.958771,0.0561 h 0.04794 c 0.314387,-0.01856 0.564039,-0.272288 0.578432,-0.587883 0.01439,-0.315595 -0.21112,-0.591135 -0.522504,-0.638412 L 18.52824,16.81547 c -0.329544,-0.01376 -0.609776,0.238891 -0.63119,0.569065 -0.03249,0.338447 0.214027,0.6395 0.551293,0.67326 z M 18.360453,16.12618 v 0 c 0.226158,0.02651 0.447394,-0.07962 0.568801,-0.272861 0.121406,-0.193239 0.121406,-0.439244 0,-0.632483 -0.121407,-0.193239 -0.342643,-0.299369 -0.568801,-0.272861 h -0.958771 c -0.317286,0.0042 -0.574703,0.258879 -0.583252,0.57708 -0.0045,0.320089 0.24828,0.584371 0.567273,0.59311 v 0 h 0.894852 z M 6.375823,12.880105 v 0 c 0.1427232,-0.08447 0.2296811,-0.238911 0.2281176,-0.40514 -0.00156,-0.166229 -0.091411,-0.318994 -0.2356977,-0.40075 -0.1442867,-0.08176 -0.3210921,-0.08008 -0.4638153,0.0044 l -0.5912418,0.360675 -0.071908,0.04809 0.4554159,0.75341 h 0.071908 v 0 L 6.343864,12.90415 Z m 1.1425347,1.723225 v 0 c 0.165753,-0.07559 0.2732869,-0.240191 0.2762374,-0.422821 0.00295,-0.182631 -0.09921,-0.350636 -0.262434,-0.43158 -0.163224,-0.08094 -0.3583231,-0.06035 -0.5011783,0.0529 l -0.6711393,0.392735 -0.079898,0.104195 0.4793852,0.8015 h 0.071908 v 0 l 0.6391803,-0.36869 z m 4.4982313,4.66473 v 0 l 0.902842,-0.35266 h 0.07191 c 0.283715,-0.118209 0.419272,-0.443857 0.30361,-0.729365 -0.05487,-0.138155 -0.162902,-0.248317 -0.299704,-0.305624 -0.136801,-0.05731 -0.290845,-0.05693 -0.427363,0.0011 l -0.958771,0.38472 c -0.184113,0.07302 -0.315408,0.239024 -0.344427,0.435484 -0.02902,0.19646 0.04864,0.393527 0.203739,0.516968 0.155093,0.123441 0.364053,0.154502 0.548166,0.08148 z M 8.6608924,16.326555 v 0 c 0.1527138,-0.0902 0.2458578,-0.255277 0.2443455,-0.433049 -0.00151,-0.177772 -0.097451,-0.34123 -0.2516772,-0.428802 -0.1542261,-0.08757 -0.3433089,-0.08595 -0.4960227,0.0042 l -0.7590266,0.43281 -0.079898,0.05611 0.5033544,0.8015 c 0.021089,0.0043 0.042829,0.0043 0.063918,0 v 0 L 8.5889846,16.3506 Z m 2.2930596,3.438435 v 0 c 0.188477,-0.08599 0.311846,-0.271976 0.318125,-0.47959 0.0063,-0.207614 -0.105623,-0.400759 -0.288557,-0.498056 -0.182933,-0.0973 -0.405092,-0.08183 -0.572872,0.03989 l -0.894852,0.520975 -0.071908,0.0561 0.5433032,0.89768 h 0.063919 v 0 L 10.898023,19.82911 Z M 9.7954374,18.073825 v 0 C 10.042544,17.927748 10.124818,17.608377 9.9792017,17.36049 9.8335853,17.112603 9.5152203,17.030068 9.2681136,17.176145 l -0.7989753,0.4809 -0.079897,0.0561 0.5273237,0.857605 h 0.063918 v 0 l 0.7989748,-0.44082 z m 2.2850696,3.438435 v 0 c 0.198758,-0.08855 0.329552,-0.283306 0.336707,-0.501355 0.0072,-0.218049 -0.110588,-0.421007 -0.30311,-0.522483 -0.192523,-0.101476 -0.42593,-0.0836 -0.60087,0.04601 l -0.918821,0.56105 -0.0799,0.05611 0.567273,0.94577 h 0.05593 v 0 l 0.902842,-0.585095 z m 19.175407,-12.824 0.183765,0.19236 v 0 c 0.233954,0.2344014 0.612959,0.2344014 0.846913,0 0.113754,-0.1102489 0.177994,-0.2621162 0.177994,-0.4207875 0,-0.1586713 -0.06424,-0.3105386 -0.177994,-0.4207875 L 32.166746,7.88676 C 31.939064,7.6868505 31.59767,7.6916423 31.375652,7.8978639 31.153635,8.1040856 31.12265,8.4451779 31.303853,8.68826 Z M 5.3691141,10.603845 c -0.058238,-0.09888 -0.153268,-0.170491 -0.2641619,-0.199054 -0.1108939,-0.02856 -0.2285577,-0.01174 -0.3270798,0.04677 l -0.519334,0.3206 -0.055928,0.05611 0.4314467,0.70532 h 0.071908 v 0 L 5.2173088,11.23703 v 0 c 0.112186,-0.05595 0.1939176,-0.158856 0.2232138,-0.281051 0.029296,-0.122196 0.00315,-0.251132 -0.071409,-0.352134 z M 4.2026101,8.91268 C 4.0854966,8.7203707 3.835323,8.6594223 3.6433274,8.776425 L 3.1959013,9.048935 C 3.1674333,9.060973 3.1426313,9.080324 3.1239933,9.10504 L 3.5314709,9.7783 h 0.071908 v 0 L 4.0667843,9.48976 v 0 C 4.1616042,9.4317653 4.2293324,9.3381034 4.2548518,9.2296795 4.2803713,9.1212556 4.2615576,9.0070956 4.2026101,8.91268 Z M 0.29562087,3.73499 0.06391803,3.87926 C 0.03948237,3.89061 0.01770367,3.9069956 0,3.92735 L 0.33556963,4.4884 h 0.0798975 L 0.64717,4.34413 v 0 C 0.76171369,4.2847478 0.83347059,4.1660285 0.83299881,4.0366867 0.83252236,3.9073448 0.75989706,3.7891581 0.64492113,3.7306226 0.52994521,3.672087 0.39197765,3.6830585 0.28763111,3.759035 Z M 13.28696,0.88165 h 0.279641 C 13.683805,0.883848 13.796855,0.8381105 13.879745,0.75495851 13.962635,0.67180651 14.008229,0.55839917 14.006037,0.440825 14.006037,0.19736408 13.809295,0 13.566601,0 H 13.28696 c -0.239569,0.00437027 -0.431487,0.20046009 -0.431447,0.440825 -0.0021,0.1161707 0.04236,0.22832795 0.123508,0.3112374 0.08115,0.0829094 0.192114,0.12960752 0.307939,0.1295876 z M 2.3969259,3.38233 2.6446083,3.262105 v 0 C 2.798273,3.1622111 2.8525521,2.9624234 2.7706633,2.7981283 2.6887746,2.6338333 2.4968803,2.5575211 2.3250182,2.620905 L 2.0773358,2.74113 C 1.9018266,2.830525 1.8306012,3.044876 1.9175407,3.22203 1.9587247,3.30819 2.0329981,3.3738977 2.1233623,3.4041143 2.2137263,3.4343313 2.3124456,3.4264693 2.3969259,3.38233 Z M 2.5407415,7.08526 2.1572333,7.317695 C 2.1324313,7.331963 2.1107043,7.351034 2.0933153,7.3738 l 0.3835082,0.633185 h 0.071908 v 0 L 2.9162599,7.79058 v 0 C 3.0971773,7.6799159 3.1544114,7.4430791 3.0440959,7.26159 2.9337805,7.080101 2.6976896,7.022686 2.5167722,7.13335 Z M 1.4141863,5.41814 1.1105757,5.602485 1.0466577,5.65859 1.4061965,6.28376 h 0.071908 v 0 L 1.8056842,6.04331 v 0 C 1.97557,5.9370725 2.0274385,5.7127951 1.9215356,5.5423725 1.8156328,5.3719498 1.5920619,5.3199175 1.4221761,5.426155 Z m 9.5237857,12.08662 v 0 l 0.798975,-0.33663 h 0.03995 c 0.27102,-0.117625 0.398761,-0.430868 0.287631,-0.70532 -0.0547,-0.132124 -0.159691,-0.236891 -0.291687,-0.29106 -0.131997,-0.05417 -0.280084,-0.05326 -0.411411,0.0025 l -0.878873,0.36869 c -0.171268,0.08161 -0.286125,0.248678 -0.301306,0.438274 -0.01518,0.189596 0.07162,0.372914 0.227708,0.4809 0.156087,0.107986 0.357746,0.124235 0.529014,0.04263 z M 18.44035,2.74113 c -0.03104,0.1276327 -0.0096,0.2624275 0.05957,0.3740038 0.06914,0.1115763 0.180133,0.1905445 0.307964,0.2191062 v 0 l 0.343559,0.08015 v 0 c 0.174123,0.04152 0.357099,-0.0133 0.480005,-0.1438102 0.122906,-0.1305106 0.167068,-0.3168839 0.115851,-0.488915 C 19.696078,2.6096337 19.557263,2.4780805 19.383141,2.43656 L 19.031592,2.364425 C 18.764638,2.3047235 18.499968,2.4733563 18.44035,2.74113 Z m 1.494084,-0.92974 v 0 l 0.255672,0.08015 v 0 C 20.367152,1.961323 20.568394,1.923241 20.707929,1.79355 20.847465,1.6638583 20.900646,1.4654679 20.844771,1.2830632 20.788896,1.1006584 20.633835,0.96646125 20.445778,0.937755 L 20.182116,0.86562 C 19.921772,0.7925817 19.651698,0.9450903 19.57889,1.2062575 19.50608,1.4674247 19.65811,1.7383517 19.918455,1.81139 Z m 0.711088,1.450715 c -0.06421,0.2618351 0.08136,0.5295492 0.33557,0.617155 v 0 l 0.335569,0.104195 v 0 c 0.273513,0.083373 0.562766,-0.070666 0.64717,-0.344645 0.03799,-0.2414224 -0.09909,-0.4762042 -0.32758,-0.56105 L 21.284702,2.973565 c -0.255393,-0.084297 -0.532695,0.040884 -0.63918,0.28854 z M 16.18724,2.42053 c -0.03296,0.2633436 0.152985,0.5036845 0.415467,0.537005 v 0 h 0.343559 v 0 C 17.122676,2.98948 17.302112,2.920022 17.411405,2.777484 17.520699,2.6349462 17.541585,2.4431479 17.465548,2.2803 17.389511,2.1174521 17.229257,2.0107676 17.050133,2.00375 L 16.690594,1.963675 C 16.562865,1.954905 16.437073,1.998627 16.342135,2.0847948 16.247195,2.1709618 16.191281,2.2921609 16.18724,2.42053 Z M 15.53208,0.99386 v 0 h 0.263662 v 0 C 16.046155,1.0125127 16.26582,0.8276959 16.291107,0.57708 16.302135,0.45452345 16.263413,0.33268599 16.183706,0.23914932 16.104,0.14561266 15.990049,0.08828707 15.86765,0.08015 h -0.271652 c -0.251519,-0.02213281 -0.473301,0.16446595 -0.495365,0.41678 -0.02206,0.25231405 0.163948,0.47479719 0.415468,0.49693 z m 2.25311,0.30457 v 0 l 0.263662,0.04809 v 0 c 0.258139,0.046479 0.504961,-0.1257661 0.551293,-0.38472 0.04633,-0.25895389 -0.12537,-0.5065561 -0.383508,-0.553035 l -0.279641,-0.04809 c -0.258138,-0.0420523 -0.501383,0.13378111 -0.543303,0.392735 -0.04192,0.2589539 0.133359,0.5029677 0.391497,0.54502 z m 4.314467,1.21828 v 0 l 0.247682,0.09618 v 0 c 0.171268,0.064428 0.36379,0.032304 0.505045,-0.084273 0.141255,-0.1165768 0.209782,-0.2998949 0.179769,-0.4809 C 23.00214,1.8667117 22.878146,1.7155184 22.706878,1.65109 L 22.443217,1.55491 c -0.252462,-0.065039 -0.513285,0.070827 -0.60548,0.315401 -0.0922,0.2445742 0.01375,0.5195721 0.245941,0.638384 z m 2.812393,2.4045 c -0.0716,0.1263438 -0.08994,0.2761431 -0.05093,0.4161108 0.03901,0.1399677 0.132126,0.2585095 0.258664,0.3292842 v 0 l 0.30361,0.168315 v 0 c 0.261849,0.1098596 0.564054,0.00233 0.69837,-0.2484962 C 26.25608,5.3355999 26.178606,5.0234633 25.942728,4.865105 L 25.615149,4.68076 C 25.486054,4.6139221 25.335653,4.601732 25.197537,4.6469123 25.059421,4.6920926 24.945094,4.7908795 24.880091,4.92121 Z M 22.834714,3.99147 c -0.117758,0.2700521 0.0035,0.5848473 0.271652,0.70532 v 0 l 0.31959,0.136255 v 0 c 0.177478,0.1409537 0.424152,0.1546847 0.616085,0.034294 C 24.233975,4.7469487 24.329675,4.5184641 24.281058,4.2966825 24.232441,4.0749009 24.050018,3.9077695 23.825444,3.87926 L 23.489874,3.743005 C 23.231476,3.6275416 22.928289,3.7371752 22.802755,3.99147 Z m 6.000305,4.1678 v 0 l 0.271652,0.216405 v 0 c 0.248347,0.184664 0.59658,0.1462373 0.798975,-0.088165 0.188188,-0.2480041 0.14954,-0.6004615 -0.08789,-0.8015 L 29.538117,7.253575 C 29.28977,7.068911 28.941537,7.1073376 28.739142,7.34174 c -0.100303,0.1166037 -0.149981,0.2685911 -0.137976,0.4221353 0.01201,0.1535442 0.0847,0.2959038 0.201894,0.3953947 z M 26.85356,6.035295 c -0.0902,0.1250776 -0.125038,0.2819121 -0.09631,0.4335743 0.02872,0.1516622 0.118475,0.28475 0.248118,0.3679257 v 0 l 0.287631,0.200375 v 0 c 0.16984,0.1131076 0.386932,0.1267282 0.569497,0.035731 0.182566,-0.090997 0.30287,-0.2727876 0.315596,-0.4768925 0.01272,-0.2041049 -0.08406,-0.3995158 -0.253903,-0.5126234 L 27.620577,5.88301 C 27.364522,5.7248805 27.030267,5.7912442 26.85356,6.035295 Z M 27.948156,5.73874 v 0 l 0.215724,0.1603 v 0 c 0.162704,0.1174028 0.375486,0.1388114 0.558191,0.056161 0.182706,-0.08265 0.307579,-0.2568021 0.32758,-0.456855 0.02,-0.2000528 -0.06791,-0.3956136 -0.230611,-0.5130164 L 28.595326,4.82503 C 28.346014,4.6413277 27.995454,4.6951542 27.812331,4.945255 27.629207,5.1953558 27.682864,5.5470227 27.932177,5.730725 Z M 24.121065,3.41439 v 0 l 0.239692,0.120225 v 0 c 0.124922,0.060201 0.268647,0.067816 0.399195,0.021152 C 24.8905,3.5091027 24.99704,3.4120304 25.055866,3.28615 25.181499,3.0227627 25.07064,2.7070718 24.808183,2.58083 L 24.560501,2.460605 c -0.258385,-0.121834 -0.566498,-0.015252 -0.695108,0.24045 -0.06236,0.1283136 -0.07038,0.2764628 -0.02223,0.4107937 0.04815,0.134331 0.148369,0.2434398 0.277901,0.3025413 z M 14.357586,2.7972363 v 0 h 0.35155 v 0 c 0.254229,1.453e-4 0.462777,-0.2019698 0.471395,-0.4568563 3.2e-4,-0.2564801 -0.200063,-0.4680762 -0.455416,-0.4809 h -0.367529 c -0.2485,-0.00453 -0.454726,0.1916508 -0.463405,0.440825 -0.0089,0.1287455 0.036,0.255397 0.12389,0.3496406 0.08789,0.094243 0.21087,0.1475967 0.339515,0.1472907 z M 26.086544,4.4884 v 0 l 0.231703,0.14427 v 0 C 26.574419,4.7498221 26.877429,4.654519 27.021069,4.4116177 27.164709,4.1687161 27.102825,3.8562668 26.87753,3.6869 L 26.629847,3.550645 c -0.25297,-0.1244175 -0.558776,-0.034206 -0.70434,0.2077762 -0.145564,0.2419826 -0.08258,0.5554407 0.145057,0.7219638 z m 3.603379,2.66098 0.199743,0.184345 v 0 c 0.239054,0.196687 0.589569,0.1720734 0.798976,-0.056105 0.20229,-0.2363541 0.181072,-0.5911058 -0.04794,-0.8015 L 30.448949,6.28376 C 30.210668,6.0624319 29.838646,6.0767856 29.618015,6.31582 29.397384,6.5548544 29.411692,6.9280519 29.649974,7.14938 Z M 6.6714439,10.443545 v 0 l 0.5353134,-0.24045 v 0 C 7.3775559,10.154714 7.503703,10.009636 7.5282853,9.8333138 7.5528677,9.6569919 7.4712377,9.4827623 7.320224,9.3892313 7.1692104,9.2957003 6.9773638,9.3005511 6.8312389,9.401595 L 6.279946,9.658075 c -0.2162778,0.1015985 -0.3120783,0.357874 -0.2157234,0.57708 0.049871,0.111272 0.1434808,0.196835 0.2585505,0.236326 0.1150697,0.03949 0.2413081,0.02938 0.3486708,-0.02794 z M 5.6008169,8.68826 v 0 L 6.0642226,8.47987 v 0 C 6.2848536,8.3780591 6.3814362,8.1161031 6.279946,7.894775 6.1784557,7.6734469 5.9173249,7.5765591 5.696694,7.67837 L 5.2252985,7.910805 C 5.0825754,7.973802 4.9841961,8.1083955 4.9672194,8.2638863 c -0.016977,0.1554908 0.050028,0.3082558 0.1757745,0.40075 0.1257465,0.092494 0.2911306,0.1106653 0.4338538,0.047669 z M 6.5995361,1.77933 6.8631979,1.707195 v 0 C 7.0699048,1.6487695 7.1911082,1.4342052 7.1348495,1.226295 7.0730185,1.0178399 6.8567313,0.89690538 6.6474746,0.953785 L 6.375823,1.033935 c -0.2034857,0.061877 -0.3205381,0.2753718 -0.2636618,0.4809 0.025571,0.102561 0.092926,0.1896229 0.1856183,0.2399265 0.092693,0.050304 0.2021907,0.059219 0.3017566,0.024568 z M 5.5209194,4.26398 v 0 L 5.8484993,4.143755 v 0 C 5.947977,4.1077922 6.0287231,4.032992 6.0723653,3.9363738 6.1160075,3.8397556 6.1188342,3.7295366 6.0802021,3.630795 6.0427592,3.5324589 5.9675317,3.4533176 5.8713956,3.4111252 5.7752596,3.3689328 5.6662632,3.3672214 5.5688579,3.406375 l -0.3355696,0.12824 c -0.1988747,0.07511 -0.3017084,0.2956561 -0.2317028,0.49693 0.035212,0.1059445 0.1137203,0.1918407 0.2158868,0.2362017 0.1021665,0.044361 0.2183279,0.042991 0.3194266,-0.00377 z m 4.3304462,11.485495 v 0 L 10.602402,15.43689 v 0 c 0.125717,-0.05446 0.224407,-0.157224 0.273967,-0.285281 0.04956,-0.128057 0.04585,-0.270705 -0.01031,-0.395994 -0.05262,-0.125556 -0.153582,-0.22446 -0.279953,-0.274263 -0.126372,-0.0498 -0.267441,-0.04628 -0.391186,0.0098 l -0.7989753,0.344645 c -0.1718606,0.06589 -0.2941901,0.220603 -0.3190357,0.403479 -0.024845,0.182877 0.051752,0.364782 0.199766,0.47441 0.1480142,0.109627 0.3438604,0.129509 0.5107676,0.05185 z M 8.804708,13.97816 v 0 l 0.679129,-0.296555 v 0 C 9.7309436,13.570941 9.8418348,13.280278 9.7315193,13.03239 9.6212039,12.784503 9.331456,12.673261 9.0843493,12.783925 l -0.711088,0.312585 c -0.2404492,0.11267 -0.3496686,0.395417 -0.2476824,0.6412 0.053385,0.126612 0.1574387,0.224828 0.2866649,0.270581 0.1292263,0.04575 0.2716833,0.03482 0.3924642,-0.03013 z M 13.59856,3.7670469 h -0.439437 c -0.255931,0.01107 -0.454462,0.22817 -0.443431,0.4849106 0.01103,0.2567406 0.227448,0.4558989 0.48338,0.4448325 v 0 h 0.423457 v 0 C 13.881018,4.6796291 14.079156,4.4595685 14.069955,4.19986 14.049151,3.9544592 13.844069,3.7661641 13.59856,3.7670469 Z M 7.734081,12.21486 v 0 l 0.6072213,-0.264495 v 0 C 8.5281514,11.825358 8.6011391,11.585472 8.5157238,11.377102 8.4303085,11.168731 8.210213,11.049746 7.9897531,11.09276 L 7.3585626,11.3813 c -0.2262475,0.108502 -0.3254061,0.377865 -0.2237586,0.607837 0.1016475,0.229972 0.3672169,0.337105 0.599277,0.241753 z m 3.307758,-11.221 v 0 h 0.263662 v 0 C 11.418008,0.983719 11.521814,0.9289044 11.593834,0.84160502 11.665854,0.75430562 11.700119,0.64175843 11.689014,0.52899 11.663814,0.29606378 11.458418,0.12554666 11.225608,0.14427 h -0.279641 c -0.216952,0.0330071 -0.37091,0.22957227 -0.351549,0.44884 0.02115,0.22838485 0.219205,0.39868612 0.447426,0.38472 z M 9.3959497,2.749145 c 0.040749,0.2312665 0.2550806,0.38988 0.4873749,0.360675 v 0 L 10.234874,3.07776 v 0 C 10.354059,3.058513 10.460102,2.990928 10.528107,2.8908712 10.596117,2.7908145 10.620087,2.6670992 10.594417,2.54877 10.574987,2.436808 10.511647,2.3373235 10.41856,2.272557 10.32547,2.207791 10.210392,2.183143 10.099052,2.204125 L 9.7474988,2.27626 C 9.524797,2.3169647 9.3713233,2.5234092 9.3959497,2.749145 Z M 6.7433516,5.105555 6.3278845,5.25784 C 6.1183139,5.340129 6.0095183,5.5724902 6.0802021,5.78683 c 0.07549,0.2123079 0.3055669,0.3259342 0.519334,0.25648 v 0 L 7.0070135,5.89904 v 0 C 7.2276444,5.8193619 7.3421127,5.5753481 7.2626856,5.35402 7.1832585,5.1326919 6.9400133,5.0178619 6.7193824,5.09754 Z m 5.3771044,-2.26023 v 0 h 0.343559 v 0 C 12.708228,2.824065 12.88992,2.6096348 12.871492,2.364425 12.863394,2.2458813 12.807934,2.1356371 12.717685,2.0586823 12.627435,1.9817276 12.510039,1.94458 12.392107,1.95566 h -0.359539 c -0.240899,0.02126 -0.421363,0.230692 -0.407477,0.472885 0.0057,0.1230893 0.06247,0.2381736 0.156578,0.3173571 0.09411,0.079184 0.216969,0.1152376 0.338787,0.099423 z m -4.4343135,0.73738 v 0 L 8.0297019,3.49454 v 0 C 8.2461422,3.4322284 8.3737034,3.208291 8.317333,2.989595 8.2893098,2.8840039 8.2203103,2.7940635 8.1257369,2.7398508 8.0311635,2.6856381 7.91889,2.6716665 7.8139786,2.701055 l -0.3595389,0.09618 c -0.2153427,0.058692 -0.343568,0.2802227 -0.2876311,0.49693 0.029702,0.1080125 0.1015057,0.1994786 0.1992145,0.2537652 0.097709,0.054287 0.2130913,0.066821 0.3201194,0.034775 z m 1.1265552,-2.30832 h 0.2636619 v 0 C 9.1816731,1.2549954 9.2748195,1.1940077 9.3349041,1.1051028 9.3949887,1.016198 9.4169818,0.90681829 9.3959497,0.8015 9.3554525,0.58067768 9.1449859,0.43395905 8.9245543,0.472885 L 8.6449129,0.52899 c -0.2168835,0.0443854 -0.358779,0.25434263 -0.3195901,0.472885 0.061831,0.2084551 0.2781183,0.3293896 0.4873749,0.27251 z"
           id="path33"
           fill="url(#radialGradient-1)"
           style="fill:#ffffff;fill-opacity:1" />
      </g>
    </g>
  </g>
  <metadata
     id="metadata33">
    <rdf:RDF>
      <cc:Work
         rdf:about="">
        <dc:title>DSI_Logo_Color 2@1x</dc:title>
      </cc:Work>
    </rdf:RDF>
  </metadata>
</svg>
