<?xml version="1.0" encoding="UTF-8" standalone="no"?>
<!-- Generator: Adobe Illustrator 24.3.0, SVG Export Plug-In . SVG Version: 6.00 Build 0)  -->

<svg
   version="1.1"
   x="0px"
   y="0px"
   viewBox="0 0 434.44 134.64"
   xml:space="preserve"
   id="svg4"
   sodipodi:docname="uchicago-logo-long.svg"
   width="434.44"
   height="134.64"
   inkscape:version="1.4 (e7c3feb1, 2024-10-09)"
   inkscape:export-filename="uchicago-logo-long.png"
   inkscape:export-xdpi="179.03999"
   inkscape:export-ydpi="179.03999"
   xmlns:inkscape="http://www.inkscape.org/namespaces/inkscape"
   xmlns:sodipodi="http://sodipodi.sourceforge.net/DTD/sodipodi-0.dtd"
   xmlns="http://www.w3.org/2000/svg"
   xmlns:svg="http://www.w3.org/2000/svg"><defs
   id="defs4" /><sodipodi:namedview
   id="namedview4"
   pagecolor="#070954"
   bordercolor="#000000"
   borderopacity="0.25"
   inkscape:showpageshadow="2"
   inkscape:pageopacity="0.0"
   inkscape:pagecheckerboard="0"
   inkscape:deskcolor="#d1d1d1"
   inkscape:zoom="1.7340039"
   inkscape:cx="243.65574"
   inkscape:cy="-8.6504996"
   inkscape:window-width="1552"
   inkscape:window-height="1039"
   inkscape:window-x="4072"
   inkscape:window-y="25"
   inkscape:window-maximized="0"
   inkscape:current-layer="svg4" />
<style
   type="text/css"
   id="style1">
	.st0{display:none;}
	.st1{display:inline;}
	.st2{display:inline;fill:#800000;}
	.st3{fill:#800000;}
	.st4{fill:#737373;}
	.st5{fill:#FFFFFF;}
</style>
<g
   id="DOES_NOT_PRINT"
   class="st0">
	<rect
   y="0"
   class="st1"
   width="487.03"
   height="169.64"
   id="rect1"
   x="0" />
</g>
<g
   id="Logo"
   transform="matrix(0.94263631,0,0,0.94263631,-15.894831,-9.5515131)">
	<g
   id="g2">
		<g
   id="g1">
			<path
   class="st5"
   d="m 56.66,103.1 c -0.62,-0.27 -1.3,-0.44 -1.88,-0.83 0.41,1.37 0.7,2.56 1.46,4 0.44,0.83 1.19,-1.16 0.42,-3.17 m -1.89,-22.95 0.05,0.05 c -0.01,1.85 -5.22,4.51 -7.45,5.71 3.45,1.19 6.71,-2.01 6.32,-1.23 -0.47,0.91 -4.68,4.54 -6.51,6.48 1.43,0.4 2.74,-0.76 3.78,-1.64 1.13,-0.96 3.02,-3.38 2.74,-2.18 -3.06,3.78 -5.47,11.62 -3.98,12.12 0.85,-1.78 4.37,-10.84 4.59,-10.8 0.23,0.04 -0.28,2.39 -0.35,3.95 -0.17,3.42 -0.2,5.03 0.54,8.4 0.38,-0.52 0.75,-0.51 1.35,-0.47 0.07,-0.33 0.05,-0.24 -0.33,-0.74 -0.98,-1.3 0.15,-3.06 -0.32,-4.14 -0.39,-0.9 -0.61,-0.18 -0.79,-1.12 0.28,-0.25 1,-0.33 1.3,-0.37 0.32,-3.51 1.49,-5.29 1.05,-3.08 -0.22,1.12 -0.57,2.98 -0.4,3.03 0.16,0.05 0.18,0.05 0.32,0.13 0.06,0.03 5.89,-9.56 2.66,-2.91 -0.42,0.87 -2.15,3.22 -2.15,3.22 0.45,0.46 0.88,1.01 0.94,1.34 0.01,0.09 7.81,-10.26 2.5,-1.92 -0.33,0.51 -1.92,2.22 -2.33,2.72 -0.05,0.07 0.15,1.94 0.15,1.94 0.81,-0.56 1.97,-1.69 2.51,-2.42 -0.07,-1.06 0.18,-0.92 0.23,-1.95 0.25,-0.16 0.57,0.28 0.96,0.63 0.18,0.17 5.35,-8.83 2.11,-2.08 -0.52,1.08 -1.67,2.37 -1.72,2.47 0.22,0.23 0.54,0.97 0.91,1.84 0.02,0.03 6.91,-9.95 2.72,-2.41 -0.33,0.59 -2.41,3.09 -2.38,3.16 0.51,1.25 0.96,2.46 0.95,2.46 -0.13,-0.97 -0.32,-2.89 1.69,-4.47 0.26,1.73 0.73,1.8 1.33,2.33 0.26,0.23 0.76,1.22 0.82,0.38 0.17,-2.46 -0.63,-2.4 -1.22,-3.45 -0.14,-0.25 -0.12,-0.81 0,-0.78 4.97,0.15 4.8,4.8 5.63,4.8 -0.38,-1.19 -0.48,-2.35 -0.03,-3.31 -1.33,-0.94 -1,-2.56 -0.74,-3.26 -1.5,-1.55 -0.64,-4.84 0.08,-5.53 -0.96,-1.4 0.22,-2.35 -0.03,-3.21 -0.4,-3.04 -3.11,-2.13 -3.72,-5.02 -0.42,0.51 -1.21,2.27 -0.84,2.85 0.42,0.67 1.33,0.72 1.38,1.21 0.02,0.21 0.09,0.79 -0.06,0.91 -0.51,0.09 -0.86,-0.38 -1.39,-0.59 -1.05,-0.42 -3.6,1.33 -3.75,-0.21 -0.1,-0.97 0.33,-0.27 0.28,-1.17 -0.04,-0.93 -0.51,-0.27 -0.52,-1.47 0,-0.87 1.05,-1.15 1.13,-1.5 0.19,-0.87 1.76,1.28 2.69,-1 -0.54,0.08 -1.62,-0.3 -1.52,-0.83 0.27,-1.42 0.3,-4.86 -2.92,-4.12 -1.15,0.27 -4.37,1.96 -4.82,0.12 -1.16,2.05 1.13,1.69 1.83,1.65 -0.27,0.19 -0.62,0.5 -1.47,0.32 -1.81,1.19 -8.43,5.4 -10.35,6.46 2.54,1.19 6.49,-1.3 6.55,-1.3 m 6.22,17.01 c -0.9,0.9 -1.21,0.92 -1.16,1.31 0.2,0.55 0.6,0.93 1.02,1.4 0.53,0.43 0.73,0.82 0.34,-0.44 C 60.94,98.59 61,97.98 60.99,97.16 M 75.44,77.54 c -0.16,-0.36 -0.43,-0.7 -0.82,-0.88 -1.61,-0.77 -4.69,0.89 -4.66,-1.52 0,0 -1.1,0.82 -0.6,1.68 1.15,1.96 4.35,-0.47 6.08,0.72 M 51.22,53.43 c -2.69,0 -2.75,4.13 0,4.13 2.71,-0.01 2.71,-4.13 0,-4.13 m 0,8.24 c -2.82,0 -2.82,4.13 0,4.13 2.73,-0.01 2.71,-4.13 0,-4.13 m 2.83,-4.78 h 2.4 v -2.36 h -2.4 z m 0,8.22 h 2.4 v -2.36 h -2.4 z m 6.54,-2.58 c -1.08,0.66 -0.89,1.39 -0.53,1.84 0.2,-0.14 0.89,-0.61 1.17,-0.89 -0.16,-0.1 -0.53,-0.65 -0.64,-0.95 m 2.49,-3.65 c -0.01,-0.23 -0.01,-0.44 -0.03,-0.56 0.03,-0.21 -0.37,-0.7 -0.48,-0.71 -0.13,0 -0.4,0.24 -0.55,0.48 -0.08,0.14 -0.09,0.51 0.08,0.71 0.33,0.4 0.48,0.41 0.98,0.08 m 0.01,1.17 c 0,-0.09 0,-0.17 0,-0.27 0,-0.1 0,-0.38 0,-0.67 -0.34,0.21 -0.47,0.37 -0.82,0.16 -0.57,0.46 0.3,0.74 0.48,0.89 0.13,-0.07 0.24,-0.09 0.34,-0.11 m 4.38,-6.62 c 0.19,-0.14 0.64,-0.65 0.94,-0.94 -0.17,-0.1 -0.46,-0.31 -0.58,-0.59 -0.52,0.41 -0.62,0.7 -0.36,1.53 m 3.83,0.5 c -0.32,0.25 -0.6,0.47 -0.75,0.6 0.11,0.22 0.85,0.75 1.26,0.56 0.4,-0.19 0.6,-0.59 0.22,-0.8 -0.26,-0.15 -0.5,-0.26 -0.73,-0.36 m 0.31,-0.64 c 0.19,-0.15 0.37,-0.29 0.43,-0.34 -0.28,-0.26 -0.76,-0.52 -0.98,-0.55 -0.21,-0.02 -0.64,0.16 -0.48,0.38 0.16,0.21 0.33,0.48 0.68,0.53 0.13,0.01 0.24,0 0.35,-0.02 m 1.13,10.66 c 0.02,-0.28 0.03,-0.57 0.01,-0.72 0.03,-0.21 -0.63,-0.62 -0.74,-0.62 -0.14,0 -0.14,0.07 -0.3,0.33 -0.08,0.13 -0.01,0.54 0.05,0.6 0.36,0.32 0.65,0.42 0.98,0.41 m -0.88,0.06 c -0.57,0.48 0.07,0.92 0.25,1.07 0.19,-0.1 0.45,-0.14 0.64,-0.21 -0.03,-0.08 -0.06,-0.15 -0.06,-0.24 0,-0.09 0.01,-0.28 0.03,-0.48 -0.38,0.04 -0.56,0.07 -0.86,-0.14 m -1.27,0.75 -0.35,0.39 -0.34,0.34 C 69.64,65.22 69.45,65.17 69.41,64.96 L 69.4,63.25 68.87,62.97 c -0.25,0.21 -0.44,0.12 -0.22,-0.07 l 0.81,-0.76 0.2,-0.03 0.52,0.76 0.01,1.62 c 0.19,0.2 0.01,0.2 0.4,0.27 m -0.17,-5.24 c -0.27,-0.76 0.22,-1.46 0.46,-1.67 0.19,-0.16 0.64,-0.54 0.93,-0.73 0.28,0.17 0.5,0.29 0.64,0.36 -0.05,0.14 -0.11,0.41 -0.41,0.43 -0.45,0.01 -0.8,-0.11 -1.04,0.16 -0.24,0.26 -0.05,1 0.25,1.28 0.23,0.22 0.85,0.49 0.96,0.24 0.15,-0.33 0.37,-0.16 0.16,0.13 -0.15,0.19 -0.41,0.59 -0.55,0.86 -0.49,-0.03 -1.13,-0.28 -1.4,-1.06 m 0.66,5.33 c 0,-0.42 0.21,-0.75 0.51,-1.06 -0.02,-0.02 -0.03,-0.03 -0.05,-0.04 -0.08,-0.07 -0.22,-0.81 -0.12,-0.96 0.14,-0.2 0.79,-0.83 1.23,-0.87 0.3,-0.03 0.75,0.62 1.01,0.91 -0.07,0.08 0.09,1.88 0.09,2.05 0.09,0.15 0.4,0.25 0.5,0.11 0.12,-0.16 0.24,0.01 0.12,0.13 -0.12,0.11 -0.57,0.47 -0.71,0.64 -0.2,-0.16 -0.54,-0.33 -0.76,-0.6 -0.45,0.08 -0.91,0.41 -1.27,0.67 -0.4,-0.18 -0.54,-0.58 -0.55,-0.98 m 3.63,-4.56 -0.36,0.39 -0.46,0.39 C 73.63,60.8 73.45,60.73 73.4,60.52 L 73.38,58.76 72.96,58.5 c -0.24,0.22 -0.44,0.12 -0.22,-0.07 l 0.81,-0.75 0.19,-0.03 0.35,0.52 -0.02,1.87 c 0.24,0.2 0.24,0.18 0.64,0.25 m -0.44,-5.76 c -0.98,-0.1 -0.72,-0.41 -0.56,-0.4 0.92,0.06 0.71,0.42 0.56,0.4 m 0.02,-0.58 c -0.98,0.04 -0.72,-0.41 -0.56,-0.4 0.82,0.05 0.71,0.39 0.56,0.4 m -0.79,2.1 0.42,0.43 v 0.45 l -0.31,0.28 h -0.26 l -0.26,-0.26 -0.01,-0.52 z m -0.44,-3.56 c -0.1,0.12 -0.48,0.43 -0.92,0.78 0.07,0.01 0.13,0.02 0.2,0.07 0.71,0.41 0.95,1 0.26,1.55 -0.38,0.31 -1,0.65 -1.67,0.67 -0.44,0.01 -1.23,-0.36 -1.38,-0.52 0.36,-0.34 0.75,-0.71 1.03,-0.95 -0.44,-0.34 -0.85,-0.79 -0.51,-1.31 0.25,-0.39 1.03,-1.02 1.72,-0.99 0.68,0.03 0.99,0.5 1.27,0.7 m -3.69,2.27 c -0.19,0.1 -0.58,0.5 -0.89,0.5 -0.93,-0.04 -2.1,-0.71 -1.93,-1.96 0.18,-1.3 1.21,-1.8 1.65,-1.81 0.5,0.04 0.62,0.47 0.91,0.73 -0.43,0.35 -1.13,1.05 -1.55,1.47 0.1,0.22 0.58,1.04 1.61,0.78 0.45,-0.11 0.61,0.09 0.2,0.29 m -3.08,-2.07 c -0.17,0.17 -0.56,0.41 -0.71,0.53 -0.2,-0.12 -0.44,-0.47 -0.57,-0.57 -0.06,0.05 -0.17,0.11 -0.28,0.18 0,0.23 0.01,2.35 -0.01,2.59 -0.3,0.02 -0.56,0.04 -0.77,-0.01 -0.02,-0.31 0.02,-2 0.01,-2.27 -0.02,-0.34 -0.32,-0.36 -0.71,-0.47 0.22,-0.27 0.64,-0.57 0.82,-0.72 0.34,0.26 0.55,0.26 0.71,0.46 0.22,-0.12 0.6,-0.35 0.77,-0.49 0.16,0.19 0.46,0.49 0.57,0.63 0.15,-0.16 0.34,-0.03 0.17,0.14 m -3.24,4.38 c 0.3,-0.03 0.55,0.57 0.81,0.86 -0.08,0.08 -0.08,1.87 -0.08,2.04 0.06,0.1 0.27,0.22 0.36,0.14 0.14,-0.14 0.24,0 0.11,0.12 -0.11,0.11 -0.7,0.62 -0.85,0.78 -0.2,-0.16 -0.28,-0.38 -0.31,-0.7 -0.36,0.08 -0.69,0.28 -0.91,0.61 -0.4,-0.18 -0.71,-0.53 -0.72,-0.92 -0.01,-0.41 0.27,-0.64 0.56,-0.91 -0.05,-0.04 -0.1,-0.07 -0.15,-0.13 -0.08,-0.07 -0.19,-0.72 -0.11,-0.9 0.2,-0.43 0.84,-0.95 1.29,-0.99 m -0.59,-0.95 c -0.13,-0.19 -0.16,-0.36 -0.44,-0.29 -0.68,0.2 -1.43,0.4 -1.98,0.08 -0.58,-0.36 -1.08,-0.47 -1.09,-1.79 -0.01,-0.8 0.7,-1.44 1.16,-1.71 0.53,-0.3 1.43,-0.11 1.84,0.01 0.2,0.06 0.35,0.04 0.36,-0.22 0,-0.14 0.22,-0.11 0.22,0 0,0.11 -0.01,1.74 -0.01,1.87 0,0.13 -0.27,0.14 -0.26,0.02 0,-0.18 -0.06,-0.54 -0.12,-0.82 -0.09,-0.43 -1.21,-1.22 -2.02,-0.16 -0.02,0.05 -0.35,0.61 -0.3,1.04 0.03,0.32 0.08,0.77 0.29,1.07 0.63,0.9 1.54,0.6 2.01,-0.14 0.17,-0.27 0.14,-0.59 0.16,-0.78 0,-0.11 0.25,-0.13 0.25,0 0,0.13 -0.01,1.21 -0.01,1.32 0,0.16 0.12,0.28 0.18,0.36 0.16,0.25 -0.02,0.44 -0.24,0.14 m -3.42,1.73 c 0.32,-0.47 1.06,-0.92 1.56,-1.1 0.16,0.19 0.35,0.48 0.59,0.79 -0.24,0.19 -0.48,0.43 -0.62,0.59 -0.11,-0.12 -0.71,-1.03 -1.14,-0.39 -0.23,0.34 -0.48,1.32 0.31,1.93 0.38,0.29 0.79,0.38 1.31,0.3 -0.27,0.35 -0.33,0.45 -0.48,0.75 -0.76,0.14 -1.07,-0.11 -1.44,-0.42 -0.8,-0.64 -0.55,-1.75 -0.09,-2.45 m 0.32,6.05 c 0.19,-1.31 1.46,-1.84 1.84,-2.1 0.07,0.38 0.51,1.04 0.79,1.31 -0.43,0.35 -1.42,1.18 -1.79,1.46 0.21,0.38 0.99,0.65 1.25,0.36 0.19,-0.19 0.43,-0.13 0.22,0.13 -0.29,0.33 -0.58,0.8 -0.72,1.09 -0.57,-0.25 -1.76,-1 -1.59,-2.25 m 3.02,-1.09 c 0.36,-0.28 0.55,-0.5 0.8,-0.73 0.21,0.34 0.31,0.66 0.5,0.8 0.26,-0.22 0.68,-0.49 0.88,-0.7 0.19,0.09 0.52,0.29 0.54,0.96 0.01,0.67 0.11,1.71 0.11,1.95 0,0.12 0.03,0.09 0.23,0.04 0.18,-0.05 0.25,0.04 0.11,0.16 -0.14,0.12 -0.8,0.57 -0.98,0.77 -0.23,-0.43 -0.27,-0.74 -0.18,-1.17 0.08,-0.35 0.01,-1.3 0.01,-1.52 0,-0.22 -0.33,-0.29 -0.47,-0.41 -0.19,0.14 -0.22,0.17 -0.39,0.33 0,0.29 -0.04,2.3 0.01,2.56 -0.45,0.02 -0.41,-0.01 -0.67,-0.01 -0.02,-0.39 -0.01,-1.93 -0.03,-2.27 -0.02,-0.33 -0.3,-0.57 -0.47,-0.76 m 3.49,-2.35 c -0.19,0.17 -0.62,-0.1 -0.77,-0.36 -0.24,-0.41 -0.17,-1.38 -0.13,-2.17 0.03,0 -0.14,-0.19 -0.3,-0.23 -0.21,-0.05 -0.24,-0.13 0.08,-0.26 0.39,-0.16 1.01,-1.1 1.09,-1.32 0.08,-0.21 0.19,-0.01 0.08,0.19 -0.24,0.47 -0.14,1.01 -0.1,1.18 0.03,0.07 0.77,-0.03 0.93,-0.03 0.1,0.01 0.09,0.32 0,0.31 -0.13,0 -1.1,0.12 -1.1,0.12 -0.07,0.03 0.08,1.57 0.18,1.68 0.01,0.02 0.32,0.28 0.44,0.17 0.15,-0.14 0.29,0.01 0.12,0.15 -0.12,0.08 -0.29,0.39 -0.52,0.57 m 0.41,2.29 c 0.3,-0.22 0.81,-1.16 0.88,-1.38 0.06,-0.22 0.19,-0.14 0.17,0.09 -0.03,0.33 -0.18,1.08 -0.12,1.23 0.03,0.07 0.5,0.07 0.66,0.07 0.1,0 0.11,0.31 0.01,0.31 -0.13,0 -0.66,0.08 -0.66,0.08 -0.07,0.03 -0.04,1.14 0.07,1.25 0.21,0.2 0.38,0.34 0.67,0.04 0.14,-0.14 0.29,-0.01 0.12,0.14 -0.09,0.08 -0.49,0.57 -0.58,0.81 -0.09,0.24 -0.62,0.06 -0.79,-0.19 -0.27,-0.4 -0.15,-1.21 -0.17,-2 0.04,0.01 -0.51,-0.25 -0.26,-0.45 m 3.61,-1.46 c -0.25,0.23 -0.44,0.45 -0.65,0.69 -0.19,-0.12 -0.47,-0.36 -0.68,-0.55 0.35,-0.16 0.55,-0.38 0.67,-0.62 0.14,0.31 0.42,0.43 0.66,0.48 m -1.62,-3.9 c 0.57,0.18 1.41,0.05 1.67,0.8 0.28,0.79 -0.23,1.81 -0.89,1.86 -0.55,0.05 -1.05,-0.14 -1.36,-0.11 -0.14,0.01 -0.25,0.06 -0.27,0.21 -0.02,0.17 -0.24,0.24 -0.28,0.02 -0.05,-0.21 -0.11,-1.12 -0.11,-1.38 0,-0.26 0.24,-0.29 0.29,0 0.05,0.28 0.13,0.48 0.35,0.73 0.17,0.19 1.25,0.46 1.65,0.14 0.32,-0.26 0.25,-0.82 -0.09,-1.04 -0.33,-0.22 -1.68,-0.53 -1.91,-0.92 -0.39,-0.66 0.31,-1.2 0.61,-1.38 0.48,-0.27 1.04,-0.18 1.23,-0.18 0.19,0 0.44,0.06 0.45,-0.14 0.01,-0.2 0.17,-0.18 0.19,0.03 0.06,0.59 0.12,0.23 0.1,0.86 0,0.29 -0.1,0.29 -0.22,0.07 -0.08,-0.14 -0.91,-0.84 -1.57,-0.41 -0.57,0.37 -0.36,0.7 0.16,0.84 m 2.1,10.23 c 2.95,0.2 5.46,1.56 5.46,1.56 V 50.17 c 0,0 -4.33,-3.03 -11.38,-0.32 -2.07,0.8 -7.11,0.13 -7.11,0.13 v 19.43 c 4.42,0.3 10.18,-1.98 13.03,-1.79 m 6.94,6.25 c 0,0.25 -0.32,0.61 -0.32,0.61 l 1.17,-0.59 c -0.24,-0.16 -0.9,-0.53 -1.17,-0.61 -0.01,0 0.32,0.25 0.32,0.59 m 1.75,-0.02 c -1.08,0.21 -1.89,1.39 -3.12,0.89 -0.16,-0.11 -0.49,-0.19 -0.45,-0.44 0.22,0.13 0.57,0.21 0.81,0.24 0,0 -0.66,-0.55 -0.08,-1.22 -0.74,0.47 -1,0.34 -1,0.09 0,-0.11 0.97,-0.82 1.89,-0.47 0.66,0.25 1.23,0.76 1.96,0.86 v 0.05 z m -3.03,-2.23 c -0.61,0.07 -1.35,0.43 -1.53,1.07 -0.37,0.37 -0.35,-0.62 -1.11,-0.19 -0.32,0.43 0.52,1.39 0.32,1.45 -0.82,0.25 -0.72,-1.23 -1.18,-1.27 -0.67,0.24 -2.37,1.79 -0.7,3.02 -0.05,-0.83 1.52,-1.73 2.04,0.1 1.58,-0.12 2.11,0.84 2.3,1.38 2.32,0.41 1.65,1.95 1.59,1.95 -0.22,-0.33 -1.22,-1.87 -2.85,-0.81 -0.38,0.25 -1.03,0.49 -1.36,0.16 0.03,0.52 0.68,0.98 1.13,0.86 1.45,-0.4 1.82,0.95 0.71,1.32 0.24,0.37 0.7,0.35 1.12,0.09 0.62,-0.38 0.7,-0.72 0.92,-0.95 0.4,1.89 -2,2.08 -2.77,2.19 0.12,0.4 0.38,0.49 0.86,0.63 -2.53,0.09 -3.03,2.46 -2.88,3.83 0.57,0.04 1.45,-1.2 1.37,-0.49 -1.79,1.9 -2.4,4.45 -1.45,6.07 0.45,-0.18 0.59,-0.68 0.75,-1.08 0.07,-0.05 0.99,0.36 -0.48,2.12 -0.1,0.46 -0.62,1.84 0.51,2.17 0.43,-0.51 0.37,-0.95 0.46,-1.48 0.33,-0.13 0.55,0.93 0.42,1.26 -1.48,0.61 -1.29,5.14 0.42,7.58 -0.79,-1.77 -0.69,-4.04 0,-5.86 0.53,-1.4 1.69,-4.55 1.72,-4.51 0.66,0.81 1.49,4.28 1.49,5.72 0.92,-0.8 1.1,-1.68 1.86,-2.28 0.36,1.26 0.5,2.09 0.79,3.21 0.37,-1.09 1.34,-2.32 -0.05,-5.84 0.29,-0.26 0.81,1.22 0.98,1.15 0.13,-0.05 0.32,-0.79 -0.16,-2.17 -0.97,-0.91 -1.19,-2.25 -1.04,-2.35 0.12,-0.08 0.56,1.38 1.08,1.46 0.1,-1.14 0.38,-2.3 0.3,-3.19 -0.02,-0.23 -0.4,-1.41 -1.48,-2.38 -0.62,-0.56 -0.86,-1.74 -0.81,-1.97 0.6,0.56 0.47,0.96 0.98,1.19 0.21,-0.48 0.07,-2.25 -0.55,-3.02 -0.36,-0.59 -0.19,-0.51 0.24,-0.15 0.56,0.66 0.29,0.61 0.77,0.88 1.05,-2.48 0.1,-2.96 0.17,-3.14 0.07,-0.16 0.81,1.16 1.45,0.65 -1.04,-0.55 -1.01,-1.38 -1.12,-2.27 -0.09,-0.71 -0.55,-0.97 -0.37,-1.15 1.03,0.78 1.32,-0.08 1.35,-0.26 -0.2,0.11 -1.12,0.23 -1.23,-1.19 -0.04,-0.56 -0.91,-0.81 -0.91,-0.81 0.53,-0.1 2.23,-0.2 1.83,-1.88 -0.21,0.4 -0.71,1.03 -1.77,0.78 0,0 0.68,-0.18 0.56,-0.92 -1.66,0.95 -2.99,-0.92 -4.69,-0.68 M 90.47,54.1 c 0.27,0.23 1.02,0.58 1.4,0.71 0,-0.32 0,-0.64 -0.03,-0.79 0.02,-0.22 -0.74,-0.62 -0.86,-0.62 -0.14,-0.01 -0.33,0.22 -0.51,0.47 -0.08,0.14 -0.07,0.18 0,0.23 m 0.79,2.04 c 0.25,-0.12 0.43,-0.17 0.62,-0.18 -0.01,-0.1 -0.02,-0.2 -0.02,-0.32 0,-0.09 0.01,-0.36 0.01,-0.65 -0.34,-0.11 -0.76,-0.29 -1.13,-0.49 0.05,0.03 0.11,0.06 0.17,0.09 -0.4,0.73 0.14,1.39 0.35,1.55 m 0.02,4.01 c 0.17,0.43 0.89,0.99 1.09,1.09 0.3,-0.36 0.47,-1.03 0.4,-1.59 -0.05,-0.43 -0.61,-0.91 -1.09,-1.08 -0.62,0.36 -0.62,1 -0.4,1.58 m -9.67,4.07 c -0.36,0.68 -0.06,0.82 0.14,0.99 0.25,-0.13 0.48,-0.24 0.66,-0.37 0,-0.12 0.01,-0.35 0.01,-0.61 -0.42,0.04 -0.55,0.13 -0.81,-0.01 m 0.8,-0.19 c 0,-0.31 0,-0.61 -0.03,-0.75 0.02,-0.22 -0.45,-0.55 -0.58,-0.56 -0.14,0 -0.24,0.05 -0.42,0.31 -0.08,0.14 -0.06,0.68 0.01,0.74 0.41,0.34 0.67,0.3 1.02,0.26 m 0.6,1.75 c -0.26,-0.2 -0.48,-0.25 -0.57,-0.56 -0.67,0.26 -0.93,0.65 -1.33,0.93 -0.24,-0.22 -0.43,-0.61 -0.44,-1.02 -0.01,-0.4 0.39,-0.94 0.61,-1.15 -0.03,-0.02 -0.04,-0.03 -0.07,-0.06 -0.09,-0.07 -0.21,-0.66 -0.09,-0.82 0.15,-0.21 0.75,-1.03 1.22,-1.07 0.32,-0.03 0.58,0.37 0.85,0.67 -0.07,0.08 -0.04,1.51 -0.05,1.69 0.3,0.32 0.42,0.4 0.6,0.28 0.18,-0.12 0.25,0 0.13,0.12 -0.13,0.12 -0.7,0.82 -0.86,0.99 m 1.63,-2.85 c 0.05,0.01 -0.66,-0.27 -0.36,-0.42 0.54,-0.26 1.06,-0.82 1.15,-1.05 0.08,-0.21 0.29,-0.12 0.18,0.1 -0.1,0.22 -0.18,0.75 -0.12,0.92 0.02,0.07 0.43,0.11 0.61,0.11 0.1,0 0.1,0.32 -0.01,0.32 -0.13,0 -0.64,0.01 -0.64,0.01 -0.07,0.04 -0.02,1.8 0.02,1.95 0.06,0.15 0.47,0.25 0.63,0.1 0.15,-0.14 0.31,0 0.13,0.14 -0.1,0.08 -0.42,0.58 -0.67,0.68 -0.26,0.1 -0.65,-0.07 -0.82,-0.32 -0.27,-0.42 -0.11,-1.74 -0.1,-2.54 m 1.19,-2.41 c -0.31,-0.17 -0.73,-0.58 -0.95,-0.91 -0.41,0.52 -0.51,0.97 -1.25,1.16 0.43,-0.36 0.83,-1.16 0.8,-1.93 -0.03,-0.69 -0.41,-1.03 -0.74,-1.15 -0.28,0.14 -0.53,0.32 -0.68,0.39 -0.16,0.06 -0.2,-0.18 -0.09,-0.24 0.36,-0.18 1.16,-0.79 1.27,-0.9 0.34,0.06 0.76,0.35 0.82,0.63 0.26,-0.16 0.71,-0.65 0.85,-0.76 0.16,0.27 0.61,0.6 1.12,0.79 -0.47,0.79 -1.5,0.32 -1.65,0.12 -0.17,0.28 -0.21,0.44 -0.04,0.8 0.21,0.47 1.06,0.92 1.5,1.04 -0.13,0.13 -0.74,0.82 -0.96,0.96 m 0.71,2.82 c 0.31,-0.34 0.64,-0.56 0.83,-0.76 0.33,0.24 0.43,0.39 0.61,0.67 -0.01,0.44 -0.1,1.36 -0.07,1.69 0.02,0.31 1.27,0.53 1.33,0.06 0.06,-0.46 0.02,-1.06 0,-1.33 -0.02,-0.21 -0.52,-0.31 -0.77,-0.28 0.34,-0.35 0.62,-0.61 0.84,-0.81 0.3,0.23 0.6,0.55 0.78,0.82 -0.01,0.47 -0.09,1.57 -0.02,1.86 0.08,0.3 0.05,0.32 0.28,0.47 -0.23,0.22 -0.4,0.31 -0.56,0.48 -0.24,-0.07 -0.64,-0.42 -0.61,-0.74 -0.29,0.2 -1.13,0.55 -1.44,0.63 -0.31,-0.32 -0.54,-0.4 -0.56,-0.78 -0.02,-0.4 0.09,-1.42 -0.04,-1.67 -0.13,-0.24 -0.34,-0.29 -0.6,-0.31 m 3.98,-3.29 c 0.03,-1 0.69,-1.85 1.77,-2.23 0.85,0.28 1.2,1.14 1.23,1.72 0.02,0.47 -0.29,1.09 -0.5,1.47 -0.33,0.22 -0.67,0.54 -0.99,0.85 C 91,61.85 90.5,60.64 90.52,60.05 m 0.14,3.86 c 0.26,-0.15 0.86,-0.7 1.07,-0.84 0.35,0.27 0.58,0.54 0.75,0.74 0.23,-0.12 0.6,-0.39 0.77,-0.53 0.31,0.22 0.65,0.5 0.78,0.65 0.16,-0.15 0.36,-0.03 0.18,0.15 -0.18,0.17 -0.58,0.52 -0.73,0.64 -0.22,-0.12 -0.61,-0.56 -0.74,-0.66 -0.06,0.06 -0.19,0.12 -0.3,0.18 -0.01,0.24 0,2.25 -0.02,2.49 -0.33,0.02 -0.6,0.04 -0.82,-0.01 -0.02,-0.32 0.01,-2.06 0,-2.34 -0.02,-0.34 -0.58,-0.46 -0.94,-0.47 m 4.02,-3.56 c -0.26,-0.02 -0.51,-0.06 -0.65,-0.1 -0.22,-0.07 -0.13,-0.31 0.05,-0.31 0.17,0 0.45,0.06 0.58,0.1 0.13,0.05 0.19,0.33 0.02,0.31 m 0.02,-0.6 c -0.25,-0.01 -0.51,-0.06 -0.65,-0.1 -0.22,-0.06 -0.13,-0.31 0.05,-0.31 0.18,0 0.46,0.05 0.59,0.1 0.13,0.06 0.18,0.32 0.01,0.31 m -1.59,-3.83 -0.77,0.84 c -0.23,-0.16 -0.36,-0.33 -0.43,-0.62 -0.59,0.12 -0.99,0.47 -1.27,0.68 -0.25,-0.22 -0.61,-0.81 -0.62,-1.22 -0.01,-0.4 0.31,-1 0.53,-1.21 0.02,0.01 0.04,0.02 0.06,0.03 -0.13,-0.08 -0.25,-0.15 -0.34,-0.23 -0.08,-0.07 -0.11,-0.27 0,-0.43 0.15,-0.2 0.63,-0.8 1.1,-0.88 0.25,-0.03 0.67,0.03 1.25,0.55 -0.07,0.09 -0.07,1.78 -0.07,1.96 0.22,0.26 0.56,0.53 0.56,0.53 M 88,58.97 c -0.12,0.63 0.42,1.14 0.83,1.36 0.33,0.17 0.9,0.08 1.04,0.05 0.14,-0.02 0.1,-0.06 0.2,-0.16 0.1,-0.1 0.23,-0.01 0.14,0.09 -0.09,0.1 -0.93,0.9 -1.16,1.06 -0.21,0.05 -0.68,0.04 -0.96,-0.32 -0.5,-0.62 -0.86,-0.85 -0.7,-1.98 0.11,-0.77 1.39,-1.43 1.68,-1.6 0.12,0.12 0.7,0.73 0.95,0.93 -0.1,0.13 -0.42,0.27 -0.73,0.27 -0.32,0 -0.53,-0.26 -0.74,-0.5 -0.14,0.15 -0.46,0.34 -0.55,0.8 m 1.66,-6.17 c -0.14,0 -1.59,0.17 -1.59,0.17 -0.08,0.04 0.07,1.82 0.13,1.97 0.04,0.15 0.18,0.37 0.35,0.23 0.15,-0.15 0.32,0.1 0.14,0.24 -0.1,0.08 -0.42,0.71 -0.57,0.81 -0.23,0.15 -0.56,-0.33 -0.67,-0.62 -0.17,-0.49 -0.29,-1.71 -0.29,-2.52 0.05,0.01 -0.68,-0.29 -0.35,-0.42 0.64,-0.27 1.25,-1.12 1.32,-1.33 0.08,-0.22 0.28,-0.13 0.18,0.09 -0.21,0.44 -0.19,0.76 -0.1,1.02 0.03,0.07 1.25,0.04 1.44,0.04 0.11,0.01 0.11,0.32 0.01,0.32 m -3.37,2.21 -0.6,0.77 h -0.56 c -0.28,-0.27 -0.46,-0.49 -0.51,-0.71 l -0.03,-1.86 -0.69,-0.4 c -0.13,0.17 -0.38,0.17 -0.29,0.03 l 0.96,-0.84 0.21,-0.02 0.61,0.61 -0.01,1.92 c 0.3,0.35 0.48,0.43 0.91,0.5 m -0.77,-3.79 -0.34,0.29 H 84.9 l -0.28,-0.28 -0.01,-0.54 0.45,-0.38 0.45,0.44 v 0.47 z m -1.93,-0.04 c -0.33,0.1 -0.57,0.43 -0.65,0.77 -0.07,0.35 -1.19,3.62 -1.33,3.84 -0.27,-1.02 -1.4,-3.46 -1.76,-3.97 -0.31,-0.46 -0.61,-0.37 -0.9,-0.38 -0.28,0 -0.17,-0.26 0.06,-0.24 0.32,0.04 2.1,0.2 2.61,0.27 0.18,0.04 0.19,0.2 -0.05,0.27 -0.12,0.03 -0.41,0.17 -0.41,0.31 0,0.19 0.65,1.62 0.83,1.89 0.15,-0.37 0.76,-1.93 0.64,-2.27 -0.13,-0.34 -0.18,-0.4 -0.44,-0.42 -0.25,-0.03 -0.25,-0.18 0.05,-0.23 0.3,-0.05 1.15,-0.12 1.41,-0.09 0.25,0.02 0.28,0.16 -0.06,0.25 m -4.04,5.89 c 0.56,-0.31 1.82,-0.5 2.25,-0.37 0.22,0.06 0.44,0 0.44,-0.1 0,-0.15 0.2,-0.11 0.2,0 0,0.11 0,1.49 -0.02,1.62 0,0.13 -0.2,0.12 -0.2,0 0,-0.2 0,-0.26 -0.17,-0.53 -0.5,-0.76 -1.9,-0.82 -2.59,0.09 -0.24,0.31 -0.32,0.84 -0.06,0.93 0.26,0.09 1.25,0.01 1.57,-0.05 0.32,-0.06 1.12,-0.19 1.21,-0.25 0.09,-0.05 0.21,-0.13 0.21,0.03 0,0.16 0,0.69 -0.01,0.85 0,0.16 -0.13,0.08 -0.21,0.02 -0.09,-0.05 -0.84,-0.13 -1.17,-0.15 -0.54,-0.05 -1.36,-0.22 -1.63,-0.13 -0.27,0.08 -0.06,0.5 0.18,0.81 0.68,0.92 1.95,0.95 2.46,0.2 0.19,-0.27 0.19,-0.33 0.19,-0.52 0,-0.12 0.21,-0.14 0.21,0 0,0.13 -0.01,1.27 -0.01,1.38 0,0.11 -0.21,0.14 -0.21,-0.01 0.01,-0.24 -0.14,-0.23 -0.42,-0.14 -0.74,0.2 -1.72,0.26 -2.31,-0.07 -0.62,-0.36 -1.16,-0.47 -1.18,-1.83 0,-0.84 0.77,-1.49 1.27,-1.78 m -1.02,4.19 c 0.18,0.02 0.74,0.03 0.93,0.03 -0.02,0.41 -0.02,3.28 0,3.57 0.03,0.3 0.28,0.39 0.54,0.27 0.13,-0.05 0.24,0.04 0.08,0.18 -0.28,0.21 -0.63,0.71 -0.78,0.9 -0.32,-0.22 -0.68,-0.5 -0.65,-0.76 0.04,-0.48 -0.1,-3.81 -0.12,-4.19 m 4.17,6.36 c 1.95,0 9.64,2.11 13.34,1.86 V 50.15 c 0,0 -5.45,0.77 -10.17,-0.97 -3.85,-1.42 -9.15,1.06 -9.15,1.06 0,0.66 0,18.96 0,18.96 0,0 1.95,-1.58 5.98,-1.58 m 14.03,-5.84 v 3.68 c 0,0 2.06,-0.02 4.34,-1.48 0.68,-0.44 1.69,-0.26 2.2,0.14 v 0 c 0,0 -0.31,-2.41 -2.35,-2.11 -3.76,0.54 -4.19,-0.23 -4.19,-0.23 m 6.53,-5.33 c 0.03,0.24 0.06,0.4 0.07,0.51 -0.01,-0.11 -0.03,-0.27 -0.07,-0.51 0,0 -0.11,-2.17 -2.44,-2.17 -0.76,0 -1.68,0.92 -4.03,-0.1 v 3.68 c 0.95,0.28 3.57,-1.21 4.61,-1.67 0.75,-0.32 1.81,-0.11 1.86,0.26 M 100.7,95.1 c -0.15,-5.82 -3.73,-12.28 -2.75,-11.08 2.43,3.01 3.21,9.52 4.88,15.13 0,0 1.07,0.55 0.84,-6.57 -0.05,-1.44 -0.64,-3.36 -1.35,-4.7 -1.41,-2.64 -4.28,-7.1 -4.19,-7.13 0.69,-0.56 2.37,3.28 3.83,4.79 0.95,0.98 3.58,1.94 3.76,1.81 -2.11,-4.09 -7.22,-7.94 -6.69,-8.42 3.76,3.53 4.95,3.7 5.11,3.51 l -3.39,-3.29 c -0.96,-1.28 -2.22,-2.27 -2.05,-2.23 1.51,0.33 -0.79,-1.26 -2.57,-1.74 -0.32,-0.09 -0.83,-0.11 -0.85,-0.27 -0.03,-0.27 0.42,-0.16 0.79,-0.27 0.24,-0.07 0.49,-0.26 0.5,-0.61 -0.68,0.15 -1.37,-0.01 -1.96,-0.27 -1.2,-0.56 -3.35,-1.2 -4.34,-0.81 -0.58,0.23 -0.69,0.2 -1.31,0.68 -0.27,-0.11 -1.03,-0.6 -2.1,0.69 -0.33,0.4 -0.73,0.87 -0.75,1.21 -0.05,0.86 0.02,0.04 0.23,0.86 0.09,0.34 -0.3,0.97 -1.88,1.5 -0.61,0.2 -0.46,0.81 -0.46,0.81 0.3,-0.15 0.78,-0.49 1.52,-0.14 1.44,0.68 1.72,-0.39 2.62,-1.15 0,0 -0.25,0.96 0,1.01 1.12,0.23 0.75,1.07 0.6,1.2 -1.41,1.26 -0.82,1.74 -1.33,2.51 -0.47,0.73 -1.21,1.01 -2.3,0.98 -1.51,-0.05 1.97,-2.32 -1.36,-3.27 0.52,0.87 0.73,1.57 -0.43,2.25 -0.73,0.43 -0.36,2.59 -2.24,1.59 0,0 -0.15,1.6 -0.37,1.67 2.55,2.24 1.13,3.46 1.26,6.65 0.8,2.03 -0.08,3 -0.28,3.12 0.13,1.38 0.26,2.13 1.12,3.25 0.62,0.81 -0.06,2.07 0.58,2.94 0.59,-2.08 1.21,-1.21 1.38,-4.1 0.23,-0.48 1.2,-1.34 1.76,-1.39 -0.01,1.74 0.63,3.32 0.5,4.06 0,0 1.47,-0.27 1.92,-0.11 0.36,0.12 0.64,0.6 0.65,0.89 -0.5,0.31 -0.5,0.19 -1.25,0.74 -1.32,0.96 -1.92,2.92 -1.92,2.92 0,0 3.1,-2.47 3.32,-2.92 0.18,-0.35 0.34,-0.9 0.51,-1.46 0.02,-0.06 -1.6,-1 -2.04,-1.87 -1.39,-2.69 2.15,1.6 2.23,1.22 0.21,-0.93 0.85,-1.81 0.85,-1.81 -0.23,-0.26 -0.78,-0.43 -1.62,-1.92 -1.93,-3.4 2.24,1.45 2.24,1.45 1.11,-0.63 1.11,0.21 1.25,1.11 0.01,0.08 1.88,1.46 1.97,1.55 0.53,-0.49 0.91,-1.15 1.12,-1.61 0.03,-0.06 -3.37,-3.07 -3.95,-4.07 -4.68,-8.02 3.79,3.56 4.19,3.24 0.22,-0.63 0.3,-1.49 0.27,-2.66 0,-0.03 -1.59,-1.13 -2.61,-2.81 -3.93,-6.49 2.58,1.94 2.58,1.88 -0.08,-1.39 -1.22,-7.42 -0.43,-5.61 0.4,0.93 1.67,4.78 1.44,8.7 0.45,-0.73 2.27,-1.45 2.95,-1.63 m -7.37,6.4 c 0,0 -0.62,-0.47 -0.66,-0.38 -0.1,0.27 -0.24,0.58 -0.42,0.95 -0.16,0.32 0.33,0.09 1.08,-0.57 m -0.25,-2.42 c -0.08,0.53 -0.08,0.94 -0.24,1.54 -0.02,0.06 0.59,0.3 0.87,0.54 0.39,-0.36 0.74,-0.55 1.15,-1.06 -0.09,-0.06 -1.72,-1.47 -1.72,-1.41 -0.02,0.19 -0.03,0.16 -0.06,0.39 m 5.04,3.35 c 0.72,-0.61 1.14,-1.65 2.07,-1.96 -0.7,-0.64 -1.39,0.64 -1.75,0.19 0.65,-1.02 1.06,-1.8 1.13,-3.07 0.04,-0.69 0.83,-1.33 1.02,-1.71 -0.77,0.11 -2.82,1.32 -3.24,2.02 -1.38,1.82 -1.31,3.53 -7.08,6.08 -0.29,0 1.07,-0.99 1.45,-2.13 0.18,-0.53 0.94,-3.01 0.42,-4.2 -1.19,1.21 -0.95,1.61 -1.28,2.5 -0.86,2.36 -1.33,2.58 -3.48,4.04 -0.29,0.19 -1.94,2.74 -4.08,2.87 0.22,-0.06 0.09,-0.59 0.82,-1.06 2.4,-1.57 1.48,-4.96 4.61,-5.53 -1.56,-0.55 -2.63,0.96 -2.91,0.81 1.26,-1.75 0.15,-3.23 0.34,-4.65 -0.42,0.22 -0.84,0.74 -0.88,1.16 -0.24,2.54 -1.42,2.98 -1.54,4.08 0.25,1.81 -1.2,3.22 -2.27,4.5 -0.21,-1.06 0.07,-1.99 1.4,-2.87 0.73,-0.48 -0.07,-1.93 -0.07,-1.93 -0.3,1.58 -1.19,2.07 -1.74,2.15 -0.48,0.07 1.7,-2.21 1.45,-4.3 -0.11,-0.93 -0.38,-0.52 -0.53,-1.56 -1.88,2.09 -0.5,3.38 -2.43,5.79 -0.91,1.14 -1.26,3.15 -1.38,3.2 0.02,-2.99 0.12,-2.12 1.45,-4.54 1.09,-2 -0.06,-3.86 -0.21,-5.06 -2.39,1.65 -2.19,4.82 -2.26,4.14 -0.06,-0.68 -0.36,-1.87 -0.04,-2.95 0.53,-1.79 -0.6,-4.52 -0.6,-4.52 -3.35,5.25 -0.54,11.39 -0.75,11.31 -1.45,-2.27 -2.51,-2.37 -2.83,-4.11 -0.17,-0.95 -1.9,-6.15 -5.07,-6.24 1.6,1.38 1.21,1.57 1.32,3.82 -1.02,5.64 6.88,6.23 6.35,9.16 -1.08,-1.73 -2.73,-2.47 -5.22,-3.82 -1.1,-0.87 -2.35,-1.26 -2.41,-2.63 0.13,-0.99 0.19,-0.79 0.02,-2.08 -0.12,-0.92 -1.03,-0.36 -1.7,-2.29 -1.43,1.29 -0.9,2.75 -0.79,3.58 0.03,0.24 0.2,1.11 -0.02,1.62 -0.51,-0.35 -0.86,-1.07 -1.43,-1.79 -1.02,-1.31 -1.01,-2.9 -1.52,-4 -0.24,-0.51 -0.58,-1.21 -0.78,-1.22 l -0.04,0.02 c -0.25,2.05 -0.13,3.84 0.8,5.38 0,0 -0.26,0.44 -0.46,0.55 -0.88,-0.23 -2.14,-0.98 -2.65,-2.42 -1.1,0.92 -0.32,2.12 -0.37,2.1 -2.47,-1.27 0.03,-6.17 -3.49,-6.03 0.87,0.95 0.32,2.16 0.24,3.29 -0.02,1.84 2.32,3.27 2.32,3.27 -2.61,-0.88 -3.14,0.34 -3.11,0.34 0,0 3.84,1.67 9.91,2.3 0.78,0.08 1.89,1 1.71,1 -0.78,-0.06 -2.32,-1.06 -4.54,0.91 1.31,0.03 2.21,2.16 4.33,0.94 5.49,-1.55 7.52,1.17 8.42,1.87 -0.19,0.34 -4.22,-2.53 -7.41,-0.63 -1.7,1.01 -4.43,0.1 -6.57,-1.5 0.86,2.2 4.54,4.69 5.75,4.69 1.49,0 3.39,-1.94 5.56,-1.84 3.46,0.17 3.94,3.26 3.56,3.02 0,0 -2.72,-4.5 -6.22,0.31 1.64,-0.75 3.82,-0.56 5.74,0.35 0.26,0.12 -0.47,0.93 -0.98,1.51 -0.34,0.38 -1.8,2.54 -3.37,0.41 -0.24,-0.32 -0.99,-2.3 -5.93,-1.87 1.86,0.84 3.92,3.05 4.94,4.05 2.59,2.56 6.5,-3.11 6.65,-2.48 0,1.27 0.65,1.89 1,2.58 0.87,1.73 -1.1,1.44 -2.17,1 0,0 2.04,3.18 3.75,1.41 1.89,-1.96 -2.48,-3.44 -1.09,-5 0.78,-0.88 3.53,1.96 4.77,1.97 3.36,0.37 3.18,-2.81 4.95,-2.72 -1.67,-1.69 -3.44,-0.77 -3.81,-0.34 -1.12,1.3 -2.41,0.43 -3.31,-0.27 -0.49,-0.65 -1.31,-0.75 -2.05,-0.55 -0.35,0.03 0.7,-1.23 2.07,-0.97 3.09,0.6 6.18,-0.51 6.94,-0.93 1.24,-0.7 1.94,-1.88 3.33,-3.21 -0.43,0.08 -3,1.51 -3.83,1.93 -2.47,1.24 -4.02,-0.37 -4.3,-0.36 -0.48,0.01 -0.35,-0.36 0.39,-0.6 2.54,-0.57 4.29,-2.8 6.71,-3.69 2.65,-1.17 6.04,-0.36 8.3,-2.59 m -0.97,4.34 c 1.01,-1.45 1.59,-3.01 1.93,-4.69 -0.59,0.77 -1.45,1.44 -2.32,1.79 -0.61,1.94 -0.32,3.93 0.39,2.9 m 9.19,-15.96 c -2.52,27.12 -25.22,31.73 -30.06,32.61 -0.26,0.05 -27.33,-3.39 -30.06,-32.61 0,-0.01 0,-43.12 0,-43.12 0,0 25.86,-3.34 60.12,0 z m 1.58,0.25 v -44.9 c -36.07,-3.48 -63.3,0 -63.3,0 0,0 0,44.9 0,44.91 2.87,30.44 31.38,34.02 31.65,33.97 5.09,-0.92 29,-5.73 31.65,-33.98"
   id="path1" />
		</g>
		<path
   class="st5"
   d="m 442.39,50.28 0.03,-0.05 v -0.06 c -0.05,-0.97 -0.08,-2.23 -0.08,-3.53 v -0.26 l -0.25,0.06 c -0.33,0.07 -1.98,0.07 -3.58,0.07 h -4.94 c -1.01,0 -1.91,-0.02 -3.1,-0.08 h -0.05 l -0.05,0.02 c -0.22,0.11 -0.26,0.42 -0.27,0.52 -0.02,0.23 0.05,0.42 0.19,0.51 l 0.52,0.09 c 1.36,0.16 1.43,0.31 1.43,3.18 v 9.67 c 0,2.84 -0.07,2.99 -1.43,3.15 l -0.74,0.09 -0.07,0.05 c -0.15,0.15 -0.18,0.4 -0.15,0.58 0.03,0.2 0.12,0.35 0.25,0.42 l 0.05,0.02 h 0.05 c 1.26,-0.05 2.16,-0.08 3.35,-0.08 1.08,0 2.01,0.03 3.57,0.08 h 0.05 l 0.05,-0.02 c 0.18,-0.09 0.25,-0.33 0.26,-0.52 0.01,-0.23 -0.05,-0.42 -0.19,-0.5 l -1.01,-0.11 c -1.37,-0.12 -1.45,-0.29 -1.45,-3.15 V 56.7 c 0,-0.52 0,-0.52 0.68,-0.52 h 1.83 c 0.94,0 1.65,0.02 2,0.12 0.38,0.12 0.58,0.37 0.72,0.87 l 0.28,1.11 0.05,0.04 c 0.26,0.23 0.84,0.22 1,-0.04 l 0.04,-0.05 v -0.06 c 0,-0.28 -0.02,-0.64 -0.04,-1.04 -0.03,-0.49 -0.06,-1.04 -0.06,-1.57 0,-0.54 0.03,-1.12 0.06,-1.63 0.02,-0.42 0.04,-0.79 0.04,-1.09 v -0.06 l -0.04,-0.05 c -0.13,-0.19 -0.4,-0.21 -0.51,-0.21 -0.22,0 -0.42,0.07 -0.52,0.19 l -0.28,1.16 c -0.15,0.65 -0.33,0.72 -0.54,0.79 -0.28,0.09 -1.11,0.15 -2.22,0.15 h -1.83 c -0.68,0 -0.68,0 -0.68,-0.52 v -5.67 c 0,-0.87 0,-0.87 0.6,-0.87 h 1.64 c 1.11,0 1.99,0 2.55,0.16 1.15,0.3 1.5,1.07 1.73,2.39 l 0.01,0.07 0.06,0.05 c 0.1,0.09 0.25,0.14 0.41,0.14 0.23,0 0.48,-0.08 0.58,-0.28 z m -18.03,5.23 c 0,-4.54 -2.98,-9.42 -9.53,-9.42 -5.57,0 -9.77,4.17 -9.77,9.69 0,4.63 3.36,9.31 9.77,9.31 5.44,0 9.53,-4.12 9.53,-9.58 z m -3.1,0.83 c 0,5.54 -3.28,7.5 -6.08,7.5 -5.54,0 -7.02,-5.61 -7.02,-8.93 0,-5.6 3.35,-7.58 6.22,-7.58 5.08,0 6.88,4.85 6.88,9.01 z m -23.62,45.91 c 0,11.6 8.64,21.85 22.95,21.85 12.44,0 22.37,-9.48 22.37,-22.5 0,-11.34 -7.48,-22.11 -22.37,-22.11 -13.28,0 -22.95,9.87 -22.95,22.76 z m 6.45,-2.06 c 0,-14.12 8.7,-18.69 15.41,-18.69 12.31,0 17.02,11.47 17.02,22.11 0,12.7 -7.35,18.5 -15.08,18.5 -12.71,0 -17.35,-12.38 -17.35,-21.92 z m -12.6,-52.72 c 0.14,-0.12 0.21,-0.31 0.19,-0.52 -0.02,-0.21 -0.12,-0.39 -0.27,-0.48 l -0.06,-0.04 h -0.06 c -1.91,0.11 -3.04,0.11 -5.05,0 h -0.05 l -0.05,0.02 c -0.15,0.08 -0.25,0.23 -0.28,0.41 -0.04,0.22 0.03,0.44 0.18,0.59 l 0.05,0.05 0.55,0.06 c 0.52,0.06 0.85,0.19 0.94,0.26 -0.08,0.38 -1.02,2.13 -1.59,3.19 l -0.12,0.23 c -0.65,1.25 -1.39,2.6 -2.34,4.22 -0.71,-1.28 -1.4,-2.69 -2.07,-4.05 -0.26,-0.53 -0.52,-1.07 -0.79,-1.59 -0.19,-0.39 -0.8,-1.76 -0.81,-1.98 0,-0.05 0.12,-0.16 0.95,-0.28 l 0.42,-0.06 0.05,-0.05 c 0.15,-0.15 0.21,-0.41 0.15,-0.64 -0.04,-0.18 -0.16,-0.32 -0.32,-0.37 l -0.04,-0.01 h -0.04 c -0.66,0.05 -1.62,0.08 -2.86,0.08 -1.24,0 -2.23,-0.03 -3.1,-0.08 h -0.06 l -0.05,0.03 c -0.13,0.08 -0.22,0.22 -0.25,0.4 -0.04,0.22 0.02,0.44 0.15,0.59 l 0.05,0.06 0.82,0.15 c 0.71,0.12 1.07,0.18 1.97,1.93 l 3.17,6.18 c 0.76,1.46 0.84,1.76 0.84,3.24 v 1.37 c 0,2.92 -0.07,3.06 -1.42,3.21 l -0.91,0.09 -0.05,0.05 c -0.15,0.15 -0.17,0.4 -0.14,0.59 0.03,0.2 0.12,0.35 0.25,0.41 l 0.05,0.02 h 0.05 c 1.45,-0.05 2.39,-0.08 3.51,-0.08 1.09,0 2.05,0.03 3.65,0.08 h 0.05 l 0.05,-0.02 c 0.13,-0.06 0.22,-0.22 0.25,-0.41 0.03,-0.18 0.01,-0.43 -0.15,-0.59 l -0.05,-0.05 -1.1,-0.09 c -1.24,-0.09 -1.42,-0.3 -1.42,-3.21 v -1.4 c 0,-2.01 0.06,-2.21 1.23,-4.25 l 1.69,-2.93 c 0.15,-0.26 0.3,-0.52 0.44,-0.77 1.06,-1.85 1.82,-3.18 2.96,-3.38 l 0.81,-0.14 z m -10.41,32.87 c -1.1,-0.26 -4.51,-0.97 -8.19,-0.97 -9.74,0 -16.12,3.03 -20.43,7.54 -4,4.25 -5.8,9.8 -5.8,15.28 0,5.67 2.06,10.76 5.93,14.63 4.96,5.03 11.99,7.16 19.66,7.16 3.48,0 8.12,-0.77 11.54,-1.68 1.22,-0.32 2.39,-0.58 3.16,-0.58 0.26,-0.19 0.26,-0.58 0.07,-0.77 -1.16,-0.45 -1.55,-2 -1.55,-4.58 v -3.61 c 0,-3.29 0.06,-5.09 2.77,-5.42 l 1.03,-0.13 c 0.45,-0.39 0.39,-1.35 -0.06,-1.61 -2.13,0.13 -4.32,0.19 -6.83,0.19 -3.8,0 -7.35,-0.06 -9.22,-0.19 -0.45,0.19 -0.52,1.35 0,1.61 l 2.84,0.32 c 4,0.45 4.19,0.84 4.19,6.25 v 2.58 c 0,2.06 -0.32,3.22 -0.64,3.67 -0.71,1.09 -3.1,1.93 -7.09,1.93 -12.96,0 -19.34,-9.74 -19.34,-22.11 0,-9.67 5.48,-18.57 17.99,-18.57 6.58,0 11.41,2.19 13.21,9.15 0.39,0.39 1.55,0.32 1.74,-0.19 -0.58,-3.87 -0.97,-7.22 -0.97,-9.35 -0.79,0.16 -2.78,-0.29 -4.01,-0.55 z m -9.99,-34.24 0.02,-0.07 -0.03,-0.07 c -0.1,-0.2 -0.38,-0.22 -0.49,-0.22 -0.07,0 -0.17,0.01 -0.25,0.04 l -0.07,0.03 -0.04,0.06 c -0.34,0.6 -0.49,0.65 -1.92,0.65 h -11.1 c -1.2,0 -1.74,-0.06 -1.85,-0.66 l -0.01,-0.06 -0.05,-0.05 c -0.07,-0.07 -0.2,-0.11 -0.37,-0.11 -0.06,0 -0.28,0.01 -0.4,0.08 l -0.07,0.05 -0.02,0.09 c -0.19,1.07 -0.59,2.77 -1.01,3.97 l -0.03,0.08 0.04,0.08 c 0.16,0.32 0.71,0.48 1.01,0.26 l 0.04,-0.03 0.02,-0.05 c 0.27,-0.62 0.53,-1.21 1.16,-1.78 0.59,-0.54 1.93,-0.62 3.17,-0.62 h 1.48 c 0.6,0 0.6,0 0.6,0.65 v 12.01 c 0,2.91 -0.17,3.04 -1.48,3.15 l -0.97,0.08 -0.09,0.03 c -0.16,0.1 -0.25,0.3 -0.24,0.54 0.01,0.18 0.08,0.41 0.26,0.49 l 0.05,0.02 h 0.05 c 1.64,-0.05 2.63,-0.08 3.73,-0.08 1.05,0 1.92,0.03 3.51,0.08 h 0.05 l 0.05,-0.02 c 0.22,-0.11 0.26,-0.42 0.26,-0.52 0.01,-0.23 -0.05,-0.42 -0.19,-0.51 l -0.96,-0.11 c -1.34,-0.12 -1.42,-0.29 -1.42,-3.15 V 48.38 c 0,-0.27 0,-0.53 0.04,-0.57 0.05,-0.05 0.34,-0.05 0.53,-0.05 h 1.9 c 1.44,0 2.42,0.21 2.99,0.63 0.25,0.19 0.47,0.87 0.59,1.82 l 0.01,0.06 0.04,0.05 c 0.1,0.12 0.28,0.19 0.49,0.19 0.25,0 0.47,-0.11 0.56,-0.29 l 0.03,-0.05 -0.01,-0.06 c -0.08,-0.77 0.1,-2.93 0.39,-4.01 z M 346.6,60.37 v -9.56 c 0,-2.94 0.08,-3.12 1.45,-3.23 l 0.73,-0.06 0.04,-0.03 c 0.13,-0.09 0.2,-0.28 0.19,-0.51 -0.01,-0.09 -0.04,-0.41 -0.26,-0.52 l -0.05,-0.02 h -0.05 c -1.27,0.05 -2.22,0.08 -3.32,0.08 -1.15,0 -2.08,-0.03 -3.38,-0.08 h -0.05 l -0.05,0.02 c -0.22,0.11 -0.26,0.43 -0.26,0.52 -0.01,0.23 0.05,0.42 0.19,0.51 l 0.04,0.03 0.72,0.06 c 1.37,0.12 1.45,0.3 1.45,3.23 v 9.56 c 0,2.89 -0.07,3.04 -1.46,3.21 l -0.74,0.09 -0.05,0.05 c -0.15,0.15 -0.18,0.4 -0.15,0.59 0.03,0.2 0.12,0.35 0.25,0.41 l 0.05,0.02 h 0.05 c 1.37,-0.05 2.27,-0.08 3.38,-0.08 1.07,0 1.96,0.03 3.32,0.08 h 0.05 l 0.05,-0.02 c 0.22,-0.11 0.26,-0.43 0.26,-0.52 0.01,-0.23 -0.05,-0.42 -0.19,-0.51 l -0.76,-0.11 c -1.38,-0.17 -1.45,-0.32 -1.45,-3.21 z m -5.42,60.97 c -2.77,-0.32 -3.61,-1.29 -5.48,-6.83 L 326.87,88.6 c -0.97,-2.84 -2,-5.8 -2.84,-8.64 -0.13,-0.45 -0.58,-0.58 -0.97,-0.58 -0.71,0.84 -1.8,2 -3.35,2.45 0.19,1.03 -0.19,2.25 -1.1,4.58 l -6.57,17.41 c -2.71,7.22 -4.51,11.41 -5.67,14.38 -0.9,2.32 -2.32,3.03 -3.87,3.16 l -2.13,0.19 c -0.39,0.32 -0.26,1.35 0.13,1.61 1.74,-0.06 4.06,-0.19 6.19,-0.19 3.03,0.06 5.03,0.06 6.71,0.19 0.58,-0.26 0.58,-1.29 0.13,-1.61 l -2.13,-0.19 c -1.55,-0.13 -1.87,-0.52 -1.87,-1.29 0,-0.71 0.45,-2.45 1.42,-5.35 l 2.26,-6.77 c 0.45,-1.35 0.84,-1.55 2.45,-1.55 h 9.73 c 1.93,0 2.19,0.19 2.64,1.61 l 2.83,8.77 c 0.52,1.55 0.84,2.71 0.84,3.42 0,0.65 -0.9,1.03 -2.25,1.16 l -1.87,0.19 c -0.45,0.32 -0.39,1.35 0.13,1.61 1.87,-0.06 4.32,-0.19 7.41,-0.19 2.9,0 5.16,0.06 7.8,0.19 0.32,-0.26 0.45,-1.29 0,-1.61 z m -16.63,-17.53 h -7.93 c -1.81,0 -1.87,-0.06 -1.35,-1.55 l 4.06,-11.22 c 0.71,-1.93 1.35,-3.48 1.55,-3.8 H 321 c 0.39,0.77 0.97,2.52 1.48,4.06 l 3.48,10.51 c 0.58,1.74 0.45,2 -1.41,2 z m 3.63,-53.7 c 0,-1.04 0.39,-2.78 2.99,-2.78 2.37,0 3.09,1.54 3.46,2.88 l 0.04,0.08 c 0.09,0.1 0.23,0.16 0.41,0.16 0.2,0 0.48,-0.08 0.59,-0.26 l 0.03,-0.05 v -0.06 c 0,-1.1 -0.23,-2.63 -0.49,-3.35 l -0.05,-0.13 h -0.14 c -0.19,0 -0.55,-0.05 -0.89,-0.15 -0.64,-0.17 -1.65,-0.36 -2.55,-0.36 -3.4,0 -5.69,1.94 -5.69,4.83 0,2.45 1.87,4.06 2.99,4.79 l 2.55,1.67 c 1.85,1.19 2.11,2.43 2.11,3.59 0,1.43 -0.97,2.88 -3.15,2.88 -2.72,0 -3.91,-2.1 -4.42,-3.85 l -0.03,-0.06 c -0.08,-0.12 -0.23,-0.19 -0.41,-0.19 -0.18,0 -0.44,0.07 -0.57,0.26 l -0.04,0.06 v 0.07 c 0.05,1.21 0.4,3.2 0.75,3.85 l 0.03,0.05 0.05,0.03 c 0.53,0.31 2,1.02 4.29,1.02 3.54,0 5.93,-2.08 5.93,-5.18 0,-2.15 -1.13,-3.89 -3.45,-5.33 l -2.15,-1.34 c -0.82,-0.51 -2.19,-1.59 -2.19,-3.13 z m -6.77,14.66 c 0.12,-0.1 0.19,-0.26 0.16,-0.41 -0.02,-0.15 -0.11,-0.26 -0.24,-0.32 l -0.06,-0.01 c -0.64,-0.05 -1.29,-0.31 -1.74,-0.7 -1.85,-1.55 -3.32,-3.82 -5.36,-7.1 -0.14,-0.23 -0.16,-0.33 -0.16,-0.37 0.89,-0.37 3.41,-1.69 3.41,-4.65 0,-2.25 -1.27,-3.39 -2.34,-3.94 -1.35,-0.73 -3.07,-0.83 -4.58,-0.83 -2.46,0 -4.37,0.07 -6.01,0.21 l -0.07,0.02 c -0.16,0.08 -0.26,0.25 -0.28,0.46 -0.02,0.23 0.07,0.45 0.22,0.56 l 0.04,0.03 0.91,0.11 c 0.88,0.11 1,0.3 1,2.94 v 9.65 c 0,2.84 -0.07,2.99 -1.43,3.15 l -0.75,0.09 -0.05,0.06 c -0.15,0.18 -0.17,0.43 -0.13,0.61 0.04,0.18 0.12,0.31 0.25,0.38 l 0.05,0.02 h 0.05 c 1.19,-0.05 2.17,-0.08 3.35,-0.08 1.11,0 2.04,0.03 3.19,0.08 h 0.05 l 0.05,-0.02 c 0.2,-0.1 0.25,-0.36 0.26,-0.46 0.03,-0.24 -0.04,-0.44 -0.17,-0.55 L 311,63.66 310.38,63.57 c -1.38,-0.19 -1.43,-0.31 -1.43,-3.15 v -3.39 c 0,-0.38 0,-0.38 1.06,-0.38 1.03,0 1.38,0.25 1.74,0.77 0.41,0.59 0.88,1.34 1.34,2.07 0.48,0.76 0.93,1.48 1.29,1.98 1.84,2.63 3.24,3.47 5.73,3.47 0.52,0 0.97,-0.05 1.25,-0.14 z m -8.1,-9.99 c -0.77,0.58 -1.81,0.66 -2.64,0.66 -1.21,0 -1.59,-0.05 -1.7,-0.08 -0.03,-0.11 -0.03,-0.43 -0.03,-0.74 v -6.29 c 0,-0.6 0,-0.65 1.54,-0.65 3.02,0 4.09,2.12 4.09,3.93 0.01,1.49 -0.4,2.5 -1.26,3.17 z m -13.88,6.06 0.01,-0.06 -0.03,-0.06 c -0.12,-0.26 -0.4,-0.37 -0.63,-0.37 -0.13,0 -0.25,0.04 -0.35,0.1 l -0.06,0.08 c -0.77,1.54 -1.46,2.32 -1.82,2.51 -0.58,0.29 -1.39,0.38 -3.35,0.38 -2.24,0 -2.81,-0.27 -3.1,-0.55 -0.38,-0.4 -0.46,-1.28 -0.46,-2.65 v -3.79 c 0,-0.52 0,-0.52 0.68,-0.52 h 1.56 c 0.94,0 1.64,0.02 2.02,0.13 0.37,0.09 0.56,0.34 0.68,0.87 l 0.24,1.05 0.04,0.09 c 0.1,0.12 0.29,0.19 0.5,0.19 0.25,0 0.45,-0.09 0.53,-0.25 l 0.03,-0.05 v -0.06 c 0,-0.26 -0.02,-0.61 -0.04,-1 -0.03,-0.49 -0.06,-1.04 -0.06,-1.58 0,-0.56 0.03,-1.14 0.06,-1.64 0.02,-0.41 0.04,-0.78 0.04,-1.07 v -0.05 l -0.03,-0.05 c -0.09,-0.16 -0.29,-0.25 -0.54,-0.25 -0.21,0 -0.4,0.07 -0.5,0.19 l -0.26,1.19 c -0.12,0.61 -0.27,0.71 -0.51,0.78 -0.29,0.1 -1.1,0.15 -2.22,0.15 h -1.56 c -0.68,0 -0.68,0 -0.68,-0.55 v -5.37 c 0,-0.87 0,-0.87 0.6,-0.87 h 1.93 c 1.14,0 2.01,0.03 2.56,0.16 1.22,0.31 1.47,1.08 1.84,2.25 l 0.05,0.16 0.04,0.07 c 0.09,0.11 0.25,0.17 0.44,0.17 0.18,0 0.44,-0.06 0.56,-0.24 l 0.04,-0.06 -0.04,-0.39 c -0.14,-1.56 -0.27,-2.89 -0.41,-3.3 l -0.06,-0.18 -0.18,0.04 c -0.3,0.07 -1.96,0.07 -3.58,0.07 h -5.05 c -1.04,0 -1.92,-0.02 -3.16,-0.08 h -0.05 l -0.05,0.02 c -0.22,0.11 -0.26,0.42 -0.27,0.52 -0.02,0.24 0.05,0.42 0.19,0.51 l 0.52,0.09 c 1.38,0.16 1.46,0.34 1.46,3.18 v 9.67 c 0,2.91 -0.17,3.04 -1.48,3.15 l -0.96,0.09 -0.05,0.05 c -0.15,0.15 -0.18,0.4 -0.15,0.58 0.03,0.2 0.12,0.35 0.25,0.42 l 0.05,0.02 h 0.05 c 1.55,-0.05 2.49,-0.08 3.65,-0.08 h 2.42 c 2.34,0 4.7,0.03 7.2,0.08 h 0.13 l 0.06,-0.12 c 0.4,-0.74 1.07,-2.83 1.26,-3.77 z M 281.01,47.46 c 0.15,-0.15 0.17,-0.4 0.15,-0.58 -0.03,-0.2 -0.11,-0.34 -0.24,-0.42 l -0.05,-0.03 h -0.06 c -0.9,0.05 -1.72,0.08 -2.59,0.08 -1.06,0 -2.07,-0.03 -2.78,-0.08 h -0.06 l -0.05,0.03 c -0.15,0.09 -0.25,0.26 -0.27,0.48 -0.02,0.21 0.05,0.41 0.18,0.53 l 0.05,0.04 0.54,0.06 c 0.94,0.11 1.03,0.3 1.03,0.3 0,0.18 -0.03,0.44 -0.23,0.97 -0.46,1.17 -1.74,4.25 -2.5,6.01 -0.2,0.46 -0.45,1.05 -0.73,1.71 -0.51,1.21 -1.13,2.68 -1.66,3.83 -1.27,-2.92 -2.44,-5.85 -3.63,-8.84 -0.79,-1.93 -1.24,-3.33 -1.32,-3.68 0.04,-0.08 0.27,-0.2 1.08,-0.31 l 0.46,-0.06 0.05,-0.04 c 0.14,-0.12 0.21,-0.32 0.19,-0.53 -0.02,-0.21 -0.12,-0.39 -0.27,-0.48 l -0.05,-0.03 h -0.06 c -1.19,0.06 -2.13,0.08 -3.24,0.08 -1.12,0 -1.98,-0.02 -2.78,-0.08 h -0.07 l -0.06,0.04 c -0.16,0.1 -0.26,0.28 -0.27,0.48 -0.02,0.21 0.06,0.4 0.19,0.52 l 0.05,0.04 0.55,0.06 c 1.04,0.12 1.4,0.6 2.01,2.08 l 4.73,11.66 c 0.56,1.4 0.98,2.59 1.23,3.55 l 0.03,0.1 0.1,0.04 c 0.16,0.06 0.32,0.1 0.48,0.1 0.15,0 0.3,-0.04 0.41,-0.11 l 0.06,-0.04 0.02,-0.07 c 0.46,-1.44 1.75,-4.61 2.79,-6.99 l 1.45,-3.3 c 1.25,-2.82 2.28,-4.95 3,-6.15 0.34,-0.55 0.7,-0.8 1.23,-0.84 l 0.88,-0.06 z m -17.54,37.39 c -4.9,3.8 -8.12,9.93 -8.12,17.08 0,8.32 4,14.18 9.15,17.73 4.71,3.16 10.25,4.32 16.05,4.32 4.13,0 8.77,-0.97 10.19,-1.48 0.71,-0.26 1.48,-0.51 2.26,-0.64 0.97,-1.22 2.64,-5.48 3.09,-8.83 -0.26,-0.45 -1.23,-0.58 -1.67,-0.26 -1.48,3.8 -5.16,9.22 -13.47,9.22 -10.57,0 -19.15,-7.48 -19.15,-21.02 0,-13.34 8.38,-19.6 18.24,-19.6 9.35,0 12.25,5.03 13.22,9.41 0.45,0.39 1.42,0.32 1.74,-0.13 -0.51,-3.93 -0.84,-7.99 -0.9,-9.48 -0.58,0.07 -1.03,-0.06 -1.8,-0.26 -3.03,-0.84 -7.93,-1.55 -11.41,-1.55 -6.72,0.01 -12.72,1.82 -17.42,5.49 z m -8.25,-24.48 v -9.56 c 0,-2.91 0.09,-3.12 1.45,-3.23 l 0.72,-0.06 0.04,-0.03 c 0.13,-0.09 0.2,-0.28 0.19,-0.51 -0.01,-0.09 -0.04,-0.41 -0.26,-0.52 l -0.05,-0.02 h -0.05 c -1.27,0.05 -2.22,0.08 -3.32,0.08 -1.15,0 -2.08,-0.03 -3.38,-0.08 h -0.05 l -0.05,0.02 c -0.22,0.11 -0.26,0.42 -0.27,0.52 -0.01,0.23 0.05,0.42 0.19,0.51 l 0.04,0.03 0.72,0.06 c 1.36,0.12 1.45,0.33 1.45,3.23 v 9.56 c 0,2.89 -0.07,3.04 -1.46,3.21 l -0.74,0.09 -0.05,0.05 c -0.15,0.15 -0.18,0.4 -0.15,0.59 0.03,0.2 0.12,0.35 0.25,0.41 l 0.05,0.02 h 0.05 c 1.36,-0.05 2.26,-0.08 3.38,-0.08 1.06,0 1.99,0.03 3.32,0.08 h 0.05 l 0.05,-0.02 c 0.22,-0.11 0.26,-0.43 0.27,-0.52 0.01,-0.23 -0.05,-0.42 -0.19,-0.51 l -0.76,-0.11 c -1.37,-0.17 -1.44,-0.32 -1.44,-3.21 z m -13.48,52.78 V 90.21 c 0,-6.83 0.13,-7.93 3.93,-8.25 l 1.61,-0.13 c 0.39,-0.26 0.26,-1.42 -0.13,-1.61 -3.22,0.13 -5.41,0.19 -7.99,0.19 -2.71,0 -4.9,-0.07 -8.12,-0.19 -0.39,0.19 -0.52,1.35 -0.13,1.61 l 1.61,0.13 c 3.8,0.32 3.93,1.42 3.93,8.25 v 22.95 c 0,6.83 -0.13,7.74 -3.93,8.19 l -1.61,0.19 c -0.39,0.39 -0.26,1.42 0.13,1.61 3.22,-0.13 5.42,-0.19 8.12,-0.19 2.58,0 4.77,0.06 7.99,0.19 0.39,-0.19 0.52,-1.35 0.13,-1.61 l -1.61,-0.19 c -3.8,-0.46 -3.93,-1.36 -3.93,-8.2 z m 3.33,-65.69 c 0.13,-0.13 0.19,-0.34 0.17,-0.55 -0.02,-0.19 -0.12,-0.35 -0.26,-0.44 l -0.06,-0.04 h -0.07 c -0.88,0.05 -1.58,0.08 -2.75,0.08 -0.95,0 -1.83,-0.02 -3.16,-0.08 h -0.04 l -0.04,0.01 c -0.16,0.06 -0.27,0.2 -0.3,0.4 -0.04,0.24 0.03,0.48 0.18,0.62 l 0.05,0.04 0.52,0.06 c 0.92,0.12 1.39,0.25 1.52,0.44 0.32,0.51 0.51,2.49 0.51,5.45 v 5.75 c 0,0.26 0,0.56 -0.02,0.77 -0.93,-0.96 -1.91,-2.05 -3.12,-3.41 l -3.74,-4.19 c -2.66,-2.98 -4.18,-4.94 -4.52,-5.81 l -0.06,-0.15 -0.16,0.02 c -0.32,0.05 -0.76,0.08 -1.21,0.08 -0.47,0 -1.9,0 -3.02,-0.08 h -0.06 l -0.05,0.03 c -0.14,0.07 -0.24,0.22 -0.27,0.4 -0.04,0.22 0.03,0.46 0.16,0.6 l 0.05,0.05 0.53,0.06 c 0.72,0.09 1.25,0.29 1.54,0.58 0.5,0.55 0.54,1.04 0.54,1.79 v 8.01 c 0,1.3 0,4.34 -0.33,5.21 -0.06,0.14 -0.29,0.32 -1.02,0.42 l -0.8,0.09 -0.05,0.05 c -0.12,0.12 -0.18,0.31 -0.16,0.51 0.02,0.2 0.11,0.37 0.24,0.47 l 0.06,0.04 h 0.07 c 0.93,-0.05 1.65,-0.08 2.78,-0.08 0.91,0 1.82,0.02 3.13,0.08 h 0.07 l 0.06,-0.04 c 0.13,-0.09 0.21,-0.23 0.24,-0.4 0.03,-0.2 -0.02,-0.4 -0.14,-0.56 l -0.05,-0.07 -0.93,-0.09 c -0.64,-0.05 -1.09,-0.2 -1.21,-0.41 -0.29,-0.51 -0.46,-2.5 -0.46,-5.46 v -5.86 c 0,-0.48 0.01,-0.99 0.06,-1.36 0.43,0.48 1.14,1.32 1.78,2.07 0.44,0.52 0.84,1 1.11,1.3 l 6.23,7.09 c 2.07,2.36 3.06,3.53 3.42,4.04 l 0.06,0.09 h 0.11 c 0.35,0 0.62,-0.16 0.71,-0.44 l 0.01,-0.04 -0.01,-0.04 c -0.04,-0.31 -0.08,-1.38 -0.08,-4.68 V 53.1 c 0,-1.38 -0.01,-4.24 0.38,-5.08 0.03,-0.07 0.36,-0.3 1.35,-0.45 L 245,47.51 Z m -24.08,-0.04 c 0.12,-0.14 0.18,-0.37 0.14,-0.56 -0.03,-0.17 -0.11,-0.3 -0.25,-0.39 l -0.06,-0.03 h -0.07 c -0.93,0.05 -1.66,0.08 -2.81,0.08 -1.03,0 -2.03,-0.03 -3.05,-0.08 h -0.07 l -0.06,0.04 c -0.12,0.08 -0.21,0.24 -0.24,0.42 -0.03,0.2 0.02,0.4 0.14,0.53 l 0.06,0.07 0.76,0.06 c 0.62,0.05 1.04,0.22 1.18,0.46 0.31,0.55 0.49,2.49 0.49,5.46 v 3.09 c 0,3.17 -0.9,6.94 -5.17,6.94 -3.58,0 -5.25,-2.21 -5.25,-6.97 v -5.8 c 0,-2.86 0.09,-3.06 1.42,-3.18 l 0.7,-0.06 0.04,-0.03 c 0.13,-0.09 0.2,-0.27 0.19,-0.5 -0.01,-0.19 -0.09,-0.42 -0.26,-0.51 l -0.05,-0.02 h -0.05 c -1.27,0.05 -2.18,0.08 -3.29,0.08 -1.1,0 -2.05,-0.03 -3.32,-0.08 h -0.05 l -0.05,0.02 c -0.18,0.09 -0.25,0.32 -0.27,0.5 -0.02,0.23 0.05,0.41 0.19,0.5 l 0.05,0.03 0.72,0.06 c 1.33,0.12 1.42,0.32 1.42,3.18 v 6.34 c 0,3.25 0.67,5.25 2.17,6.5 1.18,1.01 2.92,1.53 5.16,1.53 2.12,0 4.14,-0.78 5.28,-2.03 1.3,-1.4 1.94,-3.54 1.94,-6.56 v -3.04 c 0,-1.36 0,-4.55 0.36,-5.39 0.12,-0.27 0.58,-0.48 1.17,-0.53 l 0.73,-0.06 z m -30.88,34.41 c 0.39,-0.26 0.26,-1.42 -0.13,-1.61 -2.77,0.13 -4.96,0.19 -7.48,0.19 -2.77,0 -4.96,-0.13 -8.12,-0.19 -0.39,0.19 -0.52,1.35 -0.13,1.61 l 1.68,0.13 c 3.35,0.26 3.8,1.35 3.8,8.12 v 23.21 c 0,6.77 -0.13,7.41 -3.74,8.06 l -1.09,0.19 c -0.39,0.39 -0.26,1.42 0.13,1.61 2.51,-0.06 4.71,-0.19 7.48,-0.19 2.51,0 4.71,0.06 8.19,0.19 0.39,-0.19 0.52,-1.35 0.13,-1.61 l -1.87,-0.19 c -3.61,-0.39 -3.93,-1.29 -3.93,-8.06 v -9.09 c 0,-1.93 0.13,-2.06 3.22,-2.06 h 18.44 c 3.09,0 3.22,0.13 3.22,2.06 v 9.09 c 0,6.77 0,7.41 -3.93,8.06 l -1.22,0.19 c -0.39,0.39 -0.26,1.42 0.13,1.61 2.84,-0.13 5.16,-0.19 7.8,-0.19 2.51,0 4.71,0.06 7.8,0.19 0.39,-0.19 0.52,-1.35 0.13,-1.61 l -1.55,-0.19 c -3.74,-0.45 -3.87,-1.29 -3.87,-8.06 V 90.08 c 0,-6.77 0.13,-7.74 3.87,-8.12 l 1.35,-0.13 c 0.39,-0.26 0.26,-1.42 -0.13,-1.61 -2.9,0.13 -5.09,0.19 -7.61,0.19 -2.64,0 -4.83,-0.07 -7.8,-0.19 -0.39,0.19 -0.52,1.35 -0.13,1.61 l 1.22,0.13 c 3.8,0.39 3.93,1.35 3.93,8.12 v 7.41 c 0,2 -0.13,2.06 -3.22,2.06 h -18.44 c -3.09,0 -3.22,-0.06 -3.22,-2.06 v -7.41 c 0,-6.77 0.13,-7.74 3.87,-8.12 z m -2.6,-20.99 0.01,-0.06 -0.03,-0.06 c -0.12,-0.26 -0.4,-0.37 -0.63,-0.37 -0.13,0 -0.25,0.04 -0.35,0.1 l -0.07,0.08 c -0.77,1.54 -1.46,2.32 -1.81,2.51 -0.58,0.29 -1.39,0.38 -3.35,0.38 -2.24,0 -2.81,-0.27 -3.1,-0.55 -0.38,-0.41 -0.46,-1.28 -0.46,-2.65 v -3.79 c 0,-0.52 0,-0.52 0.68,-0.52 h 1.56 c 0.94,0 1.64,0.02 2.02,0.13 0.37,0.09 0.57,0.34 0.68,0.87 l 0.24,1.05 0.04,0.09 c 0.1,0.12 0.29,0.19 0.5,0.19 0.25,0 0.44,-0.09 0.53,-0.25 L 184,57.94 v -0.06 c 0,-0.26 -0.02,-0.61 -0.04,-1 -0.03,-0.49 -0.06,-1.04 -0.06,-1.58 0,-0.56 0.03,-1.14 0.06,-1.64 0.02,-0.41 0.05,-0.78 0.05,-1.07 v -0.05 l -0.03,-0.05 c -0.09,-0.16 -0.29,-0.25 -0.54,-0.25 -0.21,0 -0.4,0.07 -0.5,0.19 l -0.26,1.19 c -0.12,0.61 -0.27,0.71 -0.51,0.78 -0.29,0.1 -1.09,0.15 -2.22,0.15 h -1.56 c -0.68,0 -0.68,0 -0.68,-0.55 v -5.37 c 0,-0.87 0,-0.87 0.6,-0.87 h 1.93 c 1.14,0 2.01,0.03 2.56,0.16 1.23,0.31 1.47,1.08 1.84,2.25 l 0.05,0.16 0.04,0.07 c 0.09,0.11 0.25,0.17 0.44,0.17 0.19,0 0.44,-0.06 0.56,-0.24 l 0.04,-0.06 -0.04,-0.4 c -0.14,-1.56 -0.27,-2.89 -0.41,-3.3 l -0.06,-0.18 -0.18,0.04 c -0.3,0.07 -1.96,0.07 -3.58,0.07 h -5.05 c -1.03,0 -1.92,-0.02 -3.16,-0.08 h -0.05 l -0.05,0.02 c -0.22,0.11 -0.26,0.42 -0.26,0.52 -0.02,0.24 0.05,0.42 0.19,0.51 l 0.52,0.09 c 1.38,0.16 1.46,0.34 1.46,3.18 v 9.67 c 0,2.91 -0.17,3.04 -1.48,3.15 l -0.96,0.09 -0.05,0.05 c -0.15,0.15 -0.18,0.4 -0.15,0.59 0.03,0.2 0.12,0.35 0.25,0.41 l 0.05,0.02 h 0.05 c 1.55,-0.05 2.49,-0.08 3.65,-0.08 h 2.42 c 2.34,0 4.7,0.03 7.19,0.08 h 0.13 l 0.06,-0.12 c 0.38,-0.73 1.06,-2.81 1.25,-3.76 z m -22.45,-0.42 v -9.67 c 0,-2.86 0.08,-3.04 1.42,-3.18 l 0.56,-0.05 0.09,-0.03 c 0.13,-0.09 0.2,-0.27 0.19,-0.51 -0.01,-0.09 -0.04,-0.41 -0.26,-0.52 l -0.05,-0.02 h -0.05 c -1.3,0.06 -2.19,0.08 -3.16,0.08 -1.16,0 -2.1,-0.03 -3.24,-0.08 h -0.05 l -0.05,0.02 c -0.22,0.11 -0.26,0.42 -0.26,0.52 -0.02,0.23 0.05,0.42 0.19,0.51 l 0.6,0.09 c 1.37,0.14 1.45,0.32 1.45,3.18 v 3.09 c 0,0.65 0,0.65 -1.14,0.65 h -7.68 c -1.14,0 -1.14,0 -1.14,-0.65 v -3.09 c 0,-2.86 0.08,-3.04 1.43,-3.18 l 0.51,-0.05 0.09,-0.03 c 0.13,-0.09 0.2,-0.28 0.19,-0.51 -0.01,-0.09 -0.04,-0.41 -0.27,-0.52 l -0.05,-0.02 h -0.05 c -1.22,0.06 -2.12,0.08 -3.11,0.08 -0.7,0 -1.31,-0.02 -1.98,-0.04 -0.43,-0.01 -0.88,-0.03 -1.4,-0.04 h -0.05 l -0.04,0.02 c -0.22,0.11 -0.26,0.42 -0.27,0.52 -0.02,0.24 0.05,0.42 0.19,0.51 l 0.05,0.03 0.75,0.06 c 1.18,0.09 1.39,0.33 1.39,3.18 v 9.67 c 0,2.8 -0.05,2.91 -1.39,3.15 l -0.52,0.09 -0.05,0.05 c -0.15,0.15 -0.18,0.4 -0.15,0.59 0.03,0.2 0.12,0.35 0.25,0.41 l 0.05,0.02 h 0.05 c 0.37,-0.01 0.72,-0.02 1.07,-0.03 0.64,-0.02 1.29,-0.05 2.04,-0.05 1.01,0 1.87,0.02 3.41,0.08 h 0.05 l 0.05,-0.02 c 0.18,-0.09 0.25,-0.33 0.26,-0.52 0.01,-0.23 -0.06,-0.42 -0.19,-0.5 l -0.87,-0.11 c -1.29,-0.14 -1.45,-0.27 -1.45,-3.15 v -3.79 c 0,-0.65 0,-0.65 1.14,-0.65 h 7.68 c 1.14,0 1.14,0 1.14,0.65 v 3.79 c 0,2.86 -0.03,2.92 -1.46,3.15 l -0.58,0.09 -0.05,0.05 c -0.15,0.15 -0.18,0.4 -0.15,0.59 0.03,0.2 0.13,0.35 0.25,0.41 l 0.05,0.02 h 0.05 c 1.29,-0.06 2.22,-0.08 3.24,-0.08 1.06,0 1.99,0.03 3.24,0.08 h 0.05 l 0.05,-0.02 c 0.22,-0.11 0.26,-0.42 0.27,-0.52 0.02,-0.23 -0.05,-0.42 -0.19,-0.51 l -0.73,-0.11 c -1.35,-0.19 -1.41,-0.34 -1.41,-3.18 z m -22.09,-14.32 0.02,-0.08 -0.04,-0.07 c -0.1,-0.2 -0.4,-0.22 -0.49,-0.22 -0.07,0 -0.17,0.01 -0.25,0.04 l -0.07,0.03 -0.04,0.06 c -0.35,0.6 -0.49,0.65 -1.92,0.65 h -11.1 c -1.2,0 -1.74,-0.06 -1.85,-0.66 l -0.01,-0.06 -0.05,-0.05 c -0.07,-0.07 -0.2,-0.11 -0.37,-0.11 -0.06,0 -0.28,0.01 -0.4,0.09 l -0.07,0.05 -0.02,0.09 c -0.19,1.07 -0.59,2.77 -1.01,3.97 l -0.03,0.08 0.04,0.08 c 0.16,0.32 0.71,0.48 1.01,0.26 l 0.04,-0.03 0.02,-0.05 c 0.27,-0.62 0.53,-1.21 1.16,-1.78 0.59,-0.54 1.93,-0.62 3.16,-0.62 h 1.48 c 0.6,0 0.6,0 0.6,0.65 v 12.01 c 0,2.91 -0.17,3.04 -1.48,3.15 l -0.97,0.08 -0.09,0.03 c -0.16,0.1 -0.25,0.3 -0.24,0.54 0.01,0.18 0.08,0.41 0.25,0.49 l 0.05,0.02 h 0.05 c 1.64,-0.05 2.64,-0.08 3.73,-0.08 1.05,0 1.92,0.03 3.51,0.08 h 0.05 l 0.05,-0.02 c 0.18,-0.09 0.25,-0.33 0.26,-0.52 0.01,-0.23 -0.05,-0.42 -0.19,-0.5 l -0.96,-0.11 c -1.34,-0.12 -1.42,-0.29 -1.42,-3.15 V 48.39 c 0,-0.27 0,-0.53 0.04,-0.58 0.05,-0.05 0.34,-0.05 0.53,-0.05 h 1.91 c 1.44,0 2.42,0.21 2.99,0.63 0.25,0.19 0.47,0.87 0.59,1.82 l 0.01,0.06 0.04,0.05 c 0.1,0.12 0.28,0.19 0.49,0.19 0.25,0 0.47,-0.11 0.55,-0.29 l 0.03,-0.05 -0.01,-0.06 c -0.05,-0.77 0.13,-2.93 0.42,-4.01 z m -18.29,55.84 c 0,8.32 4,14.18 9.15,17.73 4.71,3.16 10.25,4.32 16.05,4.32 4.13,0 8.77,-0.97 10.18,-1.48 0.71,-0.26 1.48,-0.51 2.26,-0.64 0.97,-1.22 2.64,-5.48 3.09,-8.83 -0.26,-0.45 -1.22,-0.58 -1.68,-0.26 -1.48,3.8 -5.16,9.22 -13.47,9.22 -10.57,0 -19.15,-7.48 -19.15,-21.02 0,-13.34 8.38,-19.6 18.24,-19.6 9.35,0 12.25,5.03 13.22,9.41 0.45,0.39 1.42,0.32 1.74,-0.13 -0.52,-3.93 -0.84,-7.99 -0.9,-9.48 -0.58,0.07 -1.03,-0.06 -1.8,-0.26 -3.03,-0.84 -7.93,-1.55 -11.41,-1.55 -6.7,0 -12.7,1.8 -17.41,5.48 -4.89,3.81 -8.11,9.93 -8.11,17.09 z"
   id="path2" />
	</g>
</g>
<g
   id="TM"
   class="st0">
	<g
   class="st1"
   id="g4">
		<path
   class="st5"
   d="m 449.05,116.2 h -2.67 v -1.37 h 6.82 v 1.37 h -2.67 v 7.04 h -1.49 v -7.04 z"
   id="path3" />
		<path
   class="st5"
   d="m 454.77,114.83 h 1.57 l 2.56,3.98 2.56,-3.98 h 1.57 v 8.41 h -1.48 v -6.03 l -2.65,3.96 h -0.05 l -2.63,-3.94 v 6.01 h -1.45 z"
   id="path4" />
	</g>
</g>
</svg>
